<?xml version="1.0" encoding="utf-8"?>
<!-- Generator: Adobe Illustrator 21.0.0, SVG Export Plug-In . SVG Version: 6.00 Build 0)  -->
<svg version="1.1" id="Ledger" xmlns="http://www.w3.org/2000/svg" xmlns:xlink="http://www.w3.org/1999/xlink" x="0px" y="0px"
	 viewBox="0 0 49 49" style="enable-background:new 0 0 49 49;" xml:space="preserve">
<style type="text/css">
	.st0{fill:#FFFFFF;}
</style>
<path class="st0" d="M41.1,0.1H18.7v30.2h30.2V7.9C48.9,3.5,45.4,0.1,41.1,0.1C41.1,0.1,41.1,0.1,41.1,0.1z M11.7,0.1H7.9
	c-4.3,0-7.8,3.5-7.8,7.8c0,0,0,0,0,0v3.9h11.7V0.1z M0.1,18.7h11.7v11.7H0.1V18.7z M37.3,48.9h3.9c4.3,0,7.8-3.5,7.8-7.8
	c0,0,0,0,0,0v-3.7H37.3V48.9z M18.7,37.3h11.7V49H18.7V37.3z M0.1,37.3v3.9c0,4.3,3.5,7.8,7.8,7.8l0,0h3.9V37.3H0.1z"/>
</svg>
