<?xml version="1.0" encoding="utf-8"?>
<!-- Generator: Adobe Illustrator 21.0.0, SVG Export Plug-In . SVG Version: 6.00 Build 0)  -->
<svg version="1.1" id="MetaMask" xmlns="http://www.w3.org/2000/svg" xmlns:xlink="http://www.w3.org/1999/xlink" x="0px" y="0px"
	 viewBox="0 0 49 45" style="enable-background:new 0 0 49 45;" xml:space="preserve">
<style type="text/css">
	.st0{fill:#E17726;stroke:#E17726;stroke-width:0.25;stroke-linecap:round;stroke-linejoin:round;}
	.st1{fill:#E27625;stroke:#E27625;stroke-width:0.25;stroke-linecap:round;stroke-linejoin:round;}
	.st2{fill:#D5BFB2;stroke:#D5BFB2;stroke-width:0.25;stroke-linecap:round;stroke-linejoin:round;}
	.st3{fill:#233447;stroke:#233447;stroke-width:0.25;stroke-linecap:round;stroke-linejoin:round;}
	.st4{fill:#CC6228;stroke:#CC6228;stroke-width:0.25;stroke-linecap:round;stroke-linejoin:round;}
	.st5{fill:#E27525;stroke:#E27525;stroke-width:0.25;stroke-linecap:round;stroke-linejoin:round;}
	.st6{fill:#F5841F;stroke:#F5841F;stroke-width:0.25;stroke-linecap:round;stroke-linejoin:round;}
	.st7{fill:#C0AC9D;stroke:#C0AC9D;stroke-width:0.25;stroke-linecap:round;stroke-linejoin:round;}
	.st8{fill:#161616;stroke:#161616;stroke-width:0.25;stroke-linecap:round;stroke-linejoin:round;}
	.st9{fill:#763E1A;stroke:#763E1A;stroke-width:0.25;stroke-linecap:round;stroke-linejoin:round;}
</style>
<path class="st0" d="M46.1,0.2l-18.9,14l3.5-8.2L46.1,0.2z"/>
<path class="st1" d="M2.5,0.2l18.7,14.1l-3.3-8.4L2.5,0.2z"/>
<path class="st1" d="M39.3,32.6l-5,7.7l10.7,3l3.1-10.5L39.3,32.6z"/>
<path class="st1" d="M0.6,32.7l3.1,10.5l10.7-3l-5-7.7L0.6,32.7z"/>
<path class="st1" d="M13.8,19.6l-3,4.5l10.6,0.5l-0.4-11.4L13.8,19.6z"/>
<path class="st1" d="M34.8,19.6L27.4,13l-0.2,11.6l10.6-0.5L34.8,19.6z"/>
<path class="st1" d="M14.3,40.2l6.4-3.1l-5.5-4.3L14.3,40.2z"/>
<path class="st1" d="M27.8,37.1l6.4,3.1l-0.9-7.4L27.8,37.1z"/>
<path class="st2" d="M34.3,40.2l-6.4-3.1l0.5,4.2l-0.1,1.8L34.3,40.2z"/>
<path class="st2" d="M14.3,40.2l6,2.8l0-1.8l0.5-4.2L14.3,40.2z"/>
<path class="st3" d="M20.4,30l-5.3-1.6l3.8-1.7L20.4,30z"/>
<path class="st3" d="M28.2,30l1.6-3.3l3.8,1.7L28.2,30z"/>
<path class="st4" d="M14.3,40.2l0.9-7.7l-5.9,0.2L14.3,40.2z"/>
<path class="st4" d="M33.3,32.6l0.9,7.7l5-7.5L33.3,32.6z"/>
<path class="st4" d="M37.8,24.1l-10.6,0.5l1,5.5l1.6-3.3l3.8,1.7L37.8,24.1z"/>
<path class="st4" d="M15.1,28.5l3.8-1.7l1.6,3.3l1-5.5l-10.6-0.5L15.1,28.5z"/>
<path class="st5" d="M10.8,24.1l4.5,8.7l-0.1-4.3L10.8,24.1z"/>
<path class="st5" d="M33.5,28.5l-0.2,4.3l4.5-8.7L33.5,28.5z"/>
<path class="st5" d="M21.4,24.6l-1,5.5l1.3,6.4L22,28L21.4,24.6z"/>
<path class="st5" d="M27.2,24.6L26.7,28l0.3,8.5l1.3-6.4L27.2,24.6z"/>
<path class="st6" d="M28.2,30l-1.3,6.4l0.9,0.6l5.5-4.3l0.2-4.3L28.2,30z"/>
<path class="st6" d="M15.1,28.5l0.1,4.3l5.5,4.3l0.9-0.6L20.4,30L15.1,28.5z"/>
<path class="st7" d="M28.3,43.1l0.1-1.8l-0.5-0.4h-7.1l-0.5,0.4l0,1.8l-6-2.8l2.1,1.7l4.2,2.9h7.3l4.3-2.9l2.1-1.7L28.3,43.1z"/>
<path class="st8" d="M27.8,37.1l-0.9-0.6h-5.3l-0.9,0.6l-0.5,4.2l0.5-0.4h7.1l0.5,0.4L27.8,37.1z"/>
<path class="st9" d="M46.9,15.1l1.6-7.7l-2.4-7.2L27.8,13.7l7,5.9l9.9,2.9l2.2-2.5l-1-0.7l1.5-1.4L46.3,17l1.5-1.2L46.9,15.1z"/>
<path class="st9" d="M0.2,7.4l1.6,7.7l-1,0.8L2.3,17l-1.2,0.9l1.5,1.4l-1,0.7l2.2,2.5l9.9-2.9l7-5.9L2.5,0.2L0.2,7.4z"/>
<path class="st6" d="M44.8,22.5l-9.9-2.9l3,4.5l-4.5,8.7l5.9-0.1h8.8L44.8,22.5z"/>
<path class="st6" d="M13.8,19.6l-9.9,2.9L0.6,32.7h8.8l5.9,0.1l-4.5-8.7L13.8,19.6z"/>
<path class="st6" d="M27.2,24.6l0.6-10.9l2.9-7.8H17.9l2.9,7.8l0.6,10.9l0.2,3.4l0,8.5h5.3l0-8.5L27.2,24.6z"/>
</svg>
