<?xml version="1.0" encoding="utf-8"?>
<!-- Generator: Adobe Illustrator 21.0.0, SVG Export Plug-In . SVG Version: 6.00 Build 0)  -->
<svg version="1.1" id="TUSD" xmlns="http://www.w3.org/2000/svg" xmlns:xlink="http://www.w3.org/1999/xlink" x="0px" y="0px"
	 viewBox="0 0 48 48" style="enable-background:new 0 0 48 48;" xml:space="preserve">
<style type="text/css">
	.st0{fill:#002868;}
	.st1{fill:#FFFFFF;}
</style>
<path id="Coin_BG" class="st0" d="M24,48L24,48C10.8,48,0,37.2,0,24l0,0C0,10.8,10.8,0,24,0l0,0c13.2,0,24,10.8,24,24l0,0
	C48,37.2,37.2,48,24,48z"/>
<path id="BG_1_" class="st1" d="M36.1,38.4H11.9c-1.3,0-2.3-1-2.3-2.3V11.9c0-1.3,1-2.3,2.3-2.3h24.2c1.3,0,2.3,1,2.3,2.3v24.2
	C38.4,37.3,37.4,38.4,36.1,38.4z"/>
<g>
	<path class="st0" d="M15.2,35.5c-0.1,0-0.1-0.1-0.1-0.1v-3.9c0-0.1-0.1-0.1-0.1-0.1h-1.4c-0.1,0-0.1-0.1-0.1-0.1v-0.7
		c0-0.1,0.1-0.1,0.1-0.1h4.2c0.1,0,0.1,0.1,0.1,0.1v0.7c0,0.1-0.1,0.1-0.1,0.1h-1.4c-0.1,0-0.1,0.1-0.1,0.1v3.9
		c0,0.1-0.1,0.1-0.1,0.1H15.2z"/>
	<path class="st0" d="M22.1,30.4c0-0.1,0.1-0.1,0.1-0.1h0.9c0.1,0,0.1,0.1,0.1,0.1v2.6c0,1.6-0.9,2.5-2.3,2.5
		c-1.4,0-2.3-0.9-2.3-2.5v-2.6c0-0.1,0.1-0.1,0.1-0.1h0.9c0.1,0,0.1,0.1,0.1,0.1v2.7c0,0.8,0.4,1.3,1.1,1.3s1.1-0.5,1.1-1.3
		L22.1,30.4L22.1,30.4z"/>
	<path class="st0" d="M27.5,32c-0.1,0-0.2,0-0.2-0.1c-0.2-0.4-0.5-0.6-1-0.6c-0.5,0-0.9,0.2-0.9,0.5c0,0.4,0.4,0.5,1.2,0.6
		c1.3,0.1,2,0.5,2,1.5c0,1.1-1,1.7-2.2,1.7c-1.1,0-2-0.5-2.2-1.6c0-0.1,0-0.1,0.1-0.1h0.8c0.1,0,0.2,0,0.2,0.1
		c0.1,0.4,0.5,0.6,1.1,0.6c0.5,0,0.9-0.2,0.9-0.6c0-0.5-0.5-0.5-1.4-0.7c-1.1-0.1-1.8-0.4-1.8-1.4c0-1,0.8-1.7,2.1-1.7
		c1.2,0,2,0.6,2.2,1.6c0,0.1,0,0.2-0.1,0.2L27.5,32L27.5,32z"/>
	<path class="st0" d="M29.6,35.5c-0.1,0-0.1-0.1-0.1-0.1v-4.9c0-0.1,0.1-0.1,0.1-0.1h2.1c1.5,0,2.7,1.1,2.7,2.6
		c0,1.5-1.2,2.6-2.7,2.6L29.6,35.5L29.6,35.5z M31.7,34.4c0.8,0,1.5-0.7,1.5-1.6s-0.6-1.6-1.5-1.6h-0.9c-0.1,0-0.1,0.1-0.1,0.1v2.8
		c0,0.1,0.1,0.1,0.1,0.1L31.7,34.4L31.7,34.4z"/>
</g>
<path id="BG" class="st0" d="M37.6,27.4H10.4c-0.2,0-0.4-0.2-0.4-0.4V11.9c0-1.1,0.9-1.9,1.9-1.9h24.2c1.1,0,1.9,0.9,1.9,1.9V27
	C38,27.3,37.8,27.4,37.6,27.4z"/>
<path id="_x7C_" class="st1" d="M25.4,24.3h-2.5c-0.2,0-0.3-0.1-0.3-0.3V13.5c0-0.2,0.1-0.3,0.3-0.3h2.5c0.2,0,0.3,0.1,0.3,0.3V24
	C25.7,24.2,25.6,24.3,25.4,24.3z"/>
<path id="_x2014_" class="st1" d="M29.7,16.3H18.3c-0.2,0-0.3-0.1-0.3-0.3v-2.5c0-0.2,0.1-0.3,0.3-0.3h11.3c0.2,0,0.3,0.1,0.3,0.3
	V16C29.9,16.1,29.8,16.3,29.7,16.3z"/>
</svg>
