<?xml version="1.0" encoding="utf-8"?>
<!-- Generator: Adobe Illustrator 21.0.0, SVG Export Plug-In . SVG Version: 6.00 Build 0)  -->
<svg version="1.1" id="USDT" xmlns="http://www.w3.org/2000/svg" xmlns:xlink="http://www.w3.org/1999/xlink" x="0px" y="0px"
	 viewBox="0 0 48 48" style="enable-background:new 0 0 48 48;" xml:space="preserve">
<style type="text/css">
	.st0{fill:#26A17B;}
	.st1{fill:#FFFFFF;}
</style>
<path id="path0_fill" class="st0" d="M24,0c13.3,0,24,10.7,24,24S37.3,48,24,48S0,37.2,0,24S10.7,0,24,0z"/>
<g id="Vector_1_" transform="translate(336.29 -181.139)">
	<path id="path1_fill" class="st1" d="M-309.4,200.8v-3.5h8.1v-5.4h-22.1v5.4h8.1v3.5c-6.6,0.3-11.5,1.6-11.5,3.2
		c0,1.6,5,2.9,11.5,3.2v11.3h5.9v-11.3c6.6-0.3,11.5-1.6,11.5-3.2C-297.8,202.4-302.8,201.1-309.4,200.8L-309.4,200.8z
		 M-309.4,206.1c-0.2,0-1,0.1-2.9,0.1c-1.5,0-2.6,0-3-0.1v0c-5.8-0.3-10.2-1.3-10.2-2.5c0-1.2,4.3-2.2,10.2-2.5v3.9
		c0.4,0,1.5,0.1,3,0.1c1.8,0,2.7-0.1,2.9-0.1v-4c5.8,0.3,10.1,1.3,10.1,2.5C-299.2,204.9-303.5,205.9-309.4,206.1"/>
</g>
</svg>
