<?xml version="1.0" encoding="utf-8"?>
<!-- Generator: Adobe Illustrator 21.0.0, SVG Export Plug-In . SVG Version: 6.00 Build 0)  -->
<svg version="1.1" id="BAT" xmlns="http://www.w3.org/2000/svg" xmlns:xlink="http://www.w3.org/1999/xlink" x="0px" y="0px"
	 viewBox="0 0 48 48" style="enable-background:new 0 0 48 48;" xml:space="preserve">
<style type="text/css">
	.st0{fill:#FFFFFF;}
	.st1{fill:#FF4724;}
	.st2{fill:#9E1F63;}
	.st3{fill:#662D91;}
</style>
<path id="icon_1_" class="st0" d="M24,48L24,48C10.8,48,0,37.2,0,24l0,0C0,10.8,10.8,0,24,0l0,0c13.2,0,24,10.8,24,24l0,0
	C48,37.2,37.2,48,24,48z"/>
<g id="icon">
	<g>
		<path class="st1" d="M8.6,37.3l9.1-5.3L24,21V10.5c-0.2,0-0.3,0.1-0.5,0.3l-7.5,12.9L8.6,36.7C8.5,36.9,8.5,37.1,8.6,37.3"/>
		<path class="st2" d="M24,10.5V21L30.3,32l9.1,5.3c0.1-0.1,0.1-0.3-0.1-0.6l-7.5-12.9l-7.5-12.9C24.3,10.6,24.2,10.5,24,10.5"/>
		<path class="st3" d="M39.4,37.3L30.3,32H17.7l-9.1,5.3c0.1,0.1,0.3,0.2,0.5,0.2h29.8C39.2,37.5,39.4,37.4,39.4,37.3"/>
		<path class="st0" d="M17.7,32h12.6L24,21L17.7,32L17.7,32z"/>
	</g>
</g>
</svg>
