<?xml version="1.0" encoding="utf-8"?>
<!-- Generator: Adobe Illustrator 21.0.0, SVG Export Plug-In . SVG Version: 6.00 Build 0)  -->
<svg version="1.1" id="loom" xmlns="http://www.w3.org/2000/svg" xmlns:xlink="http://www.w3.org/1999/xlink" x="0px" y="0px"
	 viewBox="0 0 48 48" style="enable-background:new 0 0 48 48;" xml:space="preserve">
<style type="text/css">
	.st0{fill:#324465;}
	.st1{fill:#FFFFFF;}
</style>
<path id="icon_1_" class="st0" d="M24,48L24,48C10.8,48,0,37.2,0,24l0,0C0,10.8,10.8,0,24,0l0,0c13.2,0,24,10.8,24,24l0,0
	C48,37.2,37.2,48,24,48z"/>
<path class="st1" d="M31.8,37.4L11.1,22.9c-2.4-1.7-3-5-1.3-7.5c0.4-0.5,0.8-1,1.3-1.3l5-3.5l20.7,14.5c2.4,1.7,3,5,1.3,7.5
	c-0.4,0.5-0.8,1-1.3,1.3L31.8,37.4z M16.2,12.9l-3.9,2.7c-1.6,1.1-1.9,3.2-0.8,4.8c0.2,0.3,0.5,0.6,0.8,0.8L31.8,35l3.9-2.7
	c1.6-1.1,1.9-3.2,0.8-4.8c-0.2-0.3-0.5-0.6-0.8-0.8L16.2,12.9z"/>
<path class="st1" d="M16.1,35l-3.9-2.7c-1.6-1.1-1.9-3.2-0.8-4.8c0.2-0.3,0.5-0.6,0.8-0.8l10.1-7l-1.7-1.2l-9.5,6.6
	c-2.4,1.7-3,5-1.3,7.5c0.4,0.5,0.8,1,1.3,1.3l5,3.5l6.2-4.3l-1.7-1.2L16.1,35z"/>
<path class="st1" d="M36.8,14.1l-5-3.5l-6.2,4.3l1.7,1.2l4.5-3.2l3.9,2.7c1.6,1.1,1.9,3.2,0.8,4.8c-0.2,0.3-0.5,0.6-0.8,0.8l-10.1,7
	l1.7,1.2l9.5-6.7c2.4-1.7,3-5,1.3-7.5C37.8,14.9,37.3,14.5,36.8,14.1L36.8,14.1z"/>
</svg>
