<?xml version="1.0" encoding="utf-8"?>
<!-- Generator: Adobe Illustrator 21.0.0, SVG Export Plug-In . SVG Version: 6.00 Build 0)  -->
<svg version="1.1" id="DAI" xmlns="http://www.w3.org/2000/svg" xmlns:xlink="http://www.w3.org/1999/xlink" x="0px" y="0px"
	 viewBox="0 0 48 48" style="enable-background:new 0 0 48 48;" xml:space="preserve">
<style type="text/css">
	.st0{fill:#FFFFFF;}
	.st1{fill:#F4B731;}
</style>
<path id="Coin_BG_1_" class="st0" d="M24,48L24,48C10.8,48,0,37.2,0,24l0,0C0,10.8,10.8,0,24,0l0,0c13.2,0,24,10.8,24,24l0,0
	C48,37.2,37.2,48,24,48z"/>
<g id="图层_2">
	<path class="st1" d="M13.1,11.8H23c6,0,10.6,3.2,12.3,7.9h3.1v2.8h-2.4c0,0.4,0.1,0.9,0.1,1.4V24c0,0.5,0,1-0.1,1.5h2.4v2.8h-3.1
		c-1.7,4.6-6.3,7.8-12.2,7.8h-9.9v-7.8H9.7v-2.8h3.4v-3H9.7v-2.8h3.4V11.8z"/>
	<path class="st0" d="M15.4,28.4v5.3h7.1c4.4,0,7.7-2.1,9.2-5.3H15.4z M32.5,25.5H15.4v-3h17.1c0.1,0.5,0.1,0.9,0.1,1.4v0.1
		C32.6,24.6,32.6,25.1,32.5,25.5z M22.5,14.3c4.4,0,7.7,2.2,9.2,5.4H15.4v-5.4H22.5z"/>
</g>
</svg>
