<?xml version="1.0" encoding="utf-8"?>
<!-- Generator: Adobe Illustrator 21.0.0, SVG Export Plug-In . SVG Version: 6.00 Build 0)  -->
<svg version="1.1" id="MAKER" xmlns="http://www.w3.org/2000/svg" xmlns:xlink="http://www.w3.org/1999/xlink" x="0px" y="0px"
	 viewBox="0 0 48 48" style="enable-background:new 0 0 48 48;" xml:space="preserve">
<style type="text/css">
	.st0{fill:#FFFFFF;}
	.st1{fill:#1AAB9B;}
</style>
<path id="Coin_BG_2_" class="st0" d="M24,48L24,48C10.8,48,0,37.2,0,24l0,0C0,10.8,10.8,0,24,0l0,0c13.2,0,24,10.8,24,24l0,0
	C48,37.2,37.2,48,24,48z"/>
<g id="图层_2">
	<path class="st1" d="M10.9,31.9V19.5l9.5,7.1v5.4h2.4v-5.9c0-0.4-0.2-0.9-0.6-1.1l-11.5-8.6c-0.9-0.7-2.3,0-2.3,1.1v14.5H10.9z
		 M37.1,31.9V19.5l-9.5,7.1v5.4h-2.4v-5.9c0-0.4,0.2-0.9,0.6-1.1l11.5-8.6c0.9-0.7,2.3,0,2.3,1.1v14.5H37.1z"/>
</g>
</svg>
