<?xml version="1.0" encoding="utf-8"?>
<!-- Generator: Adobe Illustrator 21.0.0, SVG Export Plug-In . SVG Version: 6.00 Build 0)  -->
<svg version="1.1" id="a" xmlns="http://www.w3.org/2000/svg" xmlns:xlink="http://www.w3.org/1999/xlink" x="0px" y="0px"
	 viewBox="0 0 48 48" style="enable-background:new 0 0 48 48;" xml:space="preserve">
<style type="text/css">
	.st0{fill:url(#SVGID_1_);}
	.st1{fill:#FFFFFF;}
</style>
<g>
	<g id="b">
		
			<linearGradient id="SVGID_1_" gradientUnits="userSpaceOnUse" x1="1.0372" y1="49.0052" x2="0.9912" y2="48.9665" gradientTransform="matrix(776 0 0 -776 -763 38037)">
			<stop  offset="0" style="stop-color:#B6509E"/>
			<stop  offset="1" style="stop-color:#2EBAC6"/>
		</linearGradient>
		<circle class="st0" cx="24" cy="24" r="24"/>
		<path class="st1" d="M34.3,33.3l-7.9-19.2c-0.4-1-1.1-1.5-2-1.5h-0.7c-0.9,0-1.5,0.5-2,1.5l-3.4,8.4h-2.6c-0.8,0-1.4,0.6-1.4,1.4
			v0c0,0.8,0.6,1.4,1.4,1.4H17l-3.3,8c-0.1,0.2-0.1,0.4-0.1,0.5c0,0.4,0.1,0.8,0.4,1.1s0.6,0.4,1.1,0.4c0.3,0,0.6-0.1,0.8-0.3
			c0.3-0.2,0.4-0.4,0.6-0.7l3.6-9h2.5c0.8,0,1.4-0.6,1.4-1.4v0c0-0.8-0.6-1.4-1.4-1.4h-1.3l2.8-6.9l7.5,18.8
			c0.1,0.3,0.3,0.5,0.6,0.7c0.2,0.2,0.5,0.3,0.8,0.3c0.4,0,0.8-0.1,1.1-0.4c0.3-0.3,0.4-0.6,0.4-1.1C34.4,33.7,34.3,33.5,34.3,33.3z
			"/>
	</g>
</g>
</svg>
