<?xml version="1.0" encoding="utf-8"?>
<!-- Generator: Adobe Illustrator 21.0.0, SVG Export Plug-In . SVG Version: 6.00 Build 0)  -->
<svg version="1.1" id="omg" xmlns="http://www.w3.org/2000/svg" xmlns:xlink="http://www.w3.org/1999/xlink" x="0px" y="0px"
	 viewBox="0 0 48 48" style="enable-background:new 0 0 48 48;" xml:space="preserve">
<style type="text/css">
	.st0{fill:#1A53F0;}
	.st1{fill:#FFFFFF;}
</style>
<path id="icon_2_" class="st0" d="M24,48L24,48C10.8,48,0,37.2,0,24l0,0C0,10.8,10.8,0,24,0l0,0c13.2,0,24,10.8,24,24l0,0
	C48,37.2,37.2,48,24,48z"/>
<g id="icon">
	<path class="st1" d="M17.2,24.4c-3.5,0-6.3,2.8-6.3,6.4s2.8,6.4,6.3,6.4s6.3-2.8,6.3-6.4S20.7,24.4,17.2,24.4L17.2,24.4z
		 M17.2,35.2c-2.4,0-4.4-2-4.4-4.4s2-4.4,4.4-4.4s4.4,2,4.4,4.4C21.6,33.2,19.7,35.2,17.2,35.2L17.2,35.2z M30.8,10.9
		c-3.5,0-6.3,2.8-6.3,6.4s2.8,6.4,6.3,6.4s6.3-2.8,6.3-6.4S34.3,10.9,30.8,10.9L30.8,10.9z M30.8,21.7c-2.4,0-4.4-2-4.4-4.4
		s2-4.4,4.4-4.4s4.4,2,4.4,4.4C35.2,19.7,33.2,21.7,30.8,21.7L30.8,21.7z M17.2,10.9c-3,0-5.6,2.1-6.2,5.1s1,5.9,3.7,7.1
		c3.2,1.4,7-0.2,8.3-3.4c1-2.4,0.5-5.1-1.3-6.9h1.8v-1.9H17.2z M21.7,17.2c0,2.4-2,4.4-4.4,4.4s-4.4-2-4.4-4.4s2-4.4,4.4-4.4
		S21.7,14.8,21.7,17.2L21.7,17.2L21.7,17.2z"/>
</g>
</svg>
