<?xml version="1.0" encoding="utf-8"?>
<!-- Generator: Adobe Illustrator 21.0.0, SVG Export Plug-In . SVG Version: 6.00 Build 0)  -->
<svg version="1.1" id="HB" xmlns="http://www.w3.org/2000/svg" xmlns:xlink="http://www.w3.org/1999/xlink" x="0px" y="0px"
	 viewBox="0 0 48 48" style="enable-background:new 0 0 48 48;" xml:space="preserve">
<style type="text/css">
	.st0{fill:#1B2143;}
	.st1{fill:#FFFFFF;}
</style>
<path id="icon" class="st0" d="M24,0c13.3,0,24,10.7,24,24S37.3,48,24,48S0,37.3,0,24S10.7,0,24,0z"/>
<g id="HB_1_">
	<path class="st1" d="M27.5,18c0-4.5-2.2-8.4-3.9-9.6c0,0-0.1-0.1-0.1,0.1c-0.1,8.7-4.6,11-7,14.2C10.9,30,16.1,38,21.5,39.5
		c3,0.8-0.7-1.5-1.2-6.3C19.7,27.3,27.5,22.8,27.5,18L27.5,18z M30.1,20.9c0,0-0.1,0-0.1,0c-0.1,1.1-1.2,3.4-2.6,5.6
		c-4.8,7.3-2.1,10.8-0.5,12.7c0.9,1.1,0,0,2.2-1.1c2.8-1.7,4.5-4.6,4.8-7.8C34.3,25.1,31.2,21.9,30.1,20.9L30.1,20.9z"/>
</g>
</svg>
