<?xml version="1.0" encoding="utf-8"?>
<!-- Generator: Adobe Illustrator 21.0.0, SVG Export Plug-In . SVG Version: 6.00 Build 0)  -->
<svg version="1.1" id="Trezor" xmlns="http://www.w3.org/2000/svg" xmlns:xlink="http://www.w3.org/1999/xlink" x="0px" y="0px"
	 viewBox="0 0 49 71" style="enable-background:new 0 0 49 71;" xml:space="preserve">
<style type="text/css">
	.st0{fill:#FFFFFF;}
</style>
<path id="path7" class="st0" d="M24.5,0.1C14.8,0.1,7,7.9,7,17.7v6.6c-3.4,0.6-6.8,1.4-6.8,2.5v34.4c0,0,0,1,1.1,1.4
	c3.9,1.6,19.1,7,22.6,8.2c0.5,0.2,0.6,0.2,0.7,0.2c0.2,0,0.2,0,0.7-0.2c3.5-1.2,18.8-6.6,22.7-8.2c1-0.4,1-1.4,1-1.4V26.8
	c0-1.1-3.4-1.9-6.8-2.5v-6.6C42.1,7.9,34.2,0.1,24.5,0.1z M24.5,8.5c5.7,0,9.2,3.5,9.2,9.2v5.7c-6.4-0.5-11.9-0.5-18.4,0v-5.7
	C15.4,11.9,18.8,8.5,24.5,8.5z M24.5,31.8c8,0,14.7,0.6,14.7,1.7V55c0,0.3,0,0.4-0.3,0.5c-0.3,0.1-13.6,4.9-13.6,4.9
	s-0.5,0.2-0.7,0.2c-0.2,0-0.7-0.2-0.7-0.2s-13.3-4.8-13.6-4.9c-0.3-0.1-0.3-0.2-0.3-0.5V33.5C9.8,32.4,16.5,31.8,24.5,31.8z"/>
</svg>
