<?xml version="1.0" encoding="utf-8"?>
<!-- Generator: Adobe Illustrator 21.0.0, SVG Export Plug-In . SVG Version: 6.00 Build 0)  -->
<svg version="1.1" id="WalletConnet" xmlns="http://www.w3.org/2000/svg" xmlns:xlink="http://www.w3.org/1999/xlink" x="0px"
	 y="0px" viewBox="0 0 49 30" style="enable-background:new 0 0 49 30;" xml:space="preserve">
<style type="text/css">
	.st0{fill:#3B99FC;}
</style>
<g id="Page-1">
	<g id="walletconnect-logo-alt">
		<path id="WalletConnect" class="st0" d="M10,5.9c8-7.8,20.9-7.8,28.9,0l1,0.9c0.4,0.4,0.4,1,0,1.4l-3.3,3.2
			c-0.2,0.2-0.5,0.2-0.7,0l-1.3-1.3c-5.6-5.4-14.6-5.4-20.1,0L13,11.5c-0.2,0.2-0.5,0.2-0.7,0L9,8.3c-0.4-0.4-0.4-1,0-1.4L10,5.9z
			 M45.7,12.5l2.9,2.9c0.4,0.4,0.4,1,0,1.4L35.4,29.7c-0.4,0.4-1,0.4-1.4,0c0,0,0,0,0,0l-9.3-9.1c-0.1-0.1-0.3-0.1-0.4,0l0,0
			l-9.3,9.1c-0.4,0.4-1,0.4-1.4,0c0,0,0,0,0,0L0.3,16.8c-0.4-0.4-0.4-1,0-1.4l2.9-2.9c0.4-0.4,1-0.4,1.4,0l9.3,9.1
			c0.1,0.1,0.3,0.1,0.4,0c0,0,0,0,0,0l9.3-9.1c0.4-0.4,1-0.4,1.4,0c0,0,0,0,0,0l9.3,9.1c0.1,0.1,0.3,0.1,0.4,0l9.3-9.1
			C44.6,12.1,45.3,12.1,45.7,12.5z"/>
	</g>
</g>
</svg>
