<svg width="32" height="32" viewBox="0 0 32 32" fill="none" xmlns="http://www.w3.org/2000/svg">
<path opacity="0.8" d="M1.86293 8.94863L1.83911 9.00586L11.7836 13.1453L11.8074 13.0881L1.86293 8.94863Z" fill="#0021DB"/>
<path opacity="0.8" d="M1.86293 8.94863L1.83911 9.00586L11.7836 13.1453L11.8074 13.0881L1.86293 8.94863Z" fill="#0021DB"/>
<path opacity="0.8" d="M17.1742 21.4252L16.9805 31.998L17.057 31.9995L17.2508 21.4266L17.1742 21.4252Z" fill="#0021DB"/>
<path opacity="0.8" d="M6.49477 3.32128L6.41895 3.38965L13.3074 11.0293L13.3832 10.9609L6.49477 3.32128Z" fill="#0021DB"/>
<path opacity="0.8" d="M14.6253 20.7465L10.105 29.8525L10.2062 29.9028L14.7265 20.7968L14.6253 20.7465Z" fill="#0021DB"/>
<path opacity="0.8" d="M12.7178 0.217128L12.8418 0.180664L15.6933 9.71974L15.5693 9.7562L12.7178 0.217128Z" fill="#0021DB"/>
<path opacity="0.8" d="M4.95814 25.2573L4.87427 25.1479L12.623 19.0547L12.7069 19.1604L4.95814 25.2573Z" fill="#0021DB"/>
<path opacity="0.8" d="M19.6176 7.51392e-05L18.1604 9.56738L18.3118 9.59044L19.769 0.0231351L19.6176 7.51392e-05Z" fill="#0021DB"/>
<path opacity="0.8" d="M2.22348 18.9601L2.18701 18.8033L11.5438 16.6738L11.5766 16.827L2.22348 18.9601Z" fill="#0021DB"/>
<path opacity="0.8" d="M26.115 28.1193L25.9765 28.2141L20.6052 20.3634L20.7438 20.2686L26.115 28.1193Z" fill="#0021DB"/>
<path opacity="0.8" d="M25.856 2.6748L26.0018 2.77326L20.7145 10.5876L20.5723 10.4891L25.856 2.6748Z" fill="#0021DB"/>
<path opacity="0.8" d="M2.41284 12.2141L2.45295 12.0391L11.5873 14.0665L11.5509 14.2415L2.41284 12.2141Z" fill="#0021DB"/>
<path opacity="0.8" d="M18.3455 21.246L18.1619 21.2754L19.6286 30.4426L19.8122 30.4132L18.3455 21.246Z" fill="#0021DB"/>
<path opacity="0.8" d="M5.40674 6.28473L5.53072 6.12793L12.7471 11.7398L12.6231 11.8966L5.40674 6.28473Z" fill="#0021DB"/>
<path opacity="0.8" d="M13.2284 29.8188L13.0315 29.7604L15.584 21.0527L15.7773 21.1111L13.2284 29.8188Z" fill="#0021DB"/>
<path opacity="0.8" d="M10.5664 2.25594L10.756 2.16113L14.7817 10.1432L14.5921 10.238L10.5664 2.25594Z" fill="#0021DB"/>
<path opacity="0.8" d="M7.60916 26.5195L7.44507 26.3736L13.3487 19.748L13.5128 19.8939L7.60916 26.5195Z" fill="#0021DB"/>
<path opacity="0.8" d="M16.8567 0.833465L17.0864 0.826172L17.3052 9.57397L17.0718 9.57762L16.8567 0.833465Z" fill="#0021DB"/>
<path opacity="0.8" d="M3.98838 21.2177L3.89722 21.0025L11.8939 17.6113L11.9887 17.8301L3.98838 21.2177Z" fill="#0021DB"/>
<path opacity="0.8" d="M23.0703 2.21191L23.2964 2.31037L19.8176 10.1393L19.5952 10.0408L23.0703 2.21191Z" fill="#0021DB"/>
<path opacity="0.8" d="M2.98926 14.9635L3.0002 14.7119L11.5001 15.0656L11.4892 15.3172L2.98926 14.9635Z" fill="#0021DB"/>
<path opacity="0.8" d="M22.144 28.8895L21.9034 28.977L19.1284 20.995L19.3727 20.9111L22.144 28.8895Z" fill="#0021DB"/>
<path opacity="0.8" d="M4.73218 8.95798L4.85616 8.72461L12.2329 12.6044L12.109 12.8378L4.73218 8.95798Z" fill="#0021DB"/>
<path opacity="0.8" d="M15.9449 29.4767L15.6787 29.4475L16.5721 21.2139L16.8383 21.243L15.9449 29.4767Z" fill="#0021DB"/>
<path opacity="0.8" d="M8.81982 4.33082L9.0459 4.16309L13.9504 10.6975L13.728 10.8652L8.81982 4.33082Z" fill="#0021DB"/>
<path opacity="0.8" d="M10.1655 27.3832L9.9248 27.2337L14.1693 20.3164L14.4136 20.4659L10.1655 27.3832Z" fill="#0021DB"/>
<path opacity="0.8" d="M14.4246 1.92748L14.709 1.86914L16.3134 9.71262L16.029 9.77461L14.4246 1.92748Z" fill="#0021DB"/>
<path opacity="0.8" d="M5.88797 23.0733L5.72388 22.8253L12.3896 18.4824L12.5537 18.7304L5.88797 23.0733Z" fill="#0021DB"/>
<path opacity="0.8" d="M20.4409 2.14258L20.74 2.21551L18.8657 9.8402L18.5703 9.76728L20.4409 2.14258Z" fill="#0021DB"/>
<path opacity="0.8" d="M3.88262 17.4207L3.83887 17.1144L11.573 16.0605L11.6131 16.3705L3.88262 17.4207Z" fill="#0021DB"/>
<path opacity="0.8" d="M24.0985 27.1677L23.8214 27.3209L20.0291 20.5604L20.3025 20.4072L24.0985 27.1677Z" fill="#0021DB"/>
<path opacity="0.8" d="M25.7284 4.87402L25.9763 5.07822L21.112 11.0474L20.864 10.8469L25.7284 4.87402Z" fill="#0021DB"/>
<path opacity="0.8" d="M4.48047 11.5251L4.57528 11.2188L11.8682 13.5306L11.7734 13.8405L4.48047 11.5251Z" fill="#0021DB"/>
<path opacity="0.8" d="M18.4173 28.776L18.0891 28.7979L17.5676 21.2133L17.8922 21.1914L18.4173 28.776Z" fill="#0021DB"/>
<path opacity="0.8" d="M7.50342 6.50701L7.7295 6.2627L13.2211 11.3786L12.995 11.623L7.50342 6.50701Z" fill="#0022DB"/>
<path opacity="0.8" d="M12.6632 27.8102L12.3459 27.6862L15.0699 20.7471L15.3834 20.8674L12.6632 27.8102Z" fill="#0022DB"/>
<path opacity="0.8" d="M12.3242 3.30243L12.6451 3.1748L15.3654 10.0155L15.0445 10.1431L12.3242 3.30243Z" fill="#0022DB"/>
<path opacity="0.8" d="M7.92646 24.5174L7.68579 24.2622L13.0169 19.252L13.2576 19.5072L7.92646 24.5174Z" fill="#0022DB"/>
<path opacity="0.8" d="M17.987 2.47461L18.3444 2.49649L17.8813 9.70549L17.5239 9.68361L17.987 2.47461Z" fill="#0023DB"/>
<path opacity="0.8" d="M5.08936 19.5762L4.97632 19.2298L11.8061 17.0273L11.9192 17.3738L5.08936 19.5762Z" fill="#0023DC"/>
<path opacity="0.8" d="M25.652 25.2649L25.3712 25.4983L20.8423 19.9922L21.1231 19.7588L25.652 25.2649Z" fill="#0023DC"/>
<path opacity="0.8" d="M23.3947 4.12988L23.7192 4.30856L20.2843 10.5039L19.9597 10.3252L23.3947 4.12988Z" fill="#0024DC"/>
<path opacity="0.8" d="M4.63745 13.9572L4.6885 13.5889L11.6678 14.5041L11.6204 14.8724L4.63745 13.9572Z" fill="#0024DC"/>
<path opacity="0.8" d="M20.6125 27.7374L20.2478 27.8323L18.5449 21.0462L18.9132 20.9551L20.6125 27.7374Z" fill="#0025DC"/>
<path opacity="0.8" d="M6.61011 8.74641L6.8216 8.42188L12.6231 12.1668L12.4153 12.4913L6.61011 8.74641Z" fill="#0025DC"/>
<path opacity="0.8" d="M15.0626 27.8169L14.6797 27.744L16.0216 21.0127L16.4045 21.0893L15.0626 27.8169Z" fill="#0026DC"/>
<path opacity="0.8" d="M10.5774 4.92074L10.9165 4.71289L14.4864 10.467L14.1509 10.6785L10.5774 4.92074Z" fill="#0027DC"/>
<path opacity="0.8" d="M10.067 25.5453L9.74609 25.3047L13.7608 19.9043L14.0817 20.1413L10.067 25.5453Z" fill="#0027DD"/>
<path opacity="0.8" d="M15.7407 3.17852L16.1455 3.13477L16.893 9.73481L16.4882 9.78222L15.7407 3.17852Z" fill="#0028DD"/>
<path opacity="0.8" d="M6.56265 21.3997L6.36938 21.035L12.1964 17.9355L12.3897 18.2965L6.56265 21.3997Z" fill="#0029DD"/>
<path opacity="0.8" d="M21.0937 3.80566L21.4875 3.94058L19.3762 10.1067L18.9824 9.97179L21.0937 3.80566Z" fill="#0029DD"/>
<path opacity="0.8" d="M5.18059 16.2103L5.16235 15.7873L11.6312 15.4883L11.6494 15.9076L5.18059 16.2103Z" fill="#002ADD"/>
<path opacity="0.8" d="M22.5014 26.4137L22.1149 26.5888L19.4749 20.718L19.8614 20.543L22.5014 26.4137Z" fill="#002BDE"/>
<path opacity="0.8" d="M6.13965 10.989L6.30739 10.5879L12.1672 13.0383L11.9995 13.4394L6.13965 10.989Z" fill="#002CDE"/>
<path opacity="0.8" d="M17.3123 27.4348L16.8748 27.4275L17.0024 21.1191L17.4363 21.1264L17.3123 27.4348Z" fill="#002DDE"/>
<path opacity="0.8" d="M9.2063 6.72603L9.53813 6.43066L13.6987 11.0616L13.3706 11.357L9.2063 6.72603Z" fill="#002EDE"/>
<path opacity="0.8" d="M12.2366 26.1548L11.8391 25.9579L14.5995 20.4189L15.0006 20.6159L12.2366 26.1548Z" fill="#002FDE"/>
<path opacity="0.8" d="M13.7534 4.21037L14.1873 4.0791L15.9304 9.93163L15.4964 10.0629L13.7534 4.21037Z" fill="#0030DF"/>
<path opacity="0.8" d="M8.24367 22.8657L7.96289 22.5047L12.7325 18.7598L13.0132 19.1171L8.24367 22.8657Z" fill="#0031DF"/>
<path opacity="0.8" d="M18.8804 3.88184L19.3362 3.95476L18.4246 9.86928L17.9688 9.8L18.8804 3.88184Z" fill="#0032DF"/>
<path opacity="0.8" d="M6.06304 18.2304L5.96094 17.7783L11.7588 16.4619L11.8646 16.9141L6.06304 18.2304Z" fill="#0033DF"/>
<path opacity="0.8" d="M24.0512 24.8565L23.6646 25.119L20.3318 20.2401L20.7183 19.9775L24.0512 24.8565Z" fill="#0034E0"/>
<path opacity="0.8" d="M23.6026 5.75977L23.9927 6.02231L20.7036 10.883L20.3098 10.6205L23.6026 5.75977Z" fill="#0035E0"/>
<path opacity="0.8" d="M6.07397 13.1699L6.17608 12.7031L11.8682 13.9721L11.7624 14.4388L6.07397 13.1699Z" fill="#0036E0"/>
<path opacity="0.8" d="M19.3581 26.7017L18.8841 26.7747L17.9797 21.0534L18.4538 20.9805L19.3581 26.7017Z" fill="#0037E1"/>
<path opacity="0.8" d="M8.22192 8.64459L8.52093 8.26172L13.028 11.7732L12.7326 12.1561L8.22192 8.64459Z" fill="#0039E1"/>
<path opacity="0.8" d="M14.3769 26.3656L13.9102 26.2271L15.5073 20.7793L15.9777 20.9179L14.3769 26.3656Z" fill="#003AE1"/>
<path opacity="0.8" d="M12.0579 5.50857L12.4991 5.28613L15.0188 10.289L14.5776 10.5115L12.0579 5.50857Z" fill="#003BE1"/>
<path opacity="0.8" d="M10.0668 23.9597L9.69482 23.6279L13.396 19.4746L13.7679 19.8064L10.0668 23.9597Z" fill="#003CE2"/>
<path opacity="0.8" d="M16.8164 4.32735L17.3196 4.31641L17.4509 9.80064L16.9477 9.81523L16.8164 4.32735Z" fill="#003EE2"/>
<path opacity="0.8" d="M7.22987 19.9815L7.03296 19.5148L12.0505 17.3926L12.251 17.8593L7.22987 19.9815Z" fill="#003FE2"/>
<path opacity="0.8" d="M21.5678 5.28223L22.0382 5.49007L19.8539 10.4018L19.3835 10.194L21.5678 5.28223Z" fill="#0040E3"/>
<path opacity="0.8" d="M6.37671 15.2297L6.39494 14.7119L11.7297 14.938L11.7078 15.4558L6.37671 15.2297Z" fill="#0042E3"/>
<path opacity="0.8" d="M21.1557 25.6655L20.6634 25.8369L18.9277 20.8267L19.42 20.6553L21.1557 25.6655Z" fill="#0043E3"/>
<path opacity="0.8" d="M7.62378 10.6135L7.86809 10.1504L12.4918 12.5862L12.2475 13.053L7.62378 10.6135Z" fill="#0045E4"/>
<path opacity="0.8" d="M16.4226 26.1978L15.8975 26.1431L16.4627 20.9834L16.9878 21.0381L16.4226 26.1978Z" fill="#0046E4"/>
<path opacity="0.8" d="M10.6868 7.01789L11.117 6.69336L14.1874 10.792L13.7571 11.1128L10.6868 7.01789Z" fill="#0047E5"/>
<path opacity="0.8" d="M11.9668 24.6772L11.5073 24.3964L14.1692 20.0645L14.6287 20.3452L11.9668 24.6772Z" fill="#0049E5"/>
<path opacity="0.8" d="M14.9495 5.09572L15.4855 4.98633L16.4846 9.89443L15.9522 10.0075L14.9495 5.09572Z" fill="#004AE5"/>
<path opacity="0.8" d="M8.62665 21.4292L8.32764 20.9698L12.4955 18.2568L12.7945 18.7163L8.62665 21.4292Z" fill="#004CE6"/>
<path opacity="0.8" d="M19.5767 5.18066L20.1128 5.31194L18.9386 10.0742L18.4026 9.94291L19.5767 5.18066Z" fill="#004DE6"/>
<path opacity="0.8" d="M7.01115 17.1115L6.93457 16.5609L11.7588 15.9082L11.8354 16.4588L7.01115 17.1115Z" fill="#004FE6"/>
<path opacity="0.8" d="M22.6689 24.3898L22.1803 24.6633L19.8174 20.4444L20.306 20.1709L22.6689 24.3898Z" fill="#0051E7"/>
<path opacity="0.8" d="M23.6755 7.21484L24.113 7.56855L21.0792 11.2879L20.6416 10.9342L23.6755 7.21484Z" fill="#0052E7"/>
<path opacity="0.8" d="M7.39404 12.568L7.56178 12.0283L12.1016 13.4723L11.9339 14.012L7.39404 12.568Z" fill="#0054E8"/>
<path opacity="0.8" d="M18.3189 25.6987L17.7501 25.7352L17.4292 21.0167L17.9944 20.9766L18.3189 25.6987Z" fill="#0055E8"/>
<path opacity="0.8" d="M9.65479 8.66641L10.0486 8.24707L13.4544 11.4268L13.0642 11.8461L9.65479 8.66641Z" fill="#0057E8"/>
<path opacity="0.8" d="M13.8739 25.027L13.3342 24.8155L15.0298 20.5127L15.5659 20.7205L13.8739 25.027Z" fill="#0058E9"/>
<path opacity="0.8" d="M13.3306 6.13604L13.8702 5.9209L15.5513 10.1581L15.0116 10.3732L13.3306 6.13604Z" fill="#005AE9"/>
<path opacity="0.8" d="M10.1799 22.5481L9.77881 22.1251L13.0789 19.0293L13.48 19.4523L10.1799 22.5481Z" fill="#005CEA"/>
<path opacity="0.8" d="M17.688 5.4248L18.2787 5.46127L17.987 9.90992L17.3999 9.87346L17.688 5.4248Z" fill="#005DEA"/>
<path opacity="0.8" d="M7.93011 18.7742L7.74414 18.209L11.9558 16.8525L12.1381 17.4177L7.93011 18.7742Z" fill="#005FEA"/>
<path opacity="0.8" d="M23.8689 22.9273L23.4094 23.3065L20.6272 19.9154L21.0867 19.5361L23.8689 22.9273Z" fill="#0061EB"/>
<path opacity="0.8" d="M21.8849 6.63477L22.4064 6.92283L20.2914 10.7297L19.7664 10.438L21.8849 6.63477Z" fill="#0062EB"/>
<path opacity="0.8" d="M7.51074 14.4418L7.59096 13.8438L11.8719 14.4089L11.7953 15.007L7.51074 14.4418Z" fill="#0064EC"/>
<path opacity="0.8" d="M20.0108 24.8998L19.4238 25.0493L18.3845 20.8888L18.9716 20.7393L20.0108 24.8998Z" fill="#0066EC"/>
<path opacity="0.8" d="M8.96924 10.394L9.30107 9.87988L12.8454 12.1698L12.5172 12.684L8.96924 10.394Z" fill="#0067EC"/>
<path opacity="0.8" d="M15.7262 25.0309L15.1208 24.9106L15.9449 20.8047L16.5466 20.925L15.7262 25.0309Z" fill="#0069ED"/>
<path opacity="0.8" d="M11.9849 7.3897L12.5136 7.06152L14.6832 10.5694L14.1582 10.8939L11.9849 7.3897Z" fill="#006BED"/>
<path opacity="0.8" d="M11.8355 23.3356L11.3359 22.9673L13.7791 19.6855L14.2786 20.0538L11.8355 23.3356Z" fill="#006CEE"/>
<path opacity="0.8" d="M15.9561 5.97846L16.576 5.90918L17.0281 9.90932L16.4046 9.9786L15.9561 5.97846Z" fill="#006EEE"/>
<path opacity="0.8" d="M9.07515 20.1736L8.77979 19.6194L12.3059 17.7451L12.6049 18.303L9.07515 20.1736Z" fill="#0070EE"/>
<path opacity="0.8" d="M20.0983 6.39844L20.7 6.60264L19.4237 10.3184L18.8257 10.1142L20.0983 6.39844Z" fill="#0071EF"/>
<path opacity="0.8" d="M7.9447 16.1813L7.91553 15.5468L11.8063 15.3682L11.8391 16.0063L7.9447 16.1813Z" fill="#0073EF"/>
<path opacity="0.8" d="M21.4658 23.8611L20.8824 24.1236L19.2998 20.5975L19.8832 20.335L21.4658 23.8611Z" fill="#0074F0"/>
<path opacity="0.8" d="M8.6228 12.1341L8.87076 11.5361L12.375 13.0056L12.127 13.6037L8.6228 12.1341Z" fill="#0076F0"/>
<path opacity="0.8" d="M17.4655 24.7179L16.8164 24.7033L16.893 20.9365L17.5421 20.9475L17.4655 24.7179Z" fill="#0078F1"/>
<path opacity="0.8" d="M10.9385 8.79695L11.4271 8.35938L13.903 11.1197L13.4144 11.5573L10.9385 8.79695Z" fill="#0079F1"/>
<path opacity="0.8" d="M13.5275 23.7917L12.9368 23.5L14.5813 20.2109L15.1684 20.5027L13.5275 23.7917Z" fill="#007BF1"/>
<path opacity="0.8" d="M14.4209 6.79508L15.0554 6.60547L16.0837 10.0696L15.4528 10.2592L14.4209 6.79508Z" fill="#007DF2"/>
<path opacity="0.8" d="M10.395 21.2973L9.98657 20.7759L12.8053 18.5625L13.2173 19.0839L10.395 21.2973Z" fill="#007EF2"/>
<path opacity="0.8" d="M18.3808 6.47852L19.0444 6.58062L18.5047 10.0593L17.8447 9.96086L18.3808 6.47852Z" fill="#0080F3"/>
<path opacity="0.8" d="M8.65219 17.7424L8.50269 17.0897L11.9085 16.3203L12.058 16.973L8.65219 17.7424Z" fill="#0081F3"/>
<path opacity="0.8" d="M22.6509 22.6352L22.0966 23.0144L20.1458 20.1556L20.7037 19.7764L22.6509 22.6352Z" fill="#0083F3"/>
<path opacity="0.8" d="M22.0564 7.87109L22.618 8.25032L20.6927 11.0872L20.1311 10.708L22.0564 7.87109Z" fill="#0084F4"/>
<path opacity="0.8" d="M8.59375 13.8287L8.73961 13.165L12.0579 13.9053L11.912 14.5689L8.59375 13.8287Z" fill="#0086F4"/>
<path opacity="0.8" d="M19.0444 24.1231L18.3735 24.2289L17.8484 20.8997L18.523 20.7939L19.0444 24.1231Z" fill="#0087F4"/>
<path opacity="0.8" d="M10.1982 10.3031L10.6212 9.75977L13.2284 11.7945L12.8055 12.3378L10.1982 10.3031Z" fill="#0089F5"/>
<path opacity="0.8" d="M15.19 23.9271L14.53 23.7338L15.4562 20.5869L16.1199 20.7802L15.19 23.9271Z" fill="#008AF5"/>
<path opacity="0.8" d="M13.1228 7.83117L13.7427 7.51758L15.1867 10.391L14.5704 10.7046L13.1228 7.83117Z" fill="#008CF6"/>
<path opacity="0.8" d="M11.8281 22.1218L11.3066 21.6587L13.4325 19.2812L13.954 19.7443L11.8281 22.1218Z" fill="#008DF6"/>
<path opacity="0.8" d="M16.7837 6.85417L17.4875 6.83594L17.5567 9.96458L16.8566 9.98281L16.7837 6.85417Z" fill="#008FF6"/>
<path opacity="0.8" d="M9.58208 19.0877L9.30859 18.4387L12.1674 17.2354L12.4409 17.8808L9.58208 19.0877Z" fill="#0090F7"/>
<path opacity="0.8" d="M20.4703 7.52832L21.1193 7.81639L19.8795 10.595L19.2305 10.3069L20.4703 7.52832Z" fill="#0092F7"/>
<path opacity="0.8" d="M8.85986 15.423L8.88903 14.7119L11.901 14.8432L11.8718 15.5542L8.85986 15.423Z" fill="#0093F7"/>
<path opacity="0.8" d="M20.4265 23.2921L19.7519 23.5254L18.7783 20.7031L19.4529 20.4697L20.4265 23.2921Z" fill="#0094F8"/>
<path opacity="0.8" d="M9.76074 11.8425L10.0962 11.208L12.6852 12.5754L12.3497 13.2099L9.76074 11.8425Z" fill="#0096F8"/>
<path opacity="0.8" d="M16.7801 23.7695L16.0618 23.6893L16.379 20.8086L17.0974 20.8852L16.7801 23.7695Z" fill="#0097F8"/>
<path opacity="0.8" d="M12.0798 9.02351L12.6596 8.58594L14.3625 10.8613L13.7827 11.2989L12.0798 9.02351Z" fill="#0098F9"/>
<path opacity="0.8" d="M13.3159 22.6536L12.696 22.2707L14.1692 19.875L14.7928 20.2542L13.3159 22.6536Z" fill="#0099F9"/>
<path opacity="0.8" d="M15.3469 7.48056L16.0653 7.33105L16.6122 10.0331L15.8939 10.1826L15.3469 7.48056Z" fill="#009BF9"/>
<path opacity="0.8" d="M10.6904 20.1882L10.2856 19.572L12.5756 18.0879L12.9804 18.7041L10.6904 20.1882Z" fill="#009CFA"/>
<path opacity="0.8" d="M18.9203 7.48047L19.6387 7.6555L18.9969 10.2518L18.2786 10.0767L18.9203 7.48047Z" fill="#009DFA"/>
<path opacity="0.8" d="M9.38141 16.8777L9.28296 16.1411L11.9048 15.791L12.0069 16.5276L9.38141 16.8777Z" fill="#009EFA"/>
<path opacity="0.8" d="M21.5823 22.2746L20.9332 22.6392L19.657 20.3529L20.3061 19.9883L21.5823 22.2746Z" fill="#009FFA"/>
<path opacity="0.8" d="M22.1148 8.99414L22.6946 9.46453L21.0537 11.4701L20.4739 10.9997L22.1148 8.99414Z" fill="#00A0FB"/>
<path opacity="0.8" d="M9.61475 13.367L9.84083 12.6523L12.284 13.429L12.0579 14.1437L9.61475 13.367Z" fill="#00A2FB"/>
<path opacity="0.8" d="M18.2424 23.347L17.4912 23.3981L17.3235 20.8675L18.0747 20.8164L18.2424 23.347Z" fill="#00A3FB"/>
<path opacity="0.8" d="M11.3032 10.3218L11.821 9.76758L13.6333 11.4595L13.1192 12.0138L11.3032 10.3218Z" fill="#00A4FB"/>
<path opacity="0.8" d="M14.8036 22.8948L14.0962 22.6176L14.9969 20.335L15.7043 20.6084L14.8036 22.8948Z" fill="#00A5FC"/>
<path opacity="0.8" d="M14.1035 8.31274L14.8146 8.02832L15.697 10.2636L14.9896 10.548L14.1035 8.31274Z" fill="#00A6FC"/>
<path opacity="0.8" d="M11.9157 21.0351L11.3906 20.4808L13.1263 18.8545L13.6514 19.4124L11.9157 21.0351Z" fill="#00A6FC"/>
<path opacity="0.8" d="M17.4583 7.7002L18.2241 7.7476L18.0709 10.0667L17.3052 10.0193L17.4583 7.7002Z" fill="#00A7FC"/>
<path opacity="0.8" d="M10.1215 18.1535L9.88452 17.4206L12.0724 16.7168L12.3094 17.4534L10.1215 18.1535Z" fill="#00A8FD"/>
<path opacity="0.8" d="M22.494 21.1218L21.8996 21.6141L20.4592 19.8565L21.0572 19.3643L22.494 21.1218Z" fill="#00A9FD"/>
<path opacity="0.8" d="M20.7145 8.56738L21.3928 8.94661L20.2988 10.9047L19.6206 10.5292L20.7145 8.56738Z" fill="#00AAFD"/>
<path opacity="0.8" d="M9.73511 14.818L9.83356 14.0449L12.036 14.3403L11.9339 15.1097L9.73511 14.818Z" fill="#00ABFD"/>
<path opacity="0.8" d="M19.544 22.7047L18.7892 22.8943L18.2568 20.7648L19.0153 20.5752L19.544 22.7047Z" fill="#00ABFD"/>
<path opacity="0.8" d="M10.7961 11.6707L11.2228 11.0107L13.0205 12.174L12.5975 12.834L10.7961 11.6707Z" fill="#00ACFD"/>
<path opacity="0.8" d="M16.2403 22.8722L15.4673 22.7191L15.8866 20.6406L16.656 20.7938L16.2403 22.8722Z" fill="#00ADFE"/>
<path opacity="0.8" d="M13.0789 9.30437L13.7498 8.88867L14.8365 10.6463L14.1655 11.0619L13.0789 9.30437Z" fill="#00ADFE"/>
<path opacity="0.8" d="M13.2102 21.6223L12.5757 21.1519L13.7972 19.5146L14.4317 19.985L13.2102 21.6223Z" fill="#00AEFE"/>
<path opacity="0.8" d="M16.1201 8.15171L16.9114 8.06055L17.1338 10.0442L16.3426 10.1317L16.1201 8.15171Z" fill="#00AEFE"/>
<path opacity="0.8" d="M11.0296 19.2259L10.6541 18.5222L12.3934 17.5996L12.769 18.307L11.0296 19.2259Z" fill="#00AFFE"/>
<path opacity="0.8" d="M19.3252 8.40723L20.0873 8.66612L19.4638 10.482L18.7017 10.2232L19.3252 8.40723Z" fill="#00AFFE"/>
<path opacity="0.8" d="M10.0926 16.1632L10.0525 15.3573L11.945 15.2734L11.9851 16.0793L10.0926 16.1632Z" fill="#00B0FE"/>
<path opacity="0.8" d="M20.6598 21.8811L19.9269 22.2129L19.1611 20.5027L19.8977 20.1709L20.6598 21.8811Z" fill="#00B0FF"/>
<path opacity="0.8" d="M10.5447 13.0239L10.8583 12.2764L12.5393 12.9801L12.2293 13.7313L10.5447 13.0239Z" fill="#00B0FF"/>
<path opacity="0.8" d="M17.5859 22.6099L16.7727 22.5953L16.8092 20.7939L17.626 20.8085L17.5859 22.6099Z" fill="#00B1FF"/>
<path opacity="0.8" d="M12.2803 10.409L12.8892 9.8584L14.0597 11.1675L13.4508 11.7144L12.2803 10.409Z" fill="#00B1FF"/>
<path opacity="0.8" d="M14.5266 21.9613L13.79 21.5966L14.5667 20.0469L15.2997 20.4115L14.5266 21.9613Z" fill="#00B1FF"/>
<path opacity="0.8" d="M14.9387 8.79757L15.7264 8.56055L16.2077 10.1796L15.4164 10.4166L14.9387 8.79757Z" fill="#00B2FF"/>
<path opacity="0.8" d="M12.0615 20.0868L11.551 19.4377L12.8601 18.4131L13.3706 19.0622L12.0615 20.0868Z" fill="#00B2FF"/>
<path opacity="0.8" d="M17.9979 8.4834L18.8148 8.60738L18.5668 10.2082L17.7463 10.0842L17.9979 8.4834Z" fill="#00B2FF"/>
<path opacity="0.8" d="M10.6467 17.3666L10.4607 16.5571L12.0214 16.207L12.2037 17.0165L10.6467 17.3666Z" fill="#00B2FF"/>
<path opacity="0.8" d="M21.575 20.9258L20.8895 21.3962L19.9998 20.0944L20.6889 19.624L21.575 20.9258Z" fill="#00B2FF"/>
<path opacity="0.8" d="M20.8676 9.49414L21.5604 9.96088L20.6853 11.2444L19.9961 10.7777L20.8676 9.49414Z" fill="#00B2FF"/>
<path opacity="0.8" d="M10.53 14.3363L10.7087 13.5195L12.2074 13.855L12.0251 14.6718L10.53 14.3363Z" fill="#00B2FF"/>
<path opacity="0.8" d="M18.8075 22.1428L17.9797 22.2777L17.7463 20.7826L18.5741 20.6514L18.8075 22.1428Z" fill="#00B2FF"/>
<path opacity="0.8" d="M11.7078 11.5728L12.2219 10.9092L13.3815 11.8135L12.8673 12.4771L11.7078 11.5728Z" fill="#00B2FF"/>
<path opacity="0.8" d="M15.8137 22.0667L15.0042 21.8297L15.4162 20.4404L16.2257 20.6738L15.8137 22.0667Z" fill="#00B2FF"/>
<path opacity="0.8" d="M13.9321 9.59212L14.6869 9.21289L15.3178 10.4709L14.563 10.8538L13.9321 9.59212Z" fill="#00B2FF"/>
<path opacity="0.8" d="M13.1665 20.7316L12.532 20.1664L13.4582 19.1309L14.0927 19.6924L13.1665 20.7316Z" fill="#00B2FF"/>
<path opacity="0.8" d="M16.7583 8.76114L17.6079 8.73926L17.6407 10.0921L16.7875 10.114L16.7583 8.76114Z" fill="#00B2FF"/>
<path opacity="0.8" d="M11.354 18.4131L11.0222 17.6291L12.2511 17.1113L12.5865 17.8953L11.354 18.4131Z" fill="#00B2FF"/>
<path opacity="0.8" d="M19.6462 9.20898L20.4265 9.5554L19.8978 10.7405L19.1174 10.3941L19.6462 9.20898Z" fill="#00B2FF"/>
<path opacity="0.8" d="M10.7161 15.5727L10.7489 14.7158L12.0288 14.7742L11.9923 15.6311L10.7161 15.5727Z" fill="#00B2FF"/>
<path opacity="0.8" d="M19.8868 21.5234L19.0773 21.8042L18.6653 20.6118L19.4748 20.3311L19.8868 21.5234Z" fill="#00B2FF"/>
<path opacity="0.8" d="M11.3394 12.754L11.7405 11.9883L12.8271 12.5644L12.426 13.3265L11.3394 12.754Z" fill="#00B2FF"/>
<path opacity="0.8" d="M17.0425 21.9751L16.1855 21.884L16.3168 20.6807L17.1774 20.7718L17.0425 21.9751Z" fill="#00B2FF"/>
<path opacity="0.8" d="M13.0972 10.4892L13.79 9.96777L14.4938 10.9122L13.8009 11.4336L13.0972 10.4892Z" fill="#00B2FF"/>
<path opacity="0.8" d="M14.2969 21.1803L13.5566 20.7282L14.1692 19.7363L14.9095 20.1885L14.2969 21.1803Z" fill="#00B2FF"/>
<path opacity="0.8" d="M15.6313 9.19847L16.481 9.02344L16.7071 10.1356L15.8538 10.3106L15.6313 9.19847Z" fill="#00B2FF"/>
<path opacity="0.8" d="M12.171 19.3021L11.6934 18.5728L12.6341 17.9639L13.1082 18.6932L12.171 19.3021Z" fill="#00B2FF"/>
<path opacity="0.8" d="M18.4537 9.11133L19.2997 9.31917L19.0371 10.3766L18.1912 10.1688L18.4537 9.11133Z" fill="#00B2FF"/>
<path opacity="0.8" d="M11.0552 16.7134L10.9385 15.8492L12.0032 15.707L12.1199 16.5712L11.0552 16.7134Z" fill="#00B2FF"/>
<path opacity="0.8" d="M20.8239 20.7944L20.0617 21.221L19.5439 20.2948L20.3097 19.8682L20.8239 20.7944Z" fill="#00B2FF"/>
<path opacity="0.8" d="M21.0272 10.2239L20.3628 11.0371L21.0433 11.5931L21.7078 10.7799L21.0272 10.2239Z" fill="#00B2FF"/>
<path opacity="0.8" d="M11.4113 13.0799L11.1438 13.917L12.1337 14.2333L12.4012 13.3962L11.4113 13.0799Z" fill="#00B2FF"/>
<path opacity="0.8" d="M18.1259 20.7149L17.249 20.7734L17.3178 21.8031L18.1946 21.7445L18.1259 20.7149Z" fill="#00B2FF"/>
<path opacity="0.8" d="M13.0076 10.7833L12.4048 11.4277L13.1477 12.1227L13.7506 11.4783L13.0076 10.7833Z" fill="#00B2FF"/>
<path opacity="0.8" d="M14.971 20.2212L14.5986 21.1641L15.4194 21.4882L15.7917 20.5453L14.971 20.2212Z" fill="#00B2FF"/>
<path fill-rule="evenodd" clip-rule="evenodd" d="M24 16C28.4176 16 32 19.5824 32 24C32 28.4176 28.4176 32 24 32C19.5824 32 16 28.4176 16 24C16 19.5824 19.5824 16 24 16Z" fill="#1E1E1E"/>
<path d="M24.12 27.3445C21.5616 27.3445 19.488 26.6053 19.488 25.6149C19.488 25.0981 20.0528 24.6325 20.9568 24.3045C21.6624 24.7573 22.8464 24.9893 24.1888 24.9893C25.4992 24.9893 26.6576 24.7061 27.3696 24.2725C28.2224 24.5973 28.752 25.0501 28.752 25.5493C28.752 26.5413 26.6784 27.3445 24.12 27.3445Z" fill="white"/>
<path d="M24.1473 24.7663C22.2081 24.7663 20.6353 24.1583 20.6353 23.4079C20.6353 22.9919 21.1201 22.6191 21.8801 22.3711C22.4225 22.6543 23.2353 22.8351 24.1473 22.8351C25.0593 22.8351 25.8721 22.6543 26.4145 22.3711C27.1761 22.6207 27.6593 22.9919 27.6593 23.4079C27.6609 24.1583 26.0881 24.7663 24.1473 24.7663V24.7663Z" fill="white"/>
<path d="M24.1344 22.6091C22.6352 22.6091 21.4192 22.1067 21.4192 21.4891C21.4192 20.8715 22.6352 20.3691 24.1344 20.3691C25.6336 20.3691 26.8496 20.8715 26.8496 21.4891C26.8496 22.1067 25.6336 22.6091 24.1344 22.6091V22.6091Z" fill="white"/>
</svg>
