<svg xmlns="http://www.w3.org/2000/svg" viewBox="0 0 12.24 12.24"><defs><style>.cls-1{fill:none;stroke:#e78d2b;stroke-miterlimit:10;}.cls-2{fill:#fff;}</style></defs><title>Bond Prize深色选中</title><g id="图层_2" data-name="图层 2"><g id="图层_1-2" data-name="图层 1"><circle class="cls-1" cx="6.12" cy="6.12" r="5.62"/><path class="cls-2" d="M4.51,7.93a2.07,2.07,0,0,0,1.7,1A1.22,1.22,0,0,0,7.53,7.78c0-1.66-3.3-1.31-3.3-3.45a1.73,1.73,0,0,1,1.7-1.64V1.78h.55v.89C7.11,2.73,8,3,8,3.81v.48H7.41V4c0-.4-.51-.7-1.13-.7-.86,0-1.37.48-1.37,1,0,1.6,3.31,1.19,3.31,3.43A1.85,1.85,0,0,1,6.48,9.57v.88H5.93V9.57A2.59,2.59,0,0,1,4,8.33Z"/></g></g></svg>