<svg xmlns="http://www.w3.org/2000/svg" viewBox="0 0 167.43 201.65"><defs><style>.cls-1{fill:none;stroke:#9e9e9e;stroke-miterlimit:10;}</style></defs><title>深色图标1</title><g id="图层_2" data-name="图层 2"><g id="图层_1-2" data-name="图层 1"><path class="cls-1" d="M71.55,144.08S75.93,152,84.47,152c5.45,0,9.15-3.32,9.15-7.94,0-11.26-25.77-9.29-25.77-26.52,0-7,5.67-12.48,13.9-13.61V96.84h5.52v7c5.37.61,12.47,3.25,12.47,9.68v4.38H92.79v-2.49c0-2.8-3.63-4.84-7.87-4.84-5.74,0-9.36,3-9.36,6.88,0,11.19,25.69,8.39,25.69,26.38,0,7.25-5.36,13.75-14,14.81v7H81.75v-6.95a21.38,21.38,0,0,1-15.57-10.21Z"/><path class="cls-2" d="M107.14,61.51c7.74-3.26,13.85-7.74,18.33-13.85a41.66,41.66,0,0,0,8.15-29.74C133.21.81,90,0,81.47,0S31,.81,29.33,16.7a43.62,43.62,0,0,0,9,30.15c4.89,6.11,11.82,11,20,14.66C30.14,74.14,0,104.69,0,136.47,0,176,32.59,201.65,83.1,201.65c52.14,0,84.33-24.45,84.33-63.55.4-31.78-31.78-63.55-60.29-76.59Zm-59.07-22a33.51,33.51,0,0,1-6.93-20.77c3.26-2.45,17.11-6.52,40.33-6.52,22.82,0,37.07,4.07,39.93,6.52v.81S123,31,115.69,40.33c-6.52,8.55-18.33,13.44-35,14.66-15.07-2-26.07-7.33-32.59-15.48ZM83.51,189.43c-44,0-70.88-20.37-70.88-53,0-34.22,45.62-68.85,70.88-68.85s72.1,37.48,72.1,70.48c0,32.18-26.88,51.33-72.1,51.33Z"/></g></g></svg>