<svg xmlns="http://www.w3.org/2000/svg" viewBox="0 0 21.54 14.72"><defs><style>.cls-1{fill:none;stroke:#9e9e9e;stroke-miterlimit:10;}</style></defs><title>Bond未点击</title><g id="图层_2" data-name="图层 2"><g id="图层_1-2" data-name="图层 1"><path class="cls-1" d="M9.38.5H1.88A1.38,1.38,0,0,0,.5,1.88v.69H8V1.88a1.39,1.39,0,0,1,2.77,0V12H3.27A1.38,1.38,0,0,1,1.88,10.6v-8"/><path class="cls-1" d="M19.65,12V4.12a1.38,1.38,0,0,0-1.38-1.38h-7.5v10.1a1.39,1.39,0,0,0,2.77,0V12H21v.86a1.38,1.38,0,0,1-1.39,1.38h-7.5"/><line class="cls-1" x1="4.1" y1="4.94" x2="8.62" y2="4.94"/><line class="cls-1" x1="4.1" y1="9.29" x2="8.62" y2="9.29"/><line class="cls-1" x1="4.1" y1="7.11" x2="8.62" y2="7.11"/><line class="cls-1" x1="12.97" y1="5.17" x2="17.48" y2="5.17"/><line class="cls-1" x1="12.97" y1="9.52" x2="17.48" y2="9.52"/><line class="cls-1" x1="12.97" y1="7.35" x2="17.48" y2="7.35"/></g></g></svg>