<svg xmlns="http://www.w3.org/2000/svg" viewBox="0 0 21.99 13.36"><defs><style>.cls-1{fill:none;stroke:#b78b49;stroke-miterlimit:10;}</style></defs><title>Stake点击</title><g id="图层_2" data-name="图层 2"><g id="图层_1-2" data-name="图层 1"><ellipse class="cls-1" cx="16.25" cy="2.99" rx="5.25" ry="2.49"/><path class="cls-1" d="M11,3v7.38c0,1.37,2.35,2.49,5.25,2.49s5.24-1.12,5.24-2.49V3"/><path class="cls-1" d="M11,5.47C11,6.85,13.35,8,16.25,8s5.24-1.11,5.24-2.49"/><path class="cls-1" d="M11,8c0,1.37,2.35,2.49,5.25,2.49S21.49,9.33,21.49,8"/><ellipse class="cls-1" cx="5.75" cy="5.51" rx="5.25" ry="2.49"/><path class="cls-1" d="M.5,5.51v4.86c0,1.37,2.35,2.49,5.25,2.49S11,11.74,11,10.37V5.51"/><path class="cls-1" d="M.5,8c0,1.38,2.35,2.49,5.25,2.49S11,9.37,11,8"/></g></g></svg>