<svg xmlns="http://www.w3.org/2000/svg" viewBox="0 0 216.43 70.46"><defs><style>.cls-1{fill:#0021db;}.cls-1,.cls-10,.cls-100,.cls-101,.cls-102,.cls-103,.cls-104,.cls-105,.cls-106,.cls-107,.cls-108,.cls-109,.cls-11,.cls-110,.cls-111,.cls-112,.cls-113,.cls-114,.cls-12,.cls-13,.cls-14,.cls-15,.cls-16,.cls-17,.cls-18,.cls-19,.cls-2,.cls-20,.cls-21,.cls-22,.cls-23,.cls-24,.cls-25,.cls-26,.cls-27,.cls-28,.cls-29,.cls-3,.cls-30,.cls-31,.cls-32,.cls-33,.cls-34,.cls-35,.cls-36,.cls-37,.cls-38,.cls-39,.cls-4,.cls-40,.cls-41,.cls-42,.cls-43,.cls-44,.cls-45,.cls-46,.cls-47,.cls-48,.cls-49,.cls-5,.cls-50,.cls-51,.cls-52,.cls-53,.cls-54,.cls-55,.cls-56,.cls-57,.cls-58,.cls-59,.cls-6,.cls-60,.cls-61,.cls-62,.cls-63,.cls-64,.cls-65,.cls-66,.cls-67,.cls-68,.cls-69,.cls-7,.cls-70,.cls-71,.cls-72,.cls-73,.cls-74,.cls-75,.cls-76,.cls-77,.cls-78,.cls-79,.cls-8,.cls-80,.cls-81,.cls-82,.cls-83,.cls-84,.cls-85,.cls-86,.cls-87,.cls-88,.cls-89,.cls-9,.cls-90,.cls-91,.cls-92,.cls-93,.cls-94,.cls-95,.cls-96,.cls-97,.cls-98,.cls-99{opacity:0.8;}.cls-2{fill:#0022db;}.cls-3{fill:#0023db;}.cls-4{fill:#0023dc;}.cls-5{fill:#0024dc;}.cls-6{fill:#0025dc;}.cls-7{fill:#0026dc;}.cls-8{fill:#0027dc;}.cls-9{fill:#0027dd;}.cls-10{fill:#0028dd;}.cls-11{fill:#0029dd;}.cls-12{fill:#002add;}.cls-13{fill:#002bde;}.cls-14{fill:#002cde;}.cls-15{fill:#002dde;}.cls-16{fill:#002ede;}.cls-17{fill:#002fde;}.cls-18{fill:#0030df;}.cls-19{fill:#0031df;}.cls-20{fill:#0032df;}.cls-21{fill:#0033df;}.cls-22{fill:#0034e0;}.cls-23{fill:#0035e0;}.cls-24{fill:#0036e0;}.cls-25{fill:#0037e1;}.cls-26{fill:#0039e1;}.cls-27{fill:#003ae1;}.cls-28{fill:#003be1;}.cls-29{fill:#003ce2;}.cls-30{fill:#003ee2;}.cls-31{fill:#003fe2;}.cls-32{fill:#0040e3;}.cls-33{fill:#0042e3;}.cls-34{fill:#0043e3;}.cls-35{fill:#0045e4;}.cls-36{fill:#0046e4;}.cls-37{fill:#0047e5;}.cls-38{fill:#0049e5;}.cls-39{fill:#004ae5;}.cls-40{fill:#004ce6;}.cls-41{fill:#004de6;}.cls-42{fill:#004fe6;}.cls-43{fill:#0051e7;}.cls-44{fill:#0052e7;}.cls-45{fill:#0054e8;}.cls-46{fill:#0055e8;}.cls-47{fill:#0057e8;}.cls-48{fill:#0058e9;}.cls-49{fill:#005ae9;}.cls-50{fill:#005cea;}.cls-116,.cls-51{fill:#005dea;}.cls-52{fill:#005fea;}.cls-53{fill:#0061eb;}.cls-54{fill:#0062eb;}.cls-55{fill:#0064ec;}.cls-56{fill:#0066ec;}.cls-57{fill:#0067ec;}.cls-58{fill:#0069ed;}.cls-59{fill:#006bed;}.cls-60{fill:#006cee;}.cls-61{fill:#006eee;}.cls-62{fill:#0070ee;}.cls-63{fill:#0071ef;}.cls-64{fill:#0073ef;}.cls-65{fill:#0074f0;}.cls-66{fill:#0076f0;}.cls-67{fill:#0078f1;}.cls-68{fill:#0079f1;}.cls-69{fill:#007bf1;}.cls-70{fill:#007df2;}.cls-71{fill:#007ef2;}.cls-72{fill:#0080f3;}.cls-73{fill:#0081f3;}.cls-74{fill:#0083f3;}.cls-75{fill:#0084f4;}.cls-76{fill:#0086f4;}.cls-77{fill:#0087f4;}.cls-78{fill:#0089f5;}.cls-79{fill:#008af5;}.cls-80{fill:#008cf6;}.cls-81{fill:#008df6;}.cls-82{fill:#008ff6;}.cls-83{fill:#0090f7;}.cls-84{fill:#0092f7;}.cls-85{fill:#0093f7;}.cls-86{fill:#0094f8;}.cls-87{fill:#0096f8;}.cls-88{fill:#0097f8;}.cls-89{fill:#0098f9;}.cls-90{fill:#0099f9;}.cls-91{fill:#009bf9;}.cls-92{fill:#009cfa;}.cls-93{fill:#009dfa;}.cls-94{fill:#009efa;}.cls-95{fill:#009ffa;}.cls-96{fill:#00a0fb;}.cls-97{fill:#00a2fb;}.cls-98{fill:#00a3fb;}.cls-99{fill:#00a4fb;}.cls-100{fill:#00a5fc;}.cls-101{fill:#00a6fc;}.cls-102{fill:#00a7fc;}.cls-103{fill:#00a8fd;}.cls-104{fill:#00a9fd;}.cls-105{fill:#00aafd;}.cls-106{fill:#00abfd;}.cls-107{fill:#00acfd;}.cls-108{fill:#00adfe;}.cls-109{fill:#00aefe;}.cls-110{fill:#00affe;}.cls-111{fill:#00b0fe;}.cls-112{fill:#00b0ff;}.cls-113{fill:#00b1ff;}.cls-114{fill:#00b2ff;}.cls-115,.cls-121{fill:#fff;}.cls-116{font-size:8.03px;font-family:MuseoSans-100, MuseoSans 100;}.cls-117{letter-spacing:-0.01em;}.cls-118,.cls-119,.cls-121{font-family:MuseoSans-500, Museo Sans;}.cls-118{letter-spacing:0em;}.cls-119{letter-spacing:0em;}.cls-120,.cls-122{fill:#f19149;}.cls-121,.cls-122{font-size:8.08px;}.cls-122{font-family:MuseoSans-300, MuseoSans-300;letter-spacing:-0.02em;}</style></defs><title>资源 1</title><g id="图层_2" data-name="图层 2"><g id="默认"><rect class="cls-1" x="10.9" y="12.47" width="0.13" height="23.72" transform="translate(-15.71 25.11) rotate(-67.4)"/><rect class="cls-1" x="10.9" y="12.47" width="0.13" height="23.72" transform="translate(-15.71 25.11) rotate(-67.4)"/><rect class="cls-1" x="22" y="58.74" width="23.29" height="0.17" transform="translate(-25.79 91.37) rotate(-88.95)"/><rect class="cls-1" x="17.63" y="4.48" width="0.22" height="22.65" transform="translate(-6.02 15.95) rotate(-42.04)"/><rect class="cls-1" x="12.09" y="55.64" width="22.39" height="0.25" transform="translate(-37.02 51.82) rotate(-63.6)"/><polygon class="cls-1" points="23.95 0.49 24.23 0.4 30.5 21.41 30.23 21.49 23.95 0.49"/><polygon class="cls-1" points="6.87 55.62 6.68 55.38 23.74 41.96 23.93 42.2 6.87 55.62"/><rect class="cls-1" x="27.05" y="10.39" width="21.31" height="0.34" transform="translate(21.59 46.25) rotate(-81.34)"/><polygon class="cls-1" points="0.84 41.75 0.77 41.41 21.36 36.72 21.44 37.06 0.84 41.75"/><polygon class="cls-1" points="53.45 61.93 53.15 62.13 41.32 44.85 41.62 44.64 53.45 61.93"/><polygon class="cls-1" points="52.89 5.9 53.2 6.11 41.56 23.32 41.25 23.11 52.89 5.9"/><polygon class="cls-1" points="1.26 26.9 1.35 26.51 21.47 30.98 21.38 31.37 1.26 26.9"/><rect class="cls-1" x="37.56" y="46.7" width="0.41" height="20.44" transform="translate(-8.52 6.68) rotate(-9.09)"/><polygon class="cls-1" points="7.86 13.84 8.12 13.5 24.01 25.86 23.75 26.2 7.86 13.84"/><polygon class="cls-1" points="25.07 65.66 24.64 65.54 30.26 46.37 30.69 46.49 25.07 65.66"/><polygon class="cls-1" points="19.21 4.97 19.63 4.76 28.5 22.34 28.08 22.55 19.21 4.97"/><polygon class="cls-1" points="12.71 58.4 12.35 58.08 25.34 43.49 25.7 43.81 12.71 58.4"/><polygon class="cls-1" points="33.07 1.84 33.57 1.82 34.05 21.08 33.54 21.1 33.07 1.84"/><polygon class="cls-1" points="4.73 46.73 4.53 46.25 22.14 38.79 22.34 39.26 4.73 46.73"/><polygon class="cls-1" points="46.75 4.87 47.24 5.09 39.59 22.33 39.09 22.11 46.75 4.87"/><polygon class="cls-1" points="2.53 32.95 2.55 32.4 21.27 33.18 21.25 33.73 2.53 32.95"/><polygon class="cls-1" points="44.71 63.62 44.18 63.81 38.07 46.23 38.6 46.05 44.71 63.62"/><polygon class="cls-1" points="6.37 19.73 6.64 19.21 22.89 27.76 22.61 28.27 6.37 19.73"/><polygon class="cls-1" points="31.06 64.91 30.47 64.84 32.44 46.72 33.03 46.78 31.06 64.91"/><polygon class="cls-1" points="15.37 9.54 15.86 9.17 26.67 23.56 26.18 23.93 15.37 9.54"/><polygon class="cls-1" points="18.33 60.3 17.8 59.98 27.15 44.74 27.68 45.07 18.33 60.3"/><polygon class="cls-1" points="27.71 4.25 28.34 4.12 31.87 21.39 31.24 21.52 27.71 4.25"/><polygon class="cls-1" points="8.91 50.81 8.55 50.27 23.23 40.7 23.59 41.25 8.91 50.81"/><polygon class="cls-1" points="40.96 4.72 41.62 4.88 37.49 21.67 36.84 21.51 40.96 4.72"/><polygon class="cls-1" points="4.5 38.37 4.4 37.69 21.43 35.37 21.52 36.05 4.5 38.37"/><polygon class="cls-1" points="49.01 59.83 48.41 60.17 40.05 45.28 40.66 44.94 49.01 59.83"/><polygon class="cls-1" points="52.6 10.74 53.15 11.18 42.44 24.33 41.89 23.89 52.6 10.74"/><polygon class="cls-1" points="5.81 25.38 6.02 24.7 22.09 29.8 21.87 30.48 5.81 25.38"/><polygon class="cls-1" points="36.5 63.37 35.78 63.42 34.63 46.72 35.35 46.66 36.5 63.37"/><polygon class="cls-2" points="12.47 14.33 12.97 13.79 25.07 25.06 24.56 25.6 12.47 14.33"/><polygon class="cls-2" points="23.83 61.24 23.14 60.97 29.13 45.69 29.83 45.96 23.83 61.24"/><polygon class="cls-2" points="23.08 7.28 23.79 6.99 29.78 22.06 29.07 22.34 23.08 7.28"/><polygon class="cls-2" points="13.4 53.99 12.88 53.43 24.61 42.4 25.14 42.96 13.4 53.99"/><polygon class="cls-3" points="35.55 5.45 36.34 5.5 35.32 21.38 34.53 21.32 35.55 5.45"/><polygon class="cls-4" points="7.15 43.11 6.91 42.35 21.94 37.5 22.19 38.26 7.15 43.11"/><polygon class="cls-4" points="52.44 55.64 51.81 56.15 41.84 44.02 42.47 43.51 52.44 55.64"/><polygon class="cls-5" points="47.47 9.1 48.18 9.49 40.61 23.13 39.9 22.74 47.47 9.1"/><polygon class="cls-5" points="6.16 30.74 6.27 29.92 21.64 31.94 21.53 32.76 6.16 30.74"/><polygon class="cls-6" points="41.34 61.09 40.53 61.29 36.78 46.35 37.59 46.14 41.34 61.09"/><polygon class="cls-6" points="10.51 19.26 10.96 18.55 23.74 26.79 23.28 27.51 10.51 19.26"/><polygon class="cls-7" points="29.11 61.26 28.27 61.09 31.23 46.28 32.07 46.44 29.11 61.26"/><polygon class="cls-8" points="19.24 10.84 19.98 10.38 27.85 23.06 27.11 23.52 19.24 10.84"/><polygon class="cls-9" points="18.11 56.25 17.41 55.73 26.25 43.83 26.96 44.36 18.11 56.25"/><polygon class="cls-10" points="30.61 7.01 31.5 6.9 33.15 21.44 32.26 21.55 30.61 7.01"/><polygon class="cls-11" points="10.4 47.12 9.97 46.33 22.8 39.5 23.23 40.3 10.4 47.12"/><polygon class="cls-11" points="42.39 8.38 43.27 8.68 38.62 22.26 37.75 21.96 42.39 8.38"/><polygon class="cls-12" points="7.36 35.7 7.31 34.77 21.56 34.11 21.6 35.04 7.36 35.7"/><polygon class="cls-13" points="45.5 58.16 44.64 58.55 38.83 45.63 39.69 45.24 45.5 58.16"/><polygon class="cls-14" points="9.47 24.2 9.84 23.32 22.74 28.72 22.37 29.6 9.47 24.2"/><polygon class="cls-15" points="34.07 60.42 33.11 60.4 33.39 46.51 34.34 46.52 34.07 60.42"/><polygon class="cls-16" points="16.22 14.81 16.95 14.16 26.11 24.36 25.39 25.01 16.22 14.81"/><polygon class="cls-17" points="22.89 57.6 22.02 57.16 28.1 44.97 28.98 45.4 22.89 57.6"/><polygon class="cls-18" points="26.23 9.27 27.18 8.99 31.03 21.88 30.07 22.16 26.23 9.27"/><polygon class="cls-19" points="14.1 50.35 13.48 49.56 23.98 41.31 24.61 42.1 14.1 50.35"/><polygon class="cls-20" points="37.52 8.55 38.53 8.71 36.52 21.74 35.51 21.59 37.52 8.55"/><polygon class="cls-21" points="9.3 40.15 9.07 39.15 21.84 36.25 22.07 37.25 9.3 40.15"/><polygon class="cls-22" points="48.91 54.73 48.06 55.32 40.72 44.58 41.57 43.99 48.91 54.73"/><polygon class="cls-23" points="47.92 12.69 48.78 13.27 41.53 23.97 40.67 23.39 47.92 12.69"/><polygon class="cls-24" points="9.32 29 9.55 27.98 22.08 30.77 21.85 31.8 9.32 29"/><polygon class="cls-25" points="38.57 58.8 37.53 58.97 35.54 46.37 36.58 46.2 38.57 58.8"/><polygon class="cls-26" points="14.05 19.04 14.71 18.2 24.64 25.93 23.98 26.77 14.05 19.04"/><polygon class="cls-27" points="27.61 58.06 26.57 57.76 30.1 45.77 31.13 46.07 27.61 58.06"/><polygon class="cls-28" points="22.5 12.14 23.47 11.64 29.02 22.66 28.05 23.15 22.5 12.14"/><polygon class="cls-29" points="18.12 52.76 17.3 52.03 25.45 42.89 26.27 43.62 18.12 52.76"/><polygon class="cls-30" points="32.98 9.53 34.09 9.51 34.38 21.59 33.27 21.61 32.98 9.53"/><polygon class="cls-31" points="11.87 44.01 11.43 42.98 22.49 38.3 22.92 39.33 11.87 44.01"/><polygon class="cls-32" points="43.44 11.64 44.48 12.1 39.67 22.91 38.63 22.45 43.44 11.64"/><polygon class="cls-33" points="9.99 33.54 10.03 32.4 21.78 32.9 21.73 34.04 9.99 33.54"/><polygon class="cls-34" points="42.53 56.52 41.45 56.9 37.63 45.87 38.71 45.49 42.53 56.52"/><polygon class="cls-35" points="12.73 23.38 13.27 22.35 23.45 27.72 22.92 28.75 12.73 23.38"/><polygon class="cls-36" points="32.11 57.7 30.95 57.57 32.2 46.21 33.35 46.33 32.11 57.7"/><polygon class="cls-37" points="19.48 15.46 20.42 14.75 27.19 23.77 26.24 24.47 19.48 15.46"/><polygon class="cls-38" points="22.3 54.34 21.29 53.72 27.15 44.19 28.16 44.81 22.3 54.34"/><polygon class="cls-39" points="28.87 11.22 30.05 10.98 32.25 21.8 31.07 22.04 28.87 11.22"/><polygon class="cls-40" points="14.94 47.19 14.28 46.18 23.46 40.21 24.12 41.22 14.94 47.19"/><polygon class="cls-41" points="39.06 11.41 40.24 11.7 37.65 22.19 36.47 21.9 39.06 11.41"/><polygon class="cls-42" points="11.38 37.68 11.22 36.47 21.84 35.03 22.01 36.25 11.38 37.68"/><polygon class="cls-43" points="45.86 53.71 44.79 54.31 39.59 45.02 40.66 44.42 45.86 53.71"/><polygon class="cls-44" points="48.08 15.89 49.05 16.67 42.37 24.86 41.4 24.08 48.08 15.89"/><polygon class="cls-45" points="12.23 27.68 12.6 26.49 22.6 29.67 22.22 30.86 12.23 27.68"/><polygon class="cls-46" points="36.28 56.59 35.03 56.68 34.33 46.29 35.58 46.2 36.28 56.59"/><polygon class="cls-47" points="17.21 19.09 18.07 18.16 25.58 25.16 24.72 26.09 17.21 19.09"/><polygon class="cls-48" points="26.5 55.12 25.31 54.65 29.04 45.17 30.22 45.64 26.5 55.12"/><polygon class="cls-49" points="25.3 13.51 26.49 13.04 30.2 22.37 29 22.84 25.3 13.51"/><polygon class="cls-50" points="18.37 49.66 17.48 48.72 24.75 41.9 25.63 42.84 18.37 49.66"/><polygon class="cls-51" points="34.9 11.95 36.2 12.03 35.56 21.82 34.26 21.74 34.9 11.95"/><polygon class="cls-52" points="13.41 41.34 13 40.1 22.27 37.12 22.68 38.36 13.41 41.34"/><polygon class="cls-53" points="48.51 50.49 47.5 51.33 41.37 43.86 42.38 43.02 48.51 50.49"/><polygon class="cls-54" points="44.14 14.61 45.29 15.25 40.63 23.63 39.48 22.99 44.14 14.61"/><polygon class="cls-55" points="12.49 31.81 12.66 30.49 22.09 31.74 21.92 33.05 12.49 31.81"/><polygon class="cls-56" points="40.01 54.84 38.72 55.16 36.43 46 37.72 45.67 40.01 54.84"/><polygon class="cls-57" points="15.7 22.89 16.43 21.76 24.23 26.8 23.51 27.94 15.7 22.89"/><polygon class="cls-58" points="30.57 55.12 29.25 54.86 31.06 45.82 32.38 46.08 30.57 55.12"/><polygon class="cls-59" points="22.34 16.27 23.5 15.55 28.28 23.27 27.12 24 22.34 16.27"/><polygon class="cls-60" points="22.01 51.39 20.91 50.58 26.29 43.35 27.39 44.17 22.01 51.39"/><polygon class="cls-61" points="31.08 13.17 32.45 13.01 33.44 21.82 32.07 21.98 31.08 13.17"/><polygon class="cls-62" points="15.93 44.43 15.28 43.21 23.05 39.08 23.7 40.31 15.93 44.43"/><polygon class="cls-63" points="40.21 14.09 41.53 14.54 38.72 22.72 37.4 22.27 40.21 14.09"/><polygon class="cls-64" points="13.44 35.64 13.38 34.24 21.95 33.84 22.02 35.25 13.44 35.64"/><polygon class="cls-65" points="43.21 52.55 41.93 53.13 38.44 45.36 39.73 44.78 43.21 52.55"/><polygon class="cls-66" points="14.93 26.72 15.48 25.41 23.2 28.65 22.65 29.96 14.93 26.72"/><polygon class="cls-67" points="34.41 54.43 32.98 54.41 33.15 46.1 34.58 46.13 34.41 54.43"/><polygon class="cls-68" points="20.04 19.38 21.11 18.41 26.56 24.49 25.49 25.45 20.04 19.38"/><polygon class="cls-69" points="25.73 52.39 24.44 51.75 28.06 44.51 29.35 45.15 25.73 52.39"/><polygon class="cls-70" points="27.7 14.97 29.1 14.55 31.37 22.18 29.97 22.6 27.7 14.97"/><polygon class="cls-71" points="18.84 46.9 17.93 45.75 24.14 40.88 25.05 42.03 18.84 46.9"/><polygon class="cls-72" points="36.43 14.27 37.88 14.49 36.7 22.16 35.24 21.93 36.43 14.27"/><polygon class="cls-73" points="15 39.08 14.67 37.63 22.17 35.94 22.5 37.38 15 39.08"/><polygon class="cls-74" points="45.83 49.85 44.6 50.69 40.31 44.39 41.53 43.55 45.83 49.85"/><polygon class="cls-75" points="44.52 17.34 45.75 18.17 41.51 24.42 40.28 23.58 44.52 17.34"/><polygon class="cls-76" points="14.87 30.45 15.2 28.99 22.5 30.63 22.18 32.09 14.87 30.45"/><polygon class="cls-77" points="37.89 53.12 36.4 53.36 35.25 46.03 36.73 45.79 37.89 53.12"/><polygon class="cls-78" points="18.4 22.69 19.33 21.5 25.08 25.98 24.15 27.17 18.4 22.69"/><polygon class="cls-79" points="29.4 52.69 27.94 52.27 29.98 45.34 31.44 45.77 29.4 52.69"/><polygon class="cls-80" points="24.84 17.24 26.21 16.55 29.39 22.89 28.03 23.58 24.84 17.24"/><polygon class="cls-81" points="21.99 48.72 20.85 47.7 25.52 42.46 26.67 43.48 21.99 48.72"/><polygon class="cls-82" points="32.91 15.1 34.45 15.06 34.61 21.95 33.06 21.99 32.91 15.1"/><polygon class="cls-83" points="17.05 42.03 16.45 40.61 22.74 37.95 23.34 39.38 17.05 42.03"/><polygon class="cls-84" points="41.02 16.58 42.45 17.22 39.72 23.34 38.29 22.7 41.02 16.58"/><polygon class="cls-85" points="15.46 33.97 15.52 32.4 22.15 32.69 22.09 34.26 15.46 33.97"/><polygon class="cls-86" points="40.93 51.29 39.45 51.81 37.3 45.6 38.78 45.08 40.93 51.29"/><polygon class="cls-87" points="17.44 26.08 18.18 24.68 23.88 27.69 23.14 29.09 17.44 26.08"/><polygon class="cls-88" points="32.9 52.34 31.32 52.17 32.02 45.83 33.59 46 32.9 52.34"/><polygon class="cls-89" points="22.55 19.87 23.83 18.91 27.58 23.92 26.3 24.88 22.55 19.87"/><polygon class="cls-90" points="25.27 49.88 23.9 49.05 27.15 43.77 28.52 44.61 25.27 49.88"/><polygon class="cls-91" points="29.74 16.47 31.32 16.15 32.53 22.1 30.95 22.43 29.74 16.47"/><polygon class="cls-92" points="19.49 44.46 18.6 43.11 23.64 39.83 24.53 41.19 19.49 44.46"/><polygon class="cls-93" points="37.61 16.48 39.19 16.86 37.78 22.58 36.2 22.19 37.61 16.48"/><polygon class="cls-94" points="16.61 37.17 16.39 35.55 22.16 34.77 22.38 36.39 16.61 37.17"/><polygon class="cls-95" points="43.48 49.05 42.05 49.86 39.23 44.82 40.66 44.02 43.48 49.05"/><polygon class="cls-96" points="44.64 19.81 45.92 20.84 42.31 25.26 41.03 24.23 44.64 19.81"/><polygon class="cls-97" points="17.12 29.43 17.61 27.86 22.99 29.58 22.5 31.15 17.12 29.43"/><polygon class="cls-98" points="36.12 51.41 34.47 51.53 34.09 45.96 35.74 45.84 36.12 51.41"/><polygon class="cls-99" points="20.84 22.73 21.98 21.51 25.97 25.24 24.84 26.46 20.84 22.73"/><polygon class="cls-100" points="28.54 50.42 26.99 49.81 28.97 44.78 30.52 45.39 28.54 50.42"/><polygon class="cls-101" points="27.01 18.31 28.57 17.68 30.51 22.61 28.95 23.23 27.01 18.31"/><polygon class="cls-101" points="22.19 46.33 21.03 45.1 24.85 41.52 26.01 42.75 22.19 46.33"/><polygon class="cls-102" points="34.39 16.96 36.08 17.07 35.74 22.17 34.05 22.07 34.39 16.96"/><polygon class="cls-103" points="18.23 39.98 17.71 38.36 22.53 36.82 23.05 38.44 18.23 39.98"/><polygon class="cls-104" points="45.48 46.52 44.17 47.6 41 43.73 42.31 42.65 45.48 46.52"/><polygon class="cls-105" points="41.56 18.87 43.05 19.7 40.65 24.02 39.15 23.19 41.56 18.87"/><polygon class="cls-106" points="17.38 32.63 17.6 30.93 22.45 31.58 22.23 33.28 17.38 32.63"/><polygon class="cls-106" points="38.99 50 37.32 50.42 36.15 45.73 37.82 45.31 38.99 50"/><polygon class="cls-107" points="19.72 25.7 20.66 24.25 24.62 26.81 23.68 28.27 19.72 25.7"/><polygon class="cls-108" points="31.71 50.37 30.01 50.03 30.93 45.46 32.63 45.8 31.71 50.37"/><polygon class="cls-108" points="24.75 20.49 26.23 19.57 28.62 23.45 27.14 24.36 24.75 20.49"/><polygon class="cls-109" points="25.04 47.62 23.64 46.58 26.33 42.97 27.73 44.02 25.04 47.62"/><polygon class="cls-109" points="31.44 17.96 33.19 17.76 33.67 22.12 31.93 22.32 31.44 17.96"/><polygon class="cls-110" points="20.24 42.34 19.41 40.79 23.24 38.76 24.07 40.31 20.24 42.34"/><polygon class="cls-110" points="38.51 18.52 40.18 19.09 38.8 23.09 37.13 22.52 38.51 18.52"/><polygon class="cls-111" points="18.17 35.59 18.08 33.82 22.25 33.64 22.34 35.41 18.17 35.59"/><polygon class="cls-112" points="41.45 48.19 39.82 48.92 38.14 45.15 39.76 44.42 41.45 48.19"/><polygon class="cls-112" points="19.17 28.68 19.86 27.03 23.56 28.59 22.88 30.24 19.17 28.68"/><polygon class="cls-113" points="34.67 49.79 32.88 49.76 32.97 45.79 34.76 45.82 34.67 49.79"/><polygon class="cls-113" points="22.99 22.92 24.33 21.71 26.91 24.59 25.57 25.8 22.99 22.92"/><polygon class="cls-113" points="27.93 48.36 26.32 47.56 28.02 44.15 29.64 44.95 27.93 48.36"/><polygon class="cls-114" points="28.84 19.38 30.58 18.86 31.63 22.42 29.9 22.94 28.84 19.38"/><polygon class="cls-114" points="22.5 44.24 21.38 42.81 24.27 40.55 25.39 41.98 22.5 44.24"/><polygon class="cls-114" points="35.58 18.68 37.38 18.96 36.83 22.48 35.03 22.21 35.58 18.68"/><polygon class="cls-114" points="19.39 38.25 18.98 36.47 22.42 35.69 22.82 37.47 19.39 38.25"/><polygon class="cls-114" points="43.46 46.08 41.95 47.12 39.99 44.25 41.5 43.21 43.46 46.08"/><polygon class="cls-114" points="41.9 20.91 43.42 21.93 41.5 24.77 39.98 23.74 41.9 20.91"/><polygon class="cls-114" points="19.13 31.57 19.53 29.77 22.83 30.51 22.43 32.31 19.13 31.57"/><polygon class="cls-114" points="37.36 48.77 35.54 49.06 35.03 45.77 36.85 45.48 37.36 48.77"/><polygon class="cls-114" points="21.73 25.48 22.86 24.02 25.41 26.02 24.28 27.48 21.73 25.48"/><polygon class="cls-114" points="30.77 48.6 28.99 48.08 29.89 45.01 31.68 45.53 30.77 48.6"/><polygon class="cls-114" points="26.62 21.13 28.29 20.29 29.68 23.06 28.02 23.91 26.62 21.13"/><polygon class="cls-114" points="24.94 45.66 23.54 44.41 25.58 42.13 26.98 43.37 24.94 45.66"/><polygon class="cls-114" points="32.85 19.3 34.72 19.25 34.79 22.23 32.92 22.27 32.85 19.3"/><polygon class="cls-114" points="20.95 40.55 20.22 38.83 22.93 37.69 23.66 39.41 20.95 40.55"/><polygon class="cls-114" points="39.21 20.29 40.93 21.05 39.77 23.66 38.04 22.89 39.21 20.29"/><polygon class="cls-114" points="19.54 34.3 19.62 32.41 22.43 32.53 22.36 34.42 19.54 34.3"/><polygon class="cls-114" points="39.74 47.4 37.95 48.02 37.05 45.39 38.83 44.77 39.74 47.4"/><polygon class="cls-114" points="20.92 28.09 21.8 26.41 24.19 27.67 23.31 29.35 20.92 28.09"/><polygon class="cls-114" points="33.48 48.4 31.59 48.19 31.88 45.54 33.77 45.75 33.48 48.4"/><polygon class="cls-114" points="24.79 23.1 26.31 21.95 27.86 24.03 26.34 25.18 24.79 23.1"/><polygon class="cls-114" points="27.43 46.64 25.8 45.65 27.15 43.46 28.78 44.46 27.43 46.64"/><polygon class="cls-114" points="30.37 20.25 32.24 19.87 32.74 22.32 30.86 22.7 30.37 20.25"/><polygon class="cls-114" points="22.75 42.51 21.7 40.9 23.77 39.56 24.81 41.17 22.75 42.51"/><polygon class="cls-114" points="36.58 20.07 38.45 20.52 37.87 22.86 36 22.39 36.58 20.07"/><polygon class="cls-114" points="20.29 36.81 20.03 34.9 22.38 34.59 22.64 36.5 20.29 36.81"/><polygon class="cls-114" points="41.81 45.79 40.12 46.74 38.98 44.69 40.67 43.75 41.81 45.79"/><rect class="cls-114" x="41.11" y="23.06" width="2.31" height="1.93" transform="translate(-3.09 41.56) rotate(-50.75)"/><rect class="cls-114" x="20.9" y="28.93" width="1.93" height="2.29" transform="translate(-13.43 41.75) rotate(-72.28)"/><rect class="cls-114" x="34" y="45.68" width="1.94" height="2.27" transform="translate(-3.04 2.43) rotate(-3.82)"/><rect class="cls-114" x="23.78" y="24.1" width="1.94" height="2.24" transform="translate(-10.58 26.06) rotate(-46.91)"/><rect class="cls-114" x="28.29" y="44.95" width="2.23" height="1.94" transform="translate(-24.11 56.41) rotate(-68.45)"/><path class="cls-115" d="M54.43,25.74A8.49,8.49,0,1,1,46,34.23,8.5,8.5,0,0,1,54.43,25.74Zm0,2.83a5.66,5.66,0,1,0,5.66,5.66A5.65,5.65,0,0,0,54.43,28.57Z"/><path class="cls-115" d="M68.57,33.29v9.42H65.74v-17l9.43,9.43V25.74H78v17Z"/><path class="cls-115" d="M95.3,40.23a8.39,8.39,0,0,1-6,2.48,8.49,8.49,0,1,1,0-17,8.4,8.4,0,0,1,6,2.49l-2,2a5.66,5.66,0,1,0,0,8Z"/><path class="cls-115" d="M106.62,28.57H101v4.25h4.71v2.82H101v4.25h6.6l-.94,2.82H98.13v-17h9.43Z"/><path class="cls-115" d="M113.21,33.29v9.42h-2.83v-17l9.43,9.43V25.74h2.83v17Z"/><path class="cls-115" d="M138.67,28.57h-5.19V42.71h-2.83V28.57h-5.18V25.74h13.2Z"/><path class="cls-115" d="M144.32,42.71h-2.83v-17h5.88a6.37,6.37,0,0,1,2.95,12l3,5H149.5L147,38.47h-2.66Zm3.05-14.14h-3.05v7.07h3.05a3.54,3.54,0,1,0,0-7.07Z"/><path class="cls-115" d="M170.24,42.71h-3.3l-1.15-2.82h-6.18l-1.15,2.82h-3.3l7.54-17Zm-9.46-5.65h3.84l-1.92-4.72Z"/><path class="cls-115" d="M183.44,28.57h-5.18V42.71h-2.83V28.57h-5.19V25.74h13.2Z"/><path class="cls-115" d="M192.87,25.74a8.49,8.49,0,1,1-8.49,8.49A8.5,8.5,0,0,1,192.87,25.74Zm0,2.83a5.66,5.66,0,1,0,5.65,5.66A5.65,5.65,0,0,0,192.87,28.57Z"/><path class="cls-115" d="M207,42.71h-2.82v-17h5.88a6.37,6.37,0,0,1,2.94,12l3,5h-3.77l-2.53-4.24H207Zm3.06-14.14H207v7.07h3.06a3.54,3.54,0,1,0,0-7.07Z"/><text class="cls-116" transform="translate(161.02 55.77)"><tspan class="cls-117">b</tspan><tspan x="4.51" y="0">y </tspan><tspan class="cls-118" x="10" y="0">Aladdin</tspan><tspan class="cls-119" x="37.9" y="0">DA</tspan><tspan class="cls-118" x="48.82" y="0">O</tspan></text><rect class="cls-120" x="119.17" y="9.65" width="19.81" height="9.41"/><text class="cls-121" transform="translate(122.59 16.94)">IFO</text><text class="cls-122" transform="translate(143.66 16.94)">Initial Farm Offering</text></g></g></svg>
