<svg xmlns="http://www.w3.org/2000/svg" viewBox="0 0 298.4 97.15"><defs><style>.cls-1{fill:#0021db;}.cls-1,.cls-10,.cls-100,.cls-101,.cls-102,.cls-103,.cls-104,.cls-105,.cls-106,.cls-107,.cls-108,.cls-109,.cls-11,.cls-110,.cls-111,.cls-112,.cls-113,.cls-114,.cls-12,.cls-13,.cls-14,.cls-15,.cls-16,.cls-17,.cls-18,.cls-19,.cls-2,.cls-20,.cls-21,.cls-22,.cls-23,.cls-24,.cls-25,.cls-26,.cls-27,.cls-28,.cls-29,.cls-3,.cls-30,.cls-31,.cls-32,.cls-33,.cls-34,.cls-35,.cls-36,.cls-37,.cls-38,.cls-39,.cls-4,.cls-40,.cls-41,.cls-42,.cls-43,.cls-44,.cls-45,.cls-46,.cls-47,.cls-48,.cls-49,.cls-5,.cls-50,.cls-51,.cls-52,.cls-53,.cls-54,.cls-55,.cls-56,.cls-57,.cls-58,.cls-59,.cls-6,.cls-60,.cls-61,.cls-62,.cls-63,.cls-64,.cls-65,.cls-66,.cls-67,.cls-68,.cls-69,.cls-7,.cls-70,.cls-71,.cls-72,.cls-73,.cls-74,.cls-75,.cls-76,.cls-77,.cls-78,.cls-79,.cls-8,.cls-80,.cls-81,.cls-82,.cls-83,.cls-84,.cls-85,.cls-86,.cls-87,.cls-88,.cls-89,.cls-9,.cls-90,.cls-91,.cls-92,.cls-93,.cls-94,.cls-95,.cls-96,.cls-97,.cls-98,.cls-99{opacity:0.8;}.cls-2{fill:#0022db;}.cls-3{fill:#0023db;}.cls-4{fill:#0023dc;}.cls-5{fill:#0024dc;}.cls-6{fill:#0025dc;}.cls-7{fill:#0026dc;}.cls-8{fill:#0027dc;}.cls-9{fill:#0027dd;}.cls-10{fill:#0028dd;}.cls-11{fill:#0029dd;}.cls-12{fill:#002add;}.cls-13{fill:#002bde;}.cls-14{fill:#002cde;}.cls-15{fill:#002dde;}.cls-16{fill:#002ede;}.cls-17{fill:#002fde;}.cls-18{fill:#0030df;}.cls-19{fill:#0031df;}.cls-20{fill:#0032df;}.cls-21{fill:#0033df;}.cls-22{fill:#0034e0;}.cls-23{fill:#0035e0;}.cls-24{fill:#0036e0;}.cls-25{fill:#0037e1;}.cls-26{fill:#0039e1;}.cls-27{fill:#003ae1;}.cls-28{fill:#003be1;}.cls-29{fill:#003ce2;}.cls-30{fill:#003ee2;}.cls-31{fill:#003fe2;}.cls-32{fill:#0040e3;}.cls-33{fill:#0042e3;}.cls-34{fill:#0043e3;}.cls-35{fill:#0045e4;}.cls-36{fill:#0046e4;}.cls-37{fill:#0047e5;}.cls-38{fill:#0049e5;}.cls-39{fill:#004ae5;}.cls-40{fill:#004ce6;}.cls-41{fill:#004de6;}.cls-42{fill:#004fe6;}.cls-43{fill:#0051e7;}.cls-44{fill:#0052e7;}.cls-45{fill:#0054e8;}.cls-46{fill:#0055e8;}.cls-47{fill:#0057e8;}.cls-48{fill:#0058e9;}.cls-49{fill:#005ae9;}.cls-50{fill:#005cea;}.cls-116,.cls-51{fill:#005dea;}.cls-52{fill:#005fea;}.cls-53{fill:#0061eb;}.cls-54{fill:#0062eb;}.cls-55{fill:#0064ec;}.cls-56{fill:#0066ec;}.cls-57{fill:#0067ec;}.cls-58{fill:#0069ed;}.cls-59{fill:#006bed;}.cls-60{fill:#006cee;}.cls-61{fill:#006eee;}.cls-62{fill:#0070ee;}.cls-63{fill:#0071ef;}.cls-64{fill:#0073ef;}.cls-65{fill:#0074f0;}.cls-66{fill:#0076f0;}.cls-67{fill:#0078f1;}.cls-68{fill:#0079f1;}.cls-69{fill:#007bf1;}.cls-70{fill:#007df2;}.cls-71{fill:#007ef2;}.cls-72{fill:#0080f3;}.cls-73{fill:#0081f3;}.cls-74{fill:#0083f3;}.cls-75{fill:#0084f4;}.cls-76{fill:#0086f4;}.cls-77{fill:#0087f4;}.cls-78{fill:#0089f5;}.cls-79{fill:#008af5;}.cls-80{fill:#008cf6;}.cls-81{fill:#008df6;}.cls-82{fill:#008ff6;}.cls-83{fill:#0090f7;}.cls-84{fill:#0092f7;}.cls-85{fill:#0093f7;}.cls-86{fill:#0094f8;}.cls-87{fill:#0096f8;}.cls-88{fill:#0097f8;}.cls-89{fill:#0098f9;}.cls-90{fill:#0099f9;}.cls-91{fill:#009bf9;}.cls-92{fill:#009cfa;}.cls-93{fill:#009dfa;}.cls-94{fill:#009efa;}.cls-95{fill:#009ffa;}.cls-96{fill:#00a0fb;}.cls-97{fill:#00a2fb;}.cls-98{fill:#00a3fb;}.cls-99{fill:#00a4fb;}.cls-100{fill:#00a5fc;}.cls-101{fill:#00a6fc;}.cls-102{fill:#00a7fc;}.cls-103{fill:#00a8fd;}.cls-104{fill:#00a9fd;}.cls-105{fill:#00aafd;}.cls-106{fill:#00abfd;}.cls-107{fill:#00acfd;}.cls-108{fill:#00adfe;}.cls-109{fill:#00aefe;}.cls-110{fill:#00affe;}.cls-111{fill:#00b0fe;}.cls-112{fill:#00b0ff;}.cls-113{fill:#00b1ff;}.cls-114{fill:#00b2ff;}.cls-115{fill:#fff;}.cls-116{font-size:11.07px;font-family:MuseoSans-500, MuseoSans 500;}.cls-117{letter-spacing:-0.01em;}.cls-118{letter-spacing:0em;}.cls-119{letter-spacing:-0.01em;}.cls-120{letter-spacing:-0.01em;}</style></defs><title>资源 1</title><g id="图层_2" data-name="图层 2"><g id="默认"><rect class="cls-1" x="15.03" y="17.2" width="0.18" height="32.7" transform="translate(-21.66 34.62) rotate(-67.4)"/><rect class="cls-1" x="15.03" y="17.2" width="0.18" height="32.7" transform="translate(-21.66 34.62) rotate(-67.4)"/><rect class="cls-1" x="30.33" y="80.98" width="32.1" height="0.23" transform="translate(-35.56 125.98) rotate(-88.95)"/><rect class="cls-1" x="24.31" y="6.18" width="0.31" height="31.23" transform="translate(-8.3 21.99) rotate(-42.04)"/><rect class="cls-1" x="16.67" y="76.72" width="30.86" height="0.34" transform="translate(-51.04 71.45) rotate(-63.6)"/><polygon class="cls-1" points="33.03 0.67 33.4 0.56 42.06 29.51 41.68 29.63 33.03 0.67"/><polygon class="cls-1" points="9.47 76.68 9.21 76.35 32.73 57.85 32.99 58.18 9.47 76.68"/><rect class="cls-1" x="37.3" y="14.33" width="29.38" height="0.46" transform="translate(29.77 63.76) rotate(-81.34)"/><polygon class="cls-1" points="1.16 57.57 1.06 57.09 29.46 50.62 29.57 51.1 1.16 57.57"/><polygon class="cls-1" points="73.7 85.38 73.28 85.67 56.97 61.83 57.39 61.55 73.7 85.38"/><polygon class="cls-1" points="72.92 8.13 73.35 8.42 57.31 32.15 56.87 31.86 72.92 8.13"/><polygon class="cls-1" points="1.74 37.09 1.86 36.55 29.6 42.72 29.48 43.25 1.74 37.09"/><rect class="cls-1" x="51.78" y="64.38" width="0.56" height="28.19" transform="translate(-11.75 9.21) rotate(-9.09)"/><polygon class="cls-1" points="10.83 19.09 11.2 18.61 33.11 35.65 32.74 36.13 10.83 19.09"/><polygon class="cls-1" points="34.57 90.53 33.98 90.36 41.72 63.92 42.31 64.1 34.57 90.53"/><polygon class="cls-1" points="26.49 6.86 27.07 6.56 39.3 30.8 38.71 31.09 26.49 6.86"/><polygon class="cls-1" points="17.52 80.52 17.02 80.08 34.94 59.96 35.44 60.4 17.52 80.52"/><polygon class="cls-1" points="45.59 2.53 46.29 2.52 46.95 29.07 46.25 29.09 45.59 2.53"/><polygon class="cls-1" points="6.52 64.42 6.24 63.77 30.53 53.48 30.81 54.13 6.52 64.42"/><polygon class="cls-1" points="64.45 6.71 65.14 7.02 54.58 30.79 53.9 30.49 64.45 6.71"/><polygon class="cls-1" points="3.49 45.43 3.52 44.67 29.33 45.75 29.3 46.51 3.49 45.43"/><polygon class="cls-1" points="61.65 87.72 60.91 87.97 52.49 63.74 53.23 63.49 61.65 87.72"/><polygon class="cls-1" points="8.78 27.2 9.15 26.49 31.55 38.27 31.18 38.98 8.78 27.2"/><polygon class="cls-1" points="42.83 89.49 42.01 89.41 44.72 64.41 45.54 64.5 42.83 89.49"/><polygon class="cls-1" points="21.19 13.16 21.87 12.65 36.77 32.48 36.09 32.99 21.19 13.16"/><polygon class="cls-1" points="25.27 83.14 24.54 82.69 37.43 61.69 38.17 62.14 25.27 83.14"/><polygon class="cls-1" points="38.2 5.85 39.07 5.67 43.94 29.5 43.07 29.68 38.2 5.85"/><polygon class="cls-1" points="12.28 70.06 11.79 69.31 32.03 56.11 32.52 56.87 12.28 70.06"/><polygon class="cls-1" points="56.48 6.51 57.38 6.73 51.69 29.88 50.79 29.66 56.48 6.51"/><polygon class="cls-1" points="6.2 52.9 6.07 51.96 29.54 48.77 29.67 49.7 6.2 52.9"/><polygon class="cls-1" points="67.57 82.49 66.74 82.96 55.23 62.43 56.06 61.97 67.57 82.49"/><polygon class="cls-1" points="72.52 14.81 73.27 15.42 58.51 33.55 57.76 32.94 72.52 14.81"/><polygon class="cls-1" points="8.01 34.99 8.3 34.06 30.45 41.09 30.15 42.02 8.01 34.99"/><polygon class="cls-1" points="50.33 87.37 49.34 87.44 47.75 64.41 48.74 64.34 50.33 87.37"/><polygon class="cls-2" points="17.19 19.76 17.88 19.02 34.56 34.55 33.87 35.29 17.19 19.76"/><polygon class="cls-2" points="32.85 84.44 31.9 84.07 40.16 62.99 41.12 63.36 32.85 84.44"/><polygon class="cls-2" points="31.83 10.03 32.8 9.64 41.06 30.41 40.08 30.8 31.83 10.03"/><polygon class="cls-2" points="18.48 74.44 17.75 73.67 33.93 58.46 34.66 59.23 18.48 74.44"/><polygon class="cls-3" points="49.02 7.52 50.1 7.59 48.7 29.47 47.61 29.4 49.02 7.52"/><polygon class="cls-4" points="9.86 59.44 9.52 58.39 30.25 51.7 30.59 52.75 9.86 59.44"/><polygon class="cls-4" points="72.3 76.71 71.44 77.42 57.69 60.7 58.55 59.99 72.3 76.71"/><polygon class="cls-5" points="65.44 12.54 66.43 13.08 55.99 31.89 55.01 31.35 65.44 12.54"/><polygon class="cls-5" points="8.49 42.38 8.64 41.26 29.83 44.04 29.69 45.16 8.49 42.38"/><polygon class="cls-6" points="56.99 84.22 55.88 84.5 50.72 63.9 51.83 63.62 56.99 84.22"/><polygon class="cls-6" points="14.48 26.56 15.12 25.57 32.73 36.94 32.1 37.93 14.48 26.56"/><polygon class="cls-7" points="40.14 84.46 38.98 84.23 43.06 63.8 44.22 64.03 40.14 84.46"/><polygon class="cls-8" points="26.53 14.95 27.55 14.31 38.39 31.79 37.37 32.42 26.53 14.95"/><polygon class="cls-9" points="24.97 77.56 24 76.83 36.19 60.44 37.17 61.16 24.97 77.56"/><polygon class="cls-10" points="42.2 9.66 43.43 9.52 45.7 29.56 44.47 29.7 42.2 9.66"/><polygon class="cls-11" points="14.33 64.97 13.75 63.87 31.44 54.46 32.03 55.56 14.33 64.97"/><polygon class="cls-11" points="58.45 11.56 59.65 11.97 53.24 30.69 52.04 30.28 58.45 11.56"/><polygon class="cls-12" points="10.14 49.22 10.08 47.94 29.72 47.03 29.78 48.31 10.14 49.22"/><polygon class="cls-13" points="62.73 80.19 61.55 80.72 53.54 62.91 54.72 62.38 62.73 80.19"/><polygon class="cls-14" points="13.06 33.37 13.56 32.15 31.35 39.59 30.85 40.8 13.06 33.37"/><polygon class="cls-15" points="46.97 83.3 45.65 83.27 46.03 64.12 47.35 64.14 46.97 83.3"/><polygon class="cls-16" points="22.37 20.42 23.36 19.52 36 33.59 35.01 34.48 22.37 20.42"/><polygon class="cls-17" points="31.57 79.41 30.36 78.81 38.74 62 39.95 62.6 31.57 79.41"/><polygon class="cls-18" points="36.17 12.79 37.48 12.39 42.78 30.16 41.46 30.55 36.17 12.79"/><polygon class="cls-19" points="19.44 69.42 18.58 68.33 33.07 56.96 33.92 58.04 19.44 69.42"/><polygon class="cls-20" points="51.73 11.79 53.12 12.01 50.35 29.97 48.96 29.76 51.73 11.79"/><polygon class="cls-21" points="12.82 55.36 12.51 53.98 30.11 49.98 30.43 51.36 12.82 55.36"/><polygon class="cls-22" points="67.44 75.47 66.26 76.27 56.14 61.46 57.32 60.65 67.44 75.47"/><polygon class="cls-23" points="66.07 17.49 67.26 18.3 57.27 33.05 56.08 32.25 66.07 17.49"/><polygon class="cls-24" points="12.85 39.99 13.16 38.58 30.44 42.43 30.13 43.84 12.85 39.99"/><polygon class="cls-25" points="53.18 81.07 51.75 81.3 49 63.93 50.44 63.7 53.18 81.07"/><polygon class="cls-26" points="19.38 26.25 20.28 25.09 33.97 35.75 33.06 36.91 19.38 26.25"/><polygon class="cls-27" points="38.06 80.05 36.64 79.63 41.5 63.1 42.92 63.51 38.06 80.05"/><polygon class="cls-28" points="31.02 16.73 32.36 16.05 40.01 31.24 38.67 31.92 31.02 16.73"/><polygon class="cls-29" points="24.98 72.74 23.85 71.74 35.09 59.13 36.22 60.14 24.98 72.74"/><polygon class="cls-30" points="45.46 13.14 46.99 13.11 47.39 29.76 45.86 29.8 45.46 13.14"/><polygon class="cls-31" points="16.37 60.67 15.76 59.26 31 52.81 31.6 54.23 16.37 60.67"/><polygon class="cls-32" points="59.9 16.05 61.32 16.68 54.69 31.59 53.26 30.96 59.9 16.05"/><polygon class="cls-33" points="13.77 46.24 13.83 44.67 30.02 45.36 29.96 46.93 13.77 46.24"/><polygon class="cls-34" points="58.64 77.93 57.15 78.44 51.88 63.24 53.37 62.72 58.64 77.93"/><polygon class="cls-35" points="17.55 32.23 18.3 30.82 32.34 38.22 31.59 39.63 17.55 32.23"/><polygon class="cls-36" points="44.27 79.55 42.68 79.38 44.39 63.71 45.99 63.88 44.27 79.55"/><polygon class="cls-37" points="26.86 21.31 28.16 20.33 37.48 32.77 36.18 33.74 26.86 21.31"/><polygon class="cls-38" points="30.74 74.92 29.35 74.07 37.43 60.92 38.83 61.78 30.74 74.92"/><polygon class="cls-39" points="39.8 15.48 41.42 15.14 44.46 30.05 42.84 30.39 39.8 15.48"/><polygon class="cls-40" points="20.6 65.06 19.69 63.67 32.35 55.43 33.26 56.83 20.6 65.06"/><polygon class="cls-41" points="53.85 15.73 55.48 16.13 51.91 30.59 50.28 30.19 53.85 15.73"/><polygon class="cls-42" points="15.7 51.96 15.47 50.28 30.12 48.3 30.35 49.98 15.7 51.96"/><polygon class="cls-43" points="63.23 74.05 61.75 74.88 54.58 62.07 56.06 61.24 63.23 74.05"/><polygon class="cls-44" points="66.3 21.91 67.62 22.98 58.41 34.27 57.09 33.2 66.3 21.91"/><polygon class="cls-45" points="16.86 38.16 17.37 36.53 31.16 40.91 30.64 42.55 16.86 38.16"/><polygon class="cls-46" points="50.02 78.02 48.3 78.14 47.33 63.82 49.05 63.7 50.02 78.02"/><polygon class="cls-47" points="23.73 26.32 24.92 25.04 35.26 34.69 34.08 35.97 23.73 26.32"/><polygon class="cls-48" points="36.53 75.99 34.9 75.35 40.04 62.28 41.67 62.92 36.53 75.99"/><polygon class="cls-49" points="34.89 18.63 36.53 17.98 41.63 30.84 39.99 31.49 34.89 18.63"/><polygon class="cls-50" points="25.32 68.47 24.11 67.17 34.12 57.77 35.34 59.07 25.32 68.47"/><polygon class="cls-51" points="48.11 16.48 49.9 16.59 49.03 30.09 47.24 29.98 48.11 16.48"/><polygon class="cls-52" points="18.48 57 17.93 55.28 30.71 51.17 31.26 52.89 18.48 57"/><polygon class="cls-53" points="66.89 69.62 65.49 70.77 57.03 60.47 58.43 59.32 66.89 69.62"/><polygon class="cls-54" points="60.85 20.14 62.44 21.03 56.02 32.58 54.43 31.7 60.85 20.14"/><polygon class="cls-55" points="17.22 43.85 17.45 42.04 30.46 43.76 30.23 45.57 17.22 43.85"/><polygon class="cls-56" points="55.16 75.6 53.38 76.05 50.23 63.42 52.01 62.97 55.16 75.6"/><polygon class="cls-57" points="21.65 31.56 22.65 30 33.41 36.96 32.41 38.52 21.65 31.56"/><polygon class="cls-58" points="42.15 76 40.33 75.64 42.82 63.17 44.65 63.53 42.15 76"/><polygon class="cls-59" points="30.8 22.44 32.4 21.45 38.99 32.09 37.4 33.08 30.8 22.44"/><polygon class="cls-60" points="30.35 70.86 28.83 69.73 36.25 59.77 37.77 60.89 30.35 70.86"/><polygon class="cls-61" points="42.85 18.16 44.74 17.94 46.11 30.09 44.22 30.3 42.85 18.16"/><polygon class="cls-62" points="21.97 61.26 21.07 59.57 31.78 53.89 32.68 55.57 21.97 61.26"/><polygon class="cls-63" points="55.44 19.42 57.26 20.05 53.39 31.33 51.56 30.71 55.44 19.42"/><polygon class="cls-64" points="18.53 49.14 18.44 47.2 30.26 46.66 30.35 48.6 18.53 49.14"/><polygon class="cls-65" points="59.58 72.45 57.81 73.25 53 62.54 54.78 61.74 59.58 72.45"/><polygon class="cls-66" points="20.59 36.84 21.34 35.03 31.99 39.49 31.23 41.3 20.59 36.84"/><polygon class="cls-67" points="47.44 75.05 45.47 75.01 45.71 63.56 47.67 63.6 47.44 75.05"/><polygon class="cls-68" points="27.63 26.72 29.1 25.39 36.62 33.77 35.14 35.1 27.63 26.72"/><polygon class="cls-69" points="35.48 72.23 33.69 71.35 38.68 61.36 40.47 62.25 35.48 72.23"/><polygon class="cls-70" points="38.2 20.64 40.12 20.07 43.25 30.58 41.32 31.16 38.2 20.64"/><polygon class="cls-71" points="25.98 64.66 24.73 63.08 33.29 56.37 34.53 57.95 25.98 64.66"/><polygon class="cls-72" points="50.22 19.68 52.23 19.98 50.59 30.55 48.59 30.24 50.22 19.68"/><polygon class="cls-73" points="20.68 53.87 20.22 51.88 30.56 49.55 31.02 51.54 20.68 53.87"/><polygon class="cls-74" points="63.19 68.72 61.5 69.88 55.58 61.2 57.27 60.05 63.19 68.72"/><polygon class="cls-75" points="61.38 23.9 63.08 25.05 57.24 33.67 55.53 32.52 61.38 23.9"/><polygon class="cls-76" points="20.5 41.99 20.95 39.97 31.02 42.23 30.58 44.24 20.5 41.99"/><polygon class="cls-77" points="52.23 73.24 50.19 73.57 48.6 63.46 50.65 63.13 52.23 73.24"/><polygon class="cls-78" points="25.37 31.29 26.65 29.64 34.57 35.82 33.3 37.47 25.37 31.29"/><polygon class="cls-79" points="40.53 72.65 38.52 72.06 41.34 62.51 43.35 63.1 40.53 72.65"/><polygon class="cls-80" points="34.25 23.77 36.14 22.82 40.52 31.56 38.64 32.51 34.25 23.77"/><polygon class="cls-81" points="30.32 67.17 28.74 65.76 35.19 58.54 36.77 59.95 30.32 67.17"/><polygon class="cls-82" points="45.37 20.81 47.5 20.76 47.72 30.26 45.59 30.32 45.37 20.81"/><polygon class="cls-83" points="23.51 57.95 22.67 55.99 31.35 52.33 32.18 54.3 23.51 57.95"/><polygon class="cls-84" points="56.56 22.86 58.53 23.74 54.77 32.17 52.8 31.3 56.56 22.86"/><polygon class="cls-85" points="21.31 46.84 21.4 44.68 30.54 45.07 30.45 47.23 21.31 46.84"/><polygon class="cls-86" points="56.43 70.72 54.38 71.43 51.42 62.87 53.47 62.15 56.43 70.72"/><polygon class="cls-87" points="24.05 35.96 25.06 34.03 32.92 38.18 31.91 40.11 24.05 35.96"/><polygon class="cls-88" points="45.35 72.17 43.18 71.93 44.14 63.18 46.32 63.42 45.35 72.17"/><polygon class="cls-89" points="31.09 27.4 32.85 26.07 38.02 32.98 36.26 34.3 31.09 27.4"/><polygon class="cls-90" points="34.84 68.78 32.95 67.62 37.43 60.35 39.32 61.5 34.84 68.78"/><polygon class="cls-91" points="41.01 22.71 43.19 22.27 44.85 30.47 42.67 30.92 41.01 22.71"/><polygon class="cls-92" points="26.87 61.3 25.65 59.43 32.59 54.92 33.82 56.79 26.87 61.3"/><polygon class="cls-93" points="51.85 22.72 54.04 23.25 52.09 31.13 49.9 30.6 51.85 22.72"/><polygon class="cls-94" points="22.9 51.25 22.59 49.02 30.55 47.95 30.86 50.18 22.9 51.25"/><polygon class="cls-95" points="59.94 67.63 57.97 68.74 54.09 61.8 56.06 60.69 59.94 67.63"/><polygon class="cls-96" points="61.55 27.31 63.31 28.74 58.34 34.83 56.58 33.4 61.55 27.31"/><polygon class="cls-97" points="23.6 40.58 24.29 38.41 31.7 40.78 31.02 42.95 23.6 40.58"/><polygon class="cls-98" points="49.8 70.89 47.52 71.05 47.01 63.36 49.28 63.2 49.8 70.89"/><polygon class="cls-99" points="28.73 31.34 30.3 29.66 35.81 34.8 34.24 36.48 28.73 31.34"/><polygon class="cls-100" points="39.35 69.52 37.21 68.68 39.94 61.74 42.09 62.58 39.35 69.52"/><polygon class="cls-101" points="37.23 25.24 39.38 24.38 42.07 31.17 39.92 32.02 37.23 25.24"/><polygon class="cls-101" points="30.59 63.87 29 62.18 34.26 57.25 35.85 58.94 30.59 63.87"/><polygon class="cls-102" points="47.41 23.38 49.74 23.53 49.28 30.57 46.95 30.42 47.41 23.38"/><polygon class="cls-103" points="25.14 55.12 24.42 52.89 31.06 50.76 31.78 52.99 25.14 55.12"/><polygon class="cls-104" points="62.71 64.13 60.9 65.63 56.52 60.3 58.34 58.8 62.71 64.13"/><polygon class="cls-105" points="57.3 26.02 59.36 27.16 56.04 33.12 53.98 31.98 57.3 26.02"/><polygon class="cls-106" points="23.96 44.99 24.27 42.65 30.95 43.54 30.64 45.88 23.96 44.99"/><polygon class="cls-106" points="53.75 68.93 51.46 69.51 49.85 63.05 52.15 62.47 53.75 68.93"/><polygon class="cls-107" points="27.19 35.44 28.48 33.43 33.94 36.97 32.65 38.97 27.19 35.44"/><polygon class="cls-108" points="43.72 69.44 41.37 68.98 42.64 62.67 44.98 63.14 43.72 69.44"/><polygon class="cls-108" points="34.12 28.25 36.16 26.99 39.46 32.32 37.42 33.59 34.12 28.25"/><polygon class="cls-109" points="34.52 65.66 32.59 64.22 36.3 59.25 38.23 60.69 34.52 65.66"/><polygon class="cls-109" points="43.35 24.76 45.76 24.48 46.43 30.5 44.02 30.77 43.35 24.76"/><polygon class="cls-110" points="27.9 58.38 26.76 56.24 32.04 53.44 33.18 55.58 27.9 58.38"/><polygon class="cls-110" points="53.09 25.53 55.4 26.32 53.5 31.83 51.19 31.04 53.09 25.53"/><polygon class="cls-111" points="25.05 49.08 24.93 46.63 30.68 46.38 30.8 48.82 25.05 49.08"/><polygon class="cls-112" points="57.14 66.44 54.91 67.44 52.58 62.26 54.82 61.25 57.14 66.44"/><polygon class="cls-112" points="26.43 39.55 27.38 37.27 32.49 39.42 31.54 41.69 26.43 39.55"/><polygon class="cls-113" points="47.8 68.65 45.33 68.6 45.45 63.13 47.92 63.18 47.8 68.65"/><polygon class="cls-113" points="31.7 31.6 33.54 29.94 37.09 33.91 35.25 35.57 31.7 31.6"/><polygon class="cls-113" points="38.51 66.68 36.28 65.57 38.64 60.87 40.87 61.98 38.51 66.68"/><polygon class="cls-114" points="39.77 26.72 42.16 26 43.61 30.91 41.22 31.63 39.77 26.72"/><polygon class="cls-114" points="31.03 60.99 29.48 59.02 33.46 55.91 35.01 57.88 31.03 60.99"/><polygon class="cls-114" points="49.05 25.76 51.54 26.14 50.78 31 48.3 30.62 49.05 25.76"/><polygon class="cls-114" points="26.73 52.73 26.17 50.28 30.91 49.21 31.47 51.67 26.73 52.73"/><polygon class="cls-114" points="59.92 63.54 57.83 64.97 55.14 61.01 57.22 59.58 59.92 63.54"/><polygon class="cls-114" points="57.77 28.82 59.87 30.24 57.22 34.14 55.12 32.73 57.77 28.82"/><polygon class="cls-114" points="26.38 43.53 26.93 41.05 31.47 42.07 30.92 44.55 26.38 43.53"/><polygon class="cls-114" points="51.51 67.24 49 67.64 48.29 63.1 50.8 62.7 51.51 67.24"/><polygon class="cls-114" points="29.95 35.14 31.52 33.12 35.04 35.87 33.48 37.89 29.95 35.14"/><polygon class="cls-114" points="42.42 67 39.97 66.28 41.22 62.06 43.67 62.78 42.42 67"/><polygon class="cls-114" points="36.7 29.13 39 27.97 40.92 31.8 38.63 32.96 36.7 29.13"/><polygon class="cls-114" points="34.38 62.95 32.46 61.24 35.27 58.09 37.2 59.8 34.38 62.95"/><polygon class="cls-114" points="45.29 26.6 47.88 26.54 47.97 30.64 45.38 30.71 45.29 26.6"/><polygon class="cls-114" points="28.89 55.91 27.88 53.53 31.61 51.96 32.62 54.34 28.89 55.91"/><polygon class="cls-114" points="54.06 27.97 56.43 29.02 54.83 32.62 52.45 31.57 54.06 27.97"/><polygon class="cls-114" points="26.94 47.28 27.05 44.68 30.93 44.85 30.82 47.45 26.94 47.28"/><polygon class="cls-114" points="54.79 65.35 52.33 66.21 51.08 62.59 53.54 61.73 54.79 65.35"/><polygon class="cls-114" points="28.84 38.72 30.06 36.41 33.35 38.15 32.14 40.47 28.84 38.72"/><polygon class="cls-114" points="46.15 66.73 43.55 66.45 43.95 62.79 46.56 63.07 46.15 66.73"/><polygon class="cls-114" points="34.17 31.85 36.27 30.27 38.42 33.13 36.32 34.71 34.17 31.85"/><polygon class="cls-114" points="37.82 64.31 35.58 62.93 37.43 59.92 39.68 61.3 37.82 64.31"/><polygon class="cls-114" points="41.87 27.93 44.45 27.39 45.13 30.77 42.55 31.3 41.87 27.93"/><polygon class="cls-114" points="31.36 58.61 29.92 56.39 32.77 54.55 34.21 56.76 31.36 58.61"/><polygon class="cls-114" points="50.44 27.66 53.01 28.3 52.22 31.51 49.64 30.88 50.44 27.66"/><polygon class="cls-114" points="27.97 50.75 27.62 48.12 30.85 47.69 31.21 50.32 27.97 50.75"/><polygon class="cls-114" points="57.64 63.14 55.32 64.44 53.75 61.62 56.07 60.32 57.64 63.14"/><rect class="cls-114" x="56.68" y="31.8" width="3.19" height="2.66" transform="translate(-4.25 57.29) rotate(-50.75)"/><rect class="cls-114" x="28.82" y="39.88" width="2.67" height="3.16" transform="translate(-18.52 57.56) rotate(-72.28)"/><rect class="cls-114" x="46.88" y="62.98" width="2.67" height="3.13" transform="translate(-4.19 3.35) rotate(-3.82)"/><rect class="cls-114" x="32.78" y="33.23" width="2.67" height="3.09" transform="translate(-14.59 35.93) rotate(-46.91)"/><rect class="cls-114" x="39.01" y="61.98" width="3.07" height="2.68" transform="translate(-33.24 77.77) rotate(-68.45)"/><path class="cls-115" d="M75.05,35.5a11.7,11.7,0,1,1-11.7,11.69A11.71,11.71,0,0,1,75.05,35.5Zm0,3.89a7.8,7.8,0,1,0,7.79,7.8A7.79,7.79,0,0,0,75.05,39.39Z"/><path class="cls-115" d="M94.54,45.89v13h-3.9V35.5l13,13v-13h3.9V58.89Z"/><path class="cls-115" d="M131.4,55.46a11.59,11.59,0,0,1-8.27,3.43,11.7,11.7,0,1,1,0-23.39,11.59,11.59,0,0,1,8.27,3.43l-2.76,2.75a7.8,7.8,0,1,0,0,11Z"/><path class="cls-115" d="M147,39.39H139.2v5.85h6.49v3.9H139.2V55h9.09l-1.3,3.9H135.3V35.5h13Z"/><path class="cls-115" d="M156.09,45.89v13h-3.9V35.5l13,13v-13h3.9V58.89Z"/><path class="cls-115" d="M191.18,39.39H184v19.5h-3.9V39.39H173V35.5h18.19Z"/><path class="cls-115" d="M199,58.89h-3.9V35.5h8.11a8.77,8.77,0,0,1,4.06,16.56l4.08,6.83h-5.2L202.64,53H199Zm4.21-19.5H199v9.75h4.21a4.88,4.88,0,1,0,0-9.75Z"/><path class="cls-115" d="M234.72,58.89h-4.55L228.59,55h-8.53l-1.59,3.9h-4.55l10.4-23.39Zm-13.05-7.8H227l-2.65-6.5Z"/><path class="cls-115" d="M252.92,39.39h-7.15v19.5h-3.9V39.39h-7.15V35.5h18.2Z"/><path class="cls-115" d="M265.91,35.5a11.7,11.7,0,1,1-11.7,11.69A11.71,11.71,0,0,1,265.91,35.5Zm0,3.89a7.8,7.8,0,1,0,7.8,7.8A7.8,7.8,0,0,0,265.91,39.39Z"/><path class="cls-115" d="M285.41,58.89h-3.9V35.5h8.11a8.77,8.77,0,0,1,4.05,16.56l4.08,6.83h-5.2L289.07,53h-3.66Zm4.21-19.5h-4.21v9.75h4.21a4.88,4.88,0,1,0,0-9.75Z"/><text class="cls-116" transform="translate(221.67 76.89)"><tspan class="cls-117">b</tspan><tspan x="6.22" y="0">y </tspan><tspan class="cls-118" x="13.78" y="0">A</tspan><tspan x="20.53" y="0">laddin</tspan><tspan class="cls-119" x="49.7" y="0">D</tspan><tspan class="cls-120" x="56.91" y="0">A</tspan><tspan x="63.52" y="0">O</tspan></text></g></g></svg>