<?xml version="1.0" encoding="UTF-8"?>
<svg width="300px" height="300px" viewBox="0 0 300 300" version="1.1" xmlns="http://www.w3.org/2000/svg" xmlns:xlink="http://www.w3.org/1999/xlink">
    <!-- Generator: Sketch 56.2 (81672) - https://sketch.com -->
    <title>画板</title>
    <desc>Created with Sketch.</desc>
    <g id="画板" stroke="none" stroke-width="1" fill="none" fill-rule="evenodd">
        <g id="ald" transform="translate(0.000000, 25.000000)" fill-rule="nonzero">
            <path d="M158.5,92 C156.4,92 155,90.4651198 155,88.1627996 L155,29.8372004 C155,27.5348802 156.4,26 158.5,26 C160.6,26 162,27.5348802 162,29.8372004 L162,88.1627996 C162,90.4651198 160.6,92 158.5,92 Z" id="路径" fill="#FFFFFF"></path>
            <path d="M139.639866,95 C138.08214,95 137.303278,94.2374346 136.524415,93.4748693 L94.4658194,21.7940298 C93.6869565,20.268899 93.6869565,17.9812029 96.0235451,16.4560722 C97.5812709,15.6935068 99.9178595,15.6935068 101.475585,17.9812029 L143.534181,89.6620424 C144.313044,91.1871732 144.313044,93.4748693 141.976455,95 C141.197592,94.2374346 140.418729,95 139.639866,95 Z" id="路径" fill="#FFFFFF"></path>
            <path d="M124.94425,110 C124.192114,110 123.439977,110 123.439977,109.259227 L73.79934,81.1098486 C72.2950668,80.3690755 71.5429303,78.1467562 72.2950668,75.924585 C73.0472034,73.7022657 75.3036131,73.7022657 77.5596467,74.4430388 L127.20066,102.592269 C128.704933,103.333042 129.45707,105.555361 128.704933,107.777681 C127.952797,109.259227 126.448523,110 124.94425,110 Z" id="路径" fill="#FFFFFF"></path>
            <path d="M121.218481,129 L38.781519,129 C36.5126076,129 35,127.6 35,125.5 C35,123.4 36.5126076,122 38.781519,122 L121.218481,122 C123.487392,122 125,123.4 125,125.5 C125,127.6 123.487392,129 121.218481,129 Z" id="路径" fill="#FFFFFF"></path>
            <path d="M58.5,72 C60.98535,72 63,69.985275 63,67.5 C63,65.014725 60.98535,63 58.5,63 C56.014725,63 54,65.014725 54,67.5 C54,69.985275 56.014725,72 58.5,72 Z" id="路径" fill="#b78b49"></path>
            <path d="M174.305353,95 C173.55282,95 172.800287,95 172.800287,94.24324 C171.295222,93.4864799 170.54269,91.2161998 171.295222,88.9459197 L211.931984,17.8104007 C212.684517,16.2968806 214.942115,15.5401206 217.199713,16.2968806 C218.704778,17.0536407 219.45731,19.3239208 218.704778,21.5942009 L178.068016,92.7297199 C176.562951,94.24324 175.810418,95 174.305353,95 Z" id="路径" fill="#FFFFFF"></path>
            <path d="M189.485422,110 C187.969387,110 187.21137,109.259227 186.453352,108.518454 C185.695335,107.036908 185.695335,104.814588 187.969387,103.333042 L237.240525,74.4430388 C238.75656,73.7022657 241.030613,73.7022657 242.546648,75.924585 C243.304665,77.4059831 243.304665,79.6283024 241.030613,81.1098486 L191.001457,109.259227 C191.001457,110 190.24344,110 189.485422,110 Z" id="路径" fill="#FFFFFF"></path>
            <path d="M276.97479,129 L193.781513,129 C191.512605,129 190,127.6 190,125.5 C190,123.4 191.512605,122 193.781513,122 L276.218487,122 C278.487395,122 280,123.4 280,125.5 C280,127.6 278.487395,129 276.97479,129 Z" id="路径" fill="#FFFFFF"></path>
            <path d="M256.5,72 C258.9855,72 261,69.985275 261,67.5 C261,65.014725 258.9855,63 256.5,63 C254.0145,63 252,65.014725 252,67.5 C252,69.985275 254.0145,72 256.5,72 Z" id="路径" fill="#b78b49"></path>
            <path d="M157.5,9 C159.98475,9 162,6.9852825 162,4.5 C162,2.0147175 159.98475,0 157.5,0 C155.0145,0 153,2.0147175 153,4.5 C153,6.9852825 155.0145,9 157.5,9 Z" id="路径" fill="#b78b49"></path>
            <path d="M155.406667,148.705882 C156.18,150.235294 157.726667,151 158.5,151 C160.046667,151 161.593333,150.235294 161.593333,148.705882 L172.42,126.529412 C173.193333,125.764706 173.193333,124.235294 172.42,123.470588 L161.593333,101.294118 C160.82,99.7647059 159.273333,99 158.5,99 C156.953333,99 155.406667,99.7647059 155.406667,101.294118 L144.58,123.470588 C143.806667,124.235294 143.806667,125.764706 144.58,126.529412 L155.406667,148.705882 Z M158.5,112 L164.686667,125 L158.5,138 L151.54,125 L158.5,112 Z" id="形状" fill="#b78b49"></path>
            <path d="M185.731864,241.344538 L161.538413,226.554622 C160.026323,225.815126 159.270277,225.815126 157.758187,226.554622 L132.808691,240.605042 C131.2966,241.344538 130.540555,242.823529 131.2966,245.042017 C132.052646,246.521008 133.564736,248 135.076827,248 L184.219773,248 C185.731864,248 187.243955,246.521008 188,245.042017 C188,243.563025 187.243955,242.084034 185.731864,241.344538 Z M148.685643,240.605042 L159.270277,234.689076 L169.854912,240.605042 L148.685643,240.605042 Z" id="形状" fill="#b78b49"></path>
            <path d="M273.356362,159.065953 L250.518959,159.065953 L65.535836,159.065953 C39.6534451,159.065953 18.3385349,149.890539 6.9198635,134.598181 C5.39736992,133.068946 3.11362954,132.304328 1.59113596,133.833563 C0.0686407597,135.362799 -0.692604414,137.656653 0.829887646,139.185888 C13.7710542,156.007481 36.6084579,165.947514 64.0133424,166.712132 L155.36311,220.235382 C156.124356,220.235382 156.885603,221 157.64685,221 C158.408097,221 159.169344,221 159.93059,220.235382 L251.280205,166.712132 L273.356362,166.712132 C284.013817,166.712132 292.387532,175.122928 292.387532,185.827578 C292.387532,196.532228 284.013817,204.943025 273.356362,204.943025 C265.743894,204.943025 258.892673,200.355318 255.847686,193.473757 C259.65392,192.709139 261.93766,189.650668 261.93766,185.827578 C261.93766,181.239871 258.131426,178.1814 254.325193,178.1814 C249.757712,178.1814 246.712725,182.004489 246.712725,185.827578 C246.712725,200.355318 258.892673,212.589203 273.356362,212.589203 C287.820051,212.589203 300,200.355318 300,185.827578 C300,171.299839 287.820051,159.065953 273.356362,159.065953 Z M157.64685,212.589203 L110.449549,185.06296 L205.605398,185.06296 L157.64685,212.589203 Z M218.546593,176.652164 L96.7471067,176.652164 L79.2384305,165.947514 L236.05527,165.947514 L218.546593,176.652164 Z" id="形状" fill="#b78b49"></path>
        </g>
    </g>
</svg>