<svg width="32" height="32" viewBox="0 0 32 32" fill="none" xmlns="http://www.w3.org/2000/svg">
<path fill-rule="evenodd" clip-rule="evenodd" d="M16 32C24.8366 32 32 24.8366 32 16C32 7.16344 24.8366 0 16 0C7.16344 0 0 7.16344 0 16C0 24.8366 7.16344 32 16 32ZM22.6972 14.6799C22.4667 15.5337 21.9911 16.2982 21.3308 16.8768L21.3322 16.8772C22.0869 17.8224 22.4623 19.2053 22.12 20.5307C21.5658 22.677 19.4892 24.0081 17.4935 23.4733L16.1234 23.1062L15.3408 26.1366C15.2919 26.3257 15.1348 26.4184 14.9466 26.368L13.8255 26.0676C13.6373 26.0172 13.5453 25.8577 13.5942 25.6686L14.3768 22.6382L12.6938 22.1872L11.9112 25.2176C11.8624 25.4068 11.7053 25.4995 11.5184 25.4494L10.4583 25.1654C10.2714 25.1153 10.1794 24.9558 10.2283 24.7667L11.0109 21.7363L7.76956 20.8678C7.58133 20.8173 7.44334 20.5781 7.55446 20.4057L8.01983 19.3829C8.05239 19.2569 8.20951 19.1641 8.33407 19.1975C9.34683 19.4015 9.96363 18.8237 10.1916 17.9411L11.8703 11.4404C12.1312 10.4302 11.7024 9.50641 10.5502 9.06288C10.4257 9.0295 10.3337 8.87004 10.3825 8.6809L10.6597 7.60771C10.7085 7.41858 10.8656 7.32586 11.0525 7.37592L14.482 8.29487L15.2642 5.26585C15.3135 5.07531 15.4706 4.9826 15.6574 5.03266L16.7176 5.31672C16.9044 5.36679 16.9964 5.52625 16.9472 5.71679L16.165 8.74581L17.8479 9.19675L18.6301 6.16774C18.6793 5.9772 18.8365 5.88448 19.0247 5.93491L20.0834 6.21861C20.2717 6.26904 20.3637 6.42851 20.3144 6.61905L19.5322 9.64806L20.0927 9.79825C22.0885 10.333 23.2515 12.5336 22.6972 14.6799ZM18.1478 11.909L15.5916 11.2241L14.6791 14.7575L17.2353 15.4424C17.4646 15.5041 17.7035 15.5193 17.9384 15.4873C18.1732 15.4553 18.3994 15.3766 18.6039 15.2558C18.8085 15.135 18.9873 14.9744 19.1303 14.7833C19.2733 14.5922 19.3775 14.3742 19.4371 14.142C19.6976 13.1332 19.0834 12.1597 18.1478 11.909ZM13.3918 19.7423L16.759 20.6446L16.7583 20.6474C17.7548 20.9144 18.6979 20.3567 18.9425 19.4096C19.2033 18.3995 18.5891 17.426 17.6549 17.1756L14.2876 16.2734L13.3918 19.7423Z" fill="url(#paint0_linear)"/>
<defs>
<linearGradient id="paint0_linear" x1="16" y1="0" x2="16" y2="32" gradientUnits="userSpaceOnUse">
<stop stop-color="#FFC42D"/>
<stop offset="1" stop-color="#FFCF55" stop-opacity="0.3"/>
</linearGradient>
</defs>
</svg>
