<svg width="32" height="32" viewBox="0 0 32 32" fill="none" xmlns="http://www.w3.org/2000/svg">
<path fill-rule="evenodd" clip-rule="evenodd" d="M16 32C24.8366 32 32 24.8366 32 16C32 7.16344 24.8366 0 16 0C7.16344 0 0 7.16344 0 16C0 24.8366 7.16344 32 16 32ZM22.995 20.261V15.9119C22.995 15.5399 22.9946 15.1676 22.9943 14.7951C22.9934 13.6764 22.9925 12.5557 22.9999 11.435C23.0049 10.8453 22.7668 10.403 22.261 10.1131C21.4023 9.6223 20.5444 9.13084 19.6866 8.63947C18.2853 7.83678 16.8845 7.03437 15.4818 6.23573C14.7627 5.82785 14.3363 6.07847 14.3263 6.90407C14.3189 7.43725 14.3201 7.97044 14.3214 8.50363V8.5038C14.3226 9.03695 14.3239 9.57009 14.3164 10.1032C14.3115 10.4472 14.4602 10.6291 14.7528 10.8011C15.3039 11.1202 15.8484 11.4511 16.3927 11.782L16.3929 11.7821L16.3929 11.7821C17.4161 12.4041 18.4388 13.0257 19.5037 13.5678C20.8675 14.2607 21.4179 15.1895 21.294 16.7129C21.2045 17.8438 21.2286 18.985 21.2528 20.1253L21.2528 20.1255C21.2621 20.5658 21.2714 21.0059 21.2741 21.4453C21.2741 21.4777 21.2678 21.5157 21.2613 21.5552C21.237 21.7018 21.2091 21.8708 21.4824 21.863C22.1618 21.8384 22.995 20.9539 22.995 20.261ZM18.0655 23.8189C18.0655 23.5082 18.0647 23.202 18.0639 22.899C18.0619 22.1525 18.0599 21.4254 18.0705 20.6983C18.0804 19.9219 17.7829 19.3764 17.0836 18.9784C15.8835 18.2969 14.6966 17.5936 13.5097 16.8903C12.9163 16.5387 12.3228 16.1871 11.7277 15.8382C11.3756 15.6318 11.1822 15.386 11.2021 14.929C11.2302 14.2576 11.2248 13.5862 11.2195 12.9147C11.2164 12.5198 11.2133 12.1248 11.2169 11.7298C11.2268 10.8355 11.6781 10.575 12.4617 11.0222C13.5551 11.6462 14.646 12.2752 15.7369 12.9042L15.7372 12.9043L15.7375 12.9045C16.8284 13.5335 17.9193 14.1624 19.0127 14.7865C19.6525 15.1502 19.9351 15.6612 19.9203 16.4033C19.8905 18.2805 19.8856 20.1578 19.9252 22.035C19.9401 22.6788 19.7467 23.0965 19.1218 23.3127C18.9845 23.3588 18.8619 23.4374 18.733 23.5201C18.5456 23.6405 18.3447 23.7694 18.0655 23.8189ZM16.6841 23.0515C16.683 22.8883 16.6819 22.7248 16.6819 22.5608C16.6819 22.446 16.679 22.3312 16.676 22.2163C16.6696 21.9675 16.6631 21.7187 16.6869 21.4699C16.7811 20.6001 16.4389 20.0398 15.6603 19.6074C14.0676 18.7277 12.4938 17.8161 10.9189 16.9039C10.3558 16.5777 9.79257 16.2515 9.2283 15.9266C8.48938 15.504 8.02322 15.7399 8.00835 16.5802C7.98851 17.5188 7.99347 18.4525 8.00835 19.3912C8.01826 19.9809 8.26126 20.4526 8.78198 20.7721C9.59793 21.2649 10.4078 21.7608 11.2187 22.2573C11.4428 22.3945 11.667 22.5317 11.8914 22.669C12.162 22.8349 12.4323 23.0012 12.7025 23.1674C13.5763 23.7049 14.4493 24.2418 15.3281 24.7673C16.067 25.2096 16.6621 24.8755 16.6819 24.0302C16.6885 23.7028 16.6863 23.3775 16.6841 23.0515Z" fill="url(#paint0_linear)"/>
<defs>
<linearGradient id="paint0_linear" x1="16" y1="0" x2="16" y2="32" gradientUnits="userSpaceOnUse">
<stop stop-color="#00D393"/>
<stop offset="1" stop-color="#00D393" stop-opacity="0.6"/>
</linearGradient>
</defs>
</svg>
