<svg width="32" height="32" viewBox="0 0 32 32" fill="none" xmlns="http://www.w3.org/2000/svg">
<path fill-rule="evenodd" clip-rule="evenodd" d="M16 32C24.8366 32 32 24.8366 32 16C32 7.16344 24.8366 0 16 0C7.16344 0 0 7.16344 0 16C0 24.8366 7.16344 32 16 32ZM24.0054 17.0036C24.2807 17.0054 24.5572 17.0072 24.8302 17.0018C24.946 17.0018 24.9923 17.0259 24.9923 17.1546C24.9846 17.6775 24.9846 18.1923 24.9923 18.7071C24.9923 18.8358 24.9537 18.8599 24.8379 18.8599H23.1784C23.078 18.8599 23.0163 18.868 22.97 18.9806C21.9588 21.5225 20.1218 23.0428 17.5901 23.7104C16.8182 23.9115 16.0386 23.992 15.2436 23.992C14.2672 23.996 13.2888 23.996 12.3105 23.996C11.3321 23.996 10.3538 23.996 9.37736 24C9.19983 24 9.15352 23.9517 9.15352 23.7667C9.15738 22.9824 9.15738 22.1981 9.15738 21.4138C9.15738 20.6295 9.15738 19.8453 9.16123 19.061C9.16123 18.9162 9.13808 18.8599 8.97599 18.8599C8.67882 18.864 8.38358 18.864 8.08834 18.864C7.7931 18.864 7.49786 18.864 7.20069 18.868C7.06175 18.868 7.00772 18.8438 7.00772 18.6749C7.01544 18.1762 7.01544 17.6855 7.00772 17.1868C7.00772 17.034 7.05403 17.0018 7.19297 17.0018C7.49014 17.0058 7.78924 17.0058 8.08834 17.0058C8.38744 17.0058 8.68653 17.0058 8.98371 17.0098C9.13036 17.0098 9.16123 16.9616 9.16123 16.8168C9.15352 16.2778 9.15352 15.7469 9.16123 15.208C9.16123 15.0793 9.12264 15.0471 9.00686 15.0471C8.69812 15.0511 8.39131 15.0511 8.08547 15.0511C7.77961 15.0511 7.47471 15.0511 7.16981 15.0552C7.03859 15.0552 7 15.023 7 14.8782C7.00772 14.3795 7.01544 13.8727 7.00772 13.3659C7 13.2051 7.06175 13.189 7.19297 13.189C7.44089 13.1924 7.69024 13.1914 7.94039 13.1905C8.27433 13.1891 8.60972 13.1878 8.94511 13.197C9.13036 13.2051 9.16123 13.1407 9.16123 12.9637C9.15738 12.1795 9.15738 11.3932 9.15738 10.6059C9.15738 9.81862 9.15738 9.03029 9.15352 8.24196C9.1458 8.04891 9.20755 8.00869 9.38508 8.00869C10.1155 8.01405 10.8425 8.01226 11.5706 8.01048C11.9351 8.00958 12.2999 8.00869 12.6655 8.00869C12.9738 8.00869 13.2813 8.00651 13.5886 8.00434C14.3047 7.99927 15.0192 7.99422 15.7376 8.01673C17.5129 8.08108 19.1569 8.58785 20.6003 9.70595C21.6964 10.5586 22.4991 11.6526 22.9931 12.9879C23.0472 13.1407 23.1166 13.189 23.271 13.189C23.571 13.1798 23.8735 13.1811 24.1756 13.1824C24.4021 13.1834 24.6284 13.1844 24.8533 13.1809C24.9691 13.1809 25 13.2211 25 13.3418C24.9923 13.8566 24.9923 14.3714 25 14.8862C25 15.031 24.946 15.0471 24.8302 15.0471C24.6961 15.0471 24.5629 15.048 24.43 15.0489C24.165 15.0507 23.9011 15.0525 23.6338 15.0471C23.518 15.0471 23.4717 15.0793 23.4871 15.208C23.5489 15.763 23.518 16.3181 23.4717 16.8731C23.4563 16.9937 23.5026 17.0018 23.5952 17.0018C23.7313 17.0018 23.8682 17.0027 24.0054 17.0036ZM11.1063 9.67378C10.9211 9.66574 10.8979 9.73009 10.8979 9.89901C10.8979 10.1545 10.8984 10.4101 10.8989 10.6655C10.9004 11.4311 10.9018 12.1957 10.8902 12.9557C10.8902 13.1488 10.9365 13.197 11.1218 13.197C14.3868 13.189 17.6518 13.189 20.9168 13.189H21.1252C20.7702 12.3685 20.2607 11.6928 19.6124 11.1458C18.4777 10.1886 17.1655 9.714 15.7144 9.68987C14.7544 9.67478 13.7944 9.67541 12.8344 9.67604C12.2584 9.67642 11.6824 9.6768 11.1063 9.67378ZM16.8491 22.174C18.0146 21.9488 19.0412 21.4259 19.9134 20.5894C20.4151 20.1067 20.8087 19.5437 21.1175 18.868C21.0823 18.868 21.0602 18.8646 21.0448 18.8622C21.0366 18.8609 21.0302 18.8599 21.0249 18.8599C19.9157 18.8599 18.8073 18.8608 17.6993 18.8617C15.484 18.8635 13.2699 18.8653 11.0523 18.8599C10.9134 18.8599 10.8979 18.9162 10.8979 19.0369C10.9057 20.0665 10.9057 21.1042 10.8979 22.1338C10.8902 22.3027 10.9443 22.3269 11.0909 22.3269H15.2744C15.807 22.3188 16.3319 22.2706 16.8491 22.174ZM21.4494 17.0098C21.6192 17.0098 21.6578 16.9455 21.6732 16.7846C21.7196 16.2778 21.7196 15.7711 21.6732 15.2643C21.6655 15.1034 21.6269 15.0552 21.4648 15.0552H16.2779C15.7015 15.0552 15.1252 15.0561 14.5489 15.0569C13.3962 15.0587 12.2436 15.0605 11.0909 15.0552C10.9443 15.0552 10.8902 15.0793 10.8902 15.2482C10.8979 15.7711 10.8979 16.2939 10.8902 16.8168C10.8902 16.9857 10.952 17.0098 11.0909 17.0098C14.5412 17.0018 17.9991 17.0018 21.4494 17.0098Z" fill="url(#paint0_linear)"/>
<defs>
<linearGradient id="paint0_linear" x1="16" y1="0" x2="16" y2="32" gradientUnits="userSpaceOnUse">
<stop stop-color="#F8A507"/>
<stop offset="1" stop-color="#F8A507" stop-opacity="0.3"/>
</linearGradient>
</defs>
</svg>
