<svg width="32" height="32" viewBox="0 0 32 32" fill="none" xmlns="http://www.w3.org/2000/svg">
<path d="M16 0C7.15556 0 0 7.15556 0 16C0 24.8444 7.15556 32 16 32C24.8444 32 32 24.8444 32 16C32 7.15556 24.8444 0 16 0ZM12.8444 26.9778C12.4889 27.7333 11.8222 27.2 11.3333 27.0222C6.97778 25.3778 3.95556 20.7556 4 15.8222C4 11.0667 7.15556 6.4 11.3778 4.88889C11.6444 4.8 11.9556 4.71111 12 4.66667C12.5333 4.57778 12.8444 4.66667 12.8889 5.02222C12.9778 5.51111 13.1111 6.08889 12.5778 6.44444C12.0889 6.8 11.5556 6.97778 11.0222 7.28889C7.73333 9.33333 6 12.2667 6.04444 16.1333C6.08889 19.9111 7.86667 22.7556 11.1111 24.6667C11.4222 24.8444 11.7778 25.0222 12.0889 25.1556C12.9778 25.5556 13.1556 26.3111 12.8444 26.9778ZM16.8889 23.3333C16.9333 23.9111 16.3556 23.9556 15.9111 23.9556C15.5556 23.9556 15.0667 23.9111 15.0667 23.4222C15.2 22.0444 14.1778 21.7333 13.2444 21.3778C12.8444 21.2 12.4889 20.8889 12.2222 20.5333C11.7778 19.9111 10.9778 19.0667 11.7778 18.4C12.6222 17.6889 13.3333 18.3111 13.8222 19.2444C14.4 20.4444 15.6 20.4444 16.7556 20.2222C17.6444 20.0444 18.2222 19.5111 18.2222 18.5333C18.2667 17.6 17.6889 17.2 16.8889 17.0222C15.9111 16.7556 14.8889 16.5778 13.8667 16.3111C12.5778 15.9556 11.8667 15.0667 11.7333 13.7778C11.6 12.4889 12.0444 11.4222 13.1556 10.7556C14.0444 10.1778 15.1556 10.0444 15.1556 8.48889C15.1556 7.73333 16.6667 7.86667 16.6667 8.26667C16.5333 10.1778 18.3556 10.3111 19.1556 11.2889C19.4667 11.6889 19.6889 12.1778 19.8222 12.4444C19.9111 12.9778 19.7333 13.2444 19.4222 13.3333C18.8 13.5111 18.1778 13.5111 17.8667 12.8889C17.2889 11.7333 16.3111 11.6444 15.2444 11.7778C14.4 11.8667 13.8667 12.3111 13.7778 13.1556C13.7333 13.9556 14.1778 14.4 14.8889 14.5778C15.8222 14.8 16.7556 14.9778 17.6889 15.2C19.0667 15.5556 20.1333 16.3111 20.3111 17.8667C20.4889 19.4222 19.8667 20.6222 18.5333 21.3778C17.6889 21.8222 16.7556 22.0444 16.8889 23.3333ZM20.9333 26.8889C20.4 27.1556 19.5556 27.9556 19.0667 26.8889C18.6667 26 19.2444 25.5111 20.0889 25.0222C25.1556 22.2222 27.1556 17.4222 25.3333 12.5778C24.4 10.0444 22.6667 8.13333 20.2222 7.02222C19.2444 6.57778 18.6222 5.95556 19.1111 5.02222C19.6 4.17778 20.4444 4.88889 21.0667 5.2C25.5111 7.42222 27.7333 11.0667 28 16C27.7778 20.9778 25.5111 24.6667 20.9333 26.8889Z" fill="url(#paint0_linear)"/>
<defs>
<linearGradient id="paint0_linear" x1="16" y1="0" x2="16" y2="32" gradientUnits="userSpaceOnUse">
<stop stop-color="#1B95F1"/>
<stop offset="1" stop-color="#1B95F1" stop-opacity="0.3"/>
</linearGradient>
</defs>
</svg>
