<svg width="32" height="32" viewBox="0 0 32 32" fill="none" xmlns="http://www.w3.org/2000/svg">
<path fill-rule="evenodd" clip-rule="evenodd" d="M16 32C24.8366 32 32 24.8366 32 16C32 7.16344 24.8366 0 16 0C7.16344 0 0 7.16344 0 16C0 24.8366 7.16344 32 16 32ZM22.8804 8V11.249H17.8189V13.3731C21.9175 13.5549 25 14.3396 25 15.2797C25 16.2197 21.9175 17.0041 17.8189 17.1861V24H14.2127V17.1877C10.0982 17.0084 7 16.2226 7 15.2797C7 14.3368 10.0982 13.551 14.2127 13.3717V11.249H9.15116V8H22.8804ZM17.8189 16.3725C21.0542 16.228 23.4499 15.7079 23.4499 15.0878C23.4499 14.4677 21.0539 13.9473 17.8158 13.8032V15.7664C17.2419 15.7962 16.6294 15.8121 15.9968 15.8121C15.3742 15.8121 14.7738 15.7965 14.2094 15.768V13.7974C10.9584 13.9412 8.54687 14.4616 8.54687 15.0848C8.54687 15.7079 10.958 16.2299 14.2094 16.3721L14.4236 16.3811H14.4264C14.6416 16.3891 14.8599 16.3957 15.0816 16.4005H15.1021L15.2892 16.4043H15.3436L15.5001 16.4064H16.502L16.6602 16.4043H16.7168L16.9173 16.4003H16.9266C17.076 16.397 17.2236 16.3929 17.3694 16.388H17.3907L17.5867 16.3811H17.6098L17.8189 16.3725Z" fill="url(#paint0_linear)"/>
<defs>
<linearGradient id="paint0_linear" x1="16" y1="0" x2="16" y2="32" gradientUnits="userSpaceOnUse">
<stop stop-color="#36C95A"/>
<stop offset="1" stop-color="#36C95A" stop-opacity="0.3"/>
</linearGradient>
</defs>
</svg>
