<?xml version="1.0" encoding="utf-8"?>
<!-- Generator: Adobe Illustrator 21.0.0, SVG Export Plug-In . SVG Version: 6.00 Build 0)  -->
<svg version="1.1" id="icon" xmlns="http://www.w3.org/2000/svg" xmlns:xlink="http://www.w3.org/1999/xlink" x="0px" y="0px"
	 viewBox="0 0 44 32" style="enable-background:new 0 0 44 32;" xml:space="preserve">
<style type="text/css">
	.st0{fill:#FFFFFF;}
</style>
<path class="st0" d="M21,0.5v6.9c0,0.1,0,0.2-0.1,0.3l-7.5,8.5c-0.2,0.2-0.5,0.2-0.7,0L11,14.3c-0.1-0.2-0.2-0.3,0-0.5l9.2-13.5
	C20.5-0.1,21,0.1,21,0.5z M23,0.5v6.9c0,0.1,0,0.2,0.1,0.3l7.5,8.5c0.2,0.2,0.5,0.2,0.7,0l1.7-1.9c0.1-0.2,0.1-0.3,0-0.5
	S23.9,0.2,23.9,0.2C23.6-0.1,23,0.1,23,0.5z M0.4,4l7.5,10c0.2,0.2,0.5,0.2,0.7,0l1.1-1.4c0.1-0.2,0.1-0.4,0-0.6L1,3.5
	C0.6,3.1,0,3.6,0.4,4z M43.1,3.5l-8.6,8.6c-0.2,0.2-0.2,0.4,0,0.6l1.1,1.4c0.2,0.2,0.5,0.2,0.7,0l7.5-10C44.1,3.6,43.5,3.1,43.1,3.5
	z M9.4,15.9L0.3,28C0,28.4,0.6,29,1,28.6L11.6,18c0.2-0.2,0.2-0.4,0-0.6l-1.4-1.6C9.9,15.6,9.6,15.7,9.4,15.9z M34,15.8l-1.4,1.6
	c-0.2,0.2-0.2,0.4,0,0.6l10.5,10.5c0.4,0.4,1-0.1,0.7-0.6c0,0-9-11.9-9.1-12.1S34.2,15.6,34,15.8z M14.4,17.6l-2,2
	c-0.1,0.1-0.2,0.4-0.1,0.6l7.8,11.6c0.2,0.4,0.8,0.2,0.8-0.2v-6.9c0-0.1,0-0.2-0.1-0.3c0,0-5.8-6.6-5.9-6.8
	C14.8,17.4,14.6,17.4,14.4,17.6z M29,17.6l-5.9,6.8C23,24.5,23,24.6,23,24.7v6.9c0,0.4,0.6,0.6,0.8,0.2l7.8-11.6
	c0.1-0.2,0.1-0.4-0.1-0.6c0,0-1.9-1.9-2-2C29.4,17.5,29.2,17.4,29,17.6z M16.8,14.8c-0.1,0.1-0.8,0.9-0.8,0.9
	c-0.1,0.2-0.1,0.4,0,0.6l0.8,0.9c0.1,0.1,0.2,0.2,0.3,0.2h10c0.1,0,0.2-0.1,0.3-0.2l0.8-0.9c0.1-0.2,0.1-0.4,0-0.6l-0.8-0.9
	c-0.1-0.1-0.2-0.1-0.3-0.1h-9.9C17,14.7,16.9,14.7,16.8,14.8z"/>
</svg>
