<svg width="142" height="33" viewBox="0 0 142 33" fill="none" xmlns="http://www.w3.org/2000/svg">
<path d="M60.443 22.2867H61.6406C61.9067 22.2867 62.1396 22.0538 62.1396 21.7877C62.1396 21.5216 61.9067 21.2887 61.6406 21.2887H59.8775L56.3514 15.1679C56.1851 14.8685 55.6528 14.8685 55.4865 15.1679L51.9604 21.2887H50.164C49.8979 21.2887 49.6651 21.5216 49.6651 21.7877C49.6651 22.0538 49.8979 22.2867 50.164 22.2867H51.3616L49.4655 25.6132C49.3657 25.7795 49.3657 25.9459 49.4655 26.1122C49.5653 26.2785 49.7316 26.3783 49.8979 26.3783H61.94C62.1063 26.3783 62.2726 26.2785 62.3724 26.1122C62.4722 25.9459 62.4722 25.7795 62.3724 25.6132L60.443 22.2867ZM55.9189 16.432L58.7132 21.2887H53.1247L55.9189 16.432ZM50.7628 25.3471L52.5591 22.2867H59.312L61.0751 25.3471H50.7628Z" fill="#212038"/>
<path d="M87.4547 22.2867H88.6523C88.9184 22.2867 89.1513 22.0538 89.1513 21.7877C89.1513 21.5216 88.9184 21.2887 88.6523 21.2887H86.8892L83.3631 15.1679C83.1968 14.8685 82.6645 14.8685 82.4982 15.1679L78.9388 21.2887H77.1758C76.9096 21.2887 76.6768 21.5216 76.6768 21.7877C76.6768 22.0538 76.9096 22.2867 77.1758 22.2867H78.3733L76.4772 25.6132C76.3774 25.7795 76.3774 25.9459 76.4772 26.1122C76.577 26.2785 76.7433 26.3783 76.9096 26.3783H88.9517C89.118 26.3783 89.2843 26.2785 89.3841 26.1122C89.4839 25.9459 89.4839 25.7795 89.3841 25.6132L87.4547 22.2867ZM82.8974 16.432L85.6917 21.2887H80.1031L82.8974 16.432ZM77.7745 25.3471L79.5376 22.2867H86.2905L88.0535 25.3471H77.7745Z" fill="#212038"/>
<path d="M74.0817 23.2519C73.8156 23.2519 73.5828 23.4847 73.5828 23.7509V25.3143H65.9983V15.9335H67.1958C67.4619 15.9335 67.6948 15.7006 67.6948 15.4345C67.6948 15.1684 67.4619 14.9355 67.1958 14.9355H63.7695C63.5034 14.9355 63.2705 15.1684 63.2705 15.4345C63.2705 15.7006 63.5034 15.9335 63.7695 15.9335H65.0003V25.8466C65.0003 26.1127 65.2332 26.3455 65.4993 26.3455H74.0817C74.3479 26.3455 74.5807 26.1127 74.5807 25.8466V23.7841C74.5807 23.4847 74.3811 23.2519 74.0817 23.2519Z" fill="#212038"/>
<path d="M98.4651 14.9355H92.0117C91.7456 14.9355 91.5127 15.1684 91.5127 15.4345C91.5127 15.7006 91.7456 15.9335 92.0117 15.9335H93.1094V25.3476H92.0117C91.7456 25.3476 91.5127 25.5804 91.5127 25.8466C91.5127 26.1127 91.7456 26.3455 92.0117 26.3455H98.4651C101.625 26.3455 104.187 23.7841 104.187 20.6239C104.187 17.4637 101.592 14.9355 98.4651 14.9355ZM98.4651 25.3476H94.0741V15.9335H98.4651C101.06 15.9335 103.189 18.0292 103.189 20.6572C103.189 23.2851 101.06 25.3476 98.4651 25.3476Z" fill="#212038"/>
<path d="M123.514 15.9335C123.781 15.9335 124.013 15.7006 124.013 15.4345C124.013 15.1684 123.781 14.9355 123.514 14.9355H119.955C119.689 14.9355 119.456 15.1684 119.456 15.4345C119.456 15.7006 119.689 15.9335 119.955 15.9335H121.186V25.3476H119.955C119.689 25.3476 119.456 25.5804 119.456 25.8466C119.456 26.1127 119.689 26.3455 119.955 26.3455H123.514C123.781 26.3455 124.013 26.1127 124.013 25.8466C124.013 25.5804 123.781 25.3476 123.514 25.3476H122.217V15.9335H123.514Z" fill="#212038"/>
<path d="M112.271 14.9355H105.817C105.551 14.9355 105.318 15.1684 105.318 15.4345C105.318 15.7006 105.551 15.9335 105.817 15.9335H106.915V25.3476H105.817C105.551 25.3476 105.318 25.5804 105.318 25.8466C105.318 26.1127 105.551 26.3455 105.817 26.3455H112.271C115.431 26.3455 117.992 23.7841 117.992 20.6239C117.992 17.4637 115.431 14.9355 112.271 14.9355ZM112.271 25.3476H107.88V15.9335H112.271C114.866 15.9335 116.994 18.0292 116.994 20.6572C116.994 23.2851 114.866 25.3476 112.271 25.3476Z" fill="#212038"/>
<path d="M140.547 25.3477H139.249V15.9336H140.547C140.813 15.9336 141.046 15.7007 141.046 15.4346C141.046 15.1685 140.813 14.9356 140.547 14.9356H136.987C136.721 14.9356 136.488 15.1685 136.488 15.4346C136.488 15.7007 136.721 15.9336 136.987 15.9336H138.218V24.5493L129.735 15.0687C129.702 15.0354 129.669 15.0021 129.602 14.9689L129.569 14.9356C129.502 14.9023 129.436 14.9023 129.369 14.9023H127.64C127.373 14.9023 127.141 15.1352 127.141 15.4013C127.141 15.6674 127.373 15.9003 127.64 15.9003H128.87V25.3144H127.64C127.373 25.3144 127.141 25.5472 127.141 25.8134C127.141 26.0795 127.373 26.3123 127.64 26.3123H131.166C131.432 26.3123 131.665 26.0795 131.665 25.8134C131.665 25.5472 131.432 25.3144 131.166 25.3144H129.868V16.7319L138.384 26.1793C138.418 26.2126 138.451 26.2458 138.517 26.2791L138.551 26.3123C138.617 26.3456 138.684 26.3456 138.75 26.3456H140.547C140.813 26.3456 141.046 26.1128 141.046 25.8466C141.046 25.5472 140.813 25.3477 140.547 25.3477Z" fill="#212038"/>
<path d="M7.51864 9.31461C7.83096 9.31461 8.08415 9.06143 8.08415 8.7491C8.08415 8.43678 7.83096 8.18359 7.51864 8.18359C7.20631 8.18359 6.95312 8.43678 6.95312 8.7491C6.95312 9.06143 7.20631 9.31461 7.51864 9.31461Z" fill="#b78b49"/>
<path d="M20.6904 11.9068C20.4243 11.9068 20.1914 11.6739 20.1914 11.4078V3.75679C20.1914 3.49067 20.4243 3.25781 20.6904 3.25781C20.9565 3.25781 21.1894 3.49067 21.1894 3.75679V11.3745C21.1894 11.6739 20.9565 11.9068 20.6904 11.9068Z" fill="#B3B3BC"/>
<path d="M18.2288 12.5735C18.0625 12.5735 17.8962 12.4737 17.7964 12.3074L12.3741 2.92654C12.2411 2.69369 12.3076 2.3943 12.5737 2.22797C12.8066 2.09491 13.106 2.16144 13.2723 2.3943L18.6946 11.7751C18.8276 12.008 18.7611 12.3074 18.495 12.4737C18.3952 12.5402 18.3286 12.5735 18.2288 12.5735Z" fill="#B3B3BC"/>
<path d="M16.4322 14.3688C16.3324 14.3688 16.2658 14.3355 16.166 14.3022L9.5795 10.51C9.34665 10.3769 9.24685 10.0775 9.37991 9.81142C9.51297 9.57856 9.81236 9.47877 10.0785 9.64509L16.6983 13.4706C16.9311 13.6037 17.0309 13.903 16.8979 14.1692C16.7648 14.3022 16.5985 14.3688 16.4322 14.3688Z" fill="#B3B3BC"/>
<path d="M15.8006 16.8651H4.8896C4.62348 16.8651 4.39062 16.6323 4.39062 16.3662C4.39062 16.1 4.62348 15.8672 4.8896 15.8672H15.8006C16.0667 15.8672 16.2996 16.1 16.2996 16.3662C16.2996 16.6323 16.0667 16.8651 15.8006 16.8651Z" fill="#B3B3BC"/>
<path d="M22.9189 12.5745C22.8191 12.5745 22.7525 12.5413 22.6527 12.508C22.4199 12.3749 22.3201 12.0755 22.4532 11.8094L27.9087 2.42861C28.0417 2.19575 28.3411 2.09595 28.6072 2.26228C28.8401 2.39534 28.9399 2.69473 28.8068 2.96085L23.3513 12.3084C23.2515 12.4747 23.0852 12.5745 22.9189 12.5745Z" fill="#B3B3BC"/>
<path d="M24.6826 14.3696C24.5162 14.3696 24.3499 14.2698 24.2501 14.1035C24.1171 13.8706 24.1836 13.5712 24.4497 13.4049L31.0362 9.64594C31.2691 9.51288 31.5685 9.57941 31.7348 9.81227C31.8679 10.0451 31.8013 10.3445 31.5352 10.5108L24.9487 14.3031C24.8822 14.3696 24.7824 14.3696 24.6826 14.3696Z" fill="#B3B3BC"/>
<path d="M36.2586 16.8651H25.3476C25.0815 16.8651 24.8486 16.6323 24.8486 16.3662C24.8486 16.1 25.0815 15.8672 25.3476 15.8672H36.2586C36.5248 15.8672 36.7576 16.1 36.7576 16.3662C36.7576 16.6323 36.5248 16.8651 36.2586 16.8651Z" fill="#B3B3BC"/>
<path d="M33.5977 9.31461C33.9101 9.31461 34.1632 9.06143 34.1632 8.7491C34.1632 8.43678 33.9101 8.18359 33.5977 8.18359C33.2854 8.18359 33.0322 8.43678 33.0322 8.7491C33.0322 9.06143 33.2854 9.31461 33.5977 9.31461Z" fill="#b78b49"/>
<path d="M20.7247 1.13102C21.037 1.13102 21.2902 0.877833 21.2902 0.56551C21.2902 0.253188 21.037 0 20.7247 0C20.4124 0 20.1592 0.253188 20.1592 0.56551C20.1592 0.877833 20.4124 1.13102 20.7247 1.13102Z" fill="#b78b49"/>
<path d="M20.2927 19.4613C20.3925 19.6276 20.5589 19.7274 20.7252 19.7274C20.9248 19.7274 21.0911 19.6276 21.1576 19.428L22.5215 16.5672C22.5881 16.4341 22.5881 16.2678 22.5215 16.1348L21.1909 13.3072C21.1244 13.1409 20.9248 13.0411 20.7585 13.0078C20.5589 13.0078 20.3925 13.1076 20.326 13.2739L18.8956 16.1348C18.8291 16.2678 18.8291 16.4341 18.8956 16.5672L20.2927 19.4613ZM20.7252 14.6378L21.5568 16.3676L20.7252 18.0974L19.8603 16.3676L20.7252 14.6378Z" fill="#b78b49"/>
<path d="M24.251 31.6702L20.9577 29.7409C20.7914 29.6411 20.6251 29.6411 20.4588 29.7409L17.1655 31.6702C16.9659 31.77 16.8661 32.0029 16.9326 32.2358C16.9992 32.4686 17.1988 32.6017 17.4316 32.6017H24.0181C24.251 32.6017 24.4506 32.4354 24.5171 32.2358C24.5504 32.0029 24.4506 31.77 24.251 31.6702ZM19.2612 31.6037L20.6916 30.7721L22.122 31.6037H19.2612Z" fill="#b78b49"/>
<path d="M35.8602 20.7585H32.8331H8.54943C5.15637 20.7585 2.39535 19.5942 0.898415 17.5983C0.732089 17.3654 0.432701 17.3322 0.199844 17.4985C-0.0330134 17.6648 -0.0662787 17.9642 0.100048 18.1971C1.76331 20.4258 4.79045 21.7232 8.41637 21.7564L20.4584 28.7754C20.5249 28.8087 20.6247 28.842 20.7245 28.842C20.8243 28.842 20.8909 28.8087 20.9907 28.7754L32.9994 21.7564H35.8935C37.2906 21.7564 38.4217 22.8875 38.4217 24.2846C38.4217 25.6818 37.2906 26.8128 35.8935 26.8128C34.8623 26.8128 33.9641 26.1807 33.5649 25.2826C34.0307 25.1828 34.3966 24.7836 34.3966 24.3179C34.3966 23.7524 33.9309 23.3199 33.3986 23.3199C32.8331 23.3199 32.4007 23.7856 32.4007 24.3179V24.3511C32.4339 26.2805 33.9974 27.8107 35.9268 27.8107C37.8562 27.8107 39.4529 26.2473 39.4529 24.2846C39.3864 22.3552 37.7896 20.7585 35.8602 20.7585ZM20.6913 27.7775L14.4374 24.1183H26.9451L20.6913 27.7775ZM28.6749 23.1203H12.7409L10.4123 21.7564H31.0035L28.6749 23.1203Z" fill="#b78b49"/>
</svg>
