<svg width="36" height="20" viewBox="0 0 36 20" fill="none" xmlns="http://www.w3.org/2000/svg">
<path d="M34.4212 11.0813C34.4212 13.5647 31.3866 14.5238 30.2444 13.5647C29.1021 12.6056 27.7723 13.1879 27.7723 13.1879C27.7723 12.2288 28.9146 12.0404 28.9146 12.0404C28.9146 11.0813 29.8693 10.8929 29.8693 10.8929C29.6818 11.6636 29.4942 12.9995 31.3866 12.9995C33.279 12.9995 33.0915 11.2868 33.0915 11.2868C33.0915 11.2868 33.279 9.18019 30.2444 9.18019C27.4484 9.18019 28.6759 15.0205 23.3738 15.9283C23.0499 16.8189 22.9817 17.5725 23.5784 17.7609C25.8118 18.5145 26.4255 18.9084 26.4255 18.9084H15.4122C15.4122 18.6001 16.5374 18.4117 17.5603 17.9493C19.9982 18.0692 21.8565 17.6239 22.0441 17.5725C20.9529 17.8123 19.3504 17.6752 18.3104 17.5382C18.6173 17.3156 18.7878 17.0244 18.873 16.699C20.1176 16.5962 21.1064 16.2366 21.1064 16.2366C20.1517 16.2366 19.4697 16.1338 18.9583 16.0139C18.9583 15.9454 18.9583 15.8769 18.9583 15.8084C18.515 15.7227 18.1399 15.6029 17.799 15.4658C15.2417 14.4553 15.2247 12.1089 11.4058 9.53986C8.55871 7.63875 4.38184 6.86803 4.38184 6.86803L5.71162 5.90891C9.88849 6.28571 12.5481 7.24483 17.3046 9.53986C22.0611 11.8349 26.4255 10.3106 26.4255 10.3106C19.7766 10.3106 19.9641 9.74539 18.4468 9.16306C16.9295 8.58074 15.0371 7.26196 15.0371 7.26196L15.0712 7.24483C17.2705 7.72439 21.4985 7.26196 21.4985 7.26196C19.1799 7.26196 17.8501 6.76527 17.2705 6.49124L17.9013 6.28571C18.2422 5.17245 19.3674 4.33322 20.7484 4.23046C20.9018 4.02493 20.8848 3.78515 20.8336 3.63101C19.2822 3.47687 21.0382 1.5415 21.0382 1.5415C21.0382 1.5415 22.7601 3.45974 21.2769 3.63101C21.2769 3.87079 21.3621 4.09344 21.4303 4.23046C22.1293 4.29897 22.7771 4.573 23.2715 4.96692C23.7659 5.36085 24.1069 5.89179 24.2263 6.49124C25.0275 8.58074 27.4143 7.84428 29.6988 7.45035C31.9492 7.07356 34.4212 8.59787 34.4212 11.0813Z" fill="#F7931E"/>
<path d="M14.3038 19.4223L15.0198 18.5831C15.3949 18.1207 15.8893 17.9837 16.3837 17.8295C16.6735 17.7439 16.9804 17.6411 17.3384 17.487L17.4578 17.4356H17.56L18.0033 17.1102C18.1738 16.9732 18.3102 16.8019 18.3784 16.545L18.4466 16.3052V16.2024C18.1567 16.1339 17.884 16.0483 17.6282 15.9284L17.5259 15.8942C16.1962 15.3461 15.5142 14.4555 14.7129 13.445C13.9117 12.4002 12.9911 11.2356 11.1328 9.9853C8.40501 8.1527 3.66554 7.19358 3.61439 7.17646L1.8584 6.83391L5.64316 5.41237L5.7625 5.42949C9.35973 5.75491 11.8829 6.52563 15.2244 8.03281C14.9346 7.84441 14.7641 7.72452 14.73 7.7074L13.8946 7.12508L15.0198 6.74828L15.1562 6.78253C15.6336 6.8853 16.2473 6.9538 16.9974 6.97093L15.9063 6.43999L17.4748 5.90905C17.884 4.91568 18.8046 4.16209 19.9468 3.8538C19.8275 3.73391 19.7422 3.61402 19.7081 3.49413C19.3842 2.67203 20.3219 1.54164 20.6117 1.21623L20.9868 0.805176L21.3619 1.21623C21.6517 1.54164 22.5893 2.6549 22.2654 3.49413C22.2143 3.61402 22.1461 3.75104 22.0267 3.8538C22.5893 3.99082 23.1008 4.24772 23.527 4.59026C24.1067 5.06982 24.4988 5.6864 24.6522 6.37148C24.942 7.10795 25.4876 7.41624 26.4764 7.41624C27.1413 7.41624 27.9085 7.27922 28.7097 7.12508C28.9825 7.07369 29.2553 7.02231 29.5451 6.97093C29.8008 6.91955 30.0736 6.90242 30.3293 6.90242C31.4716 6.90242 32.6138 7.31347 33.4492 8.03281C34.3698 8.82066 34.8813 9.91679 34.8813 11.0986C34.8813 12.0919 34.4551 12.9825 33.6879 13.6162C33.0401 14.1472 32.1706 14.4555 31.3523 14.4555C30.7556 14.4555 30.2271 14.2842 29.852 13.9759C29.511 13.6848 29.1019 13.5477 28.6416 13.5477C28.2153 13.5477 27.9085 13.6848 27.8914 13.6848L27.3459 13.9074C26.6128 15.0035 25.5387 15.9969 23.6804 16.408C23.527 16.9218 23.5441 17.1958 23.5782 17.2814C23.5782 17.2986 23.5952 17.2986 23.6293 17.3157C25.8286 17.8809 26.4934 18.5317 26.5616 18.6174L27.3629 19.4737H14.3038V19.4223ZM30.3464 11.0129C30.2953 11.2185 30.1418 11.8693 30.3805 12.1776C30.568 12.4345 31.0283 12.4859 31.3693 12.4859C31.8126 12.4859 32.1365 12.3831 32.324 12.1604C32.6138 11.835 32.5797 11.3383 32.5797 11.3212V11.2698V11.2185C32.5797 11.2013 32.6138 10.7046 32.2217 10.2936C31.8467 9.88254 31.1477 9.67701 30.2271 9.67701C29.6133 9.67701 29.2723 10.0709 28.8973 10.8245C29.1871 10.5676 29.511 10.4135 29.7497 10.3792L30.5339 10.2251L30.3464 11.0129Z" fill="#FCA430"/>
<path d="M21.0208 1.52431C21.0208 1.52431 22.7427 3.44255 21.2594 3.61382C21.2594 3.8536 21.3447 4.07625 21.4129 4.21327C22.1119 4.28178 22.7597 4.55581 23.2541 4.94973C23.7485 5.34366 24.0895 5.8746 24.2088 6.47404C24.635 7.57018 25.4875 7.87847 26.5274 7.87847C27.4821 7.87847 28.5903 7.60443 29.6814 7.43316C29.9201 7.39891 30.1587 7.38178 30.3804 7.38178C32.4432 7.38178 34.4209 8.83758 34.4209 11.0641C34.4209 12.9138 32.7331 13.9072 31.4033 13.9072C30.943 13.9072 30.5338 13.7873 30.2269 13.5475C29.7155 13.1194 29.1529 12.9995 28.6926 12.9995C28.147 12.9995 27.7549 13.1707 27.7549 13.1707C27.7549 12.2116 28.8972 12.0232 28.8972 12.0232C28.8972 11.0641 29.8519 10.8757 29.8519 10.8757C29.6643 11.6464 29.4768 12.9823 31.3692 12.9823C33.2786 12.9823 33.074 11.2696 33.074 11.2696C33.074 11.2696 33.2616 9.163 30.2269 9.163C27.431 9.163 28.6585 15.0033 23.3564 15.9111C23.0325 16.8017 22.9472 17.5895 23.561 17.7437C25.692 18.2917 26.2376 18.8912 26.2376 18.8912H15.4118C15.8721 18.3431 16.537 18.3945 17.5599 17.9321C17.8498 17.9492 18.1396 17.9492 18.4124 17.9492C20.4241 17.9492 21.8732 17.5895 22.0437 17.5553C21.6175 17.6409 21.106 17.6752 20.5946 17.6752C19.7762 17.6752 18.9409 17.5895 18.3101 17.5039C18.6169 17.2812 18.7874 16.9901 18.8727 16.6647C20.1172 16.5619 21.106 16.2022 21.106 16.2022C20.1513 16.2022 19.4694 16.0995 18.9579 15.9796C18.9579 15.9111 18.9579 15.8426 18.9579 15.7741C18.5146 15.6884 18.1396 15.5685 17.7986 15.4315C15.2413 14.421 15.2243 12.0746 11.4054 9.50554C8.55833 7.63869 3.71657 6.67957 3.71657 6.67957L5.71124 5.92598C9.88811 6.30277 12.5477 7.26189 17.3042 9.55692C19.333 10.5332 21.3106 10.8243 22.8961 10.8243C25.0101 10.8243 26.4422 10.3276 26.4422 10.3276C19.7933 10.3276 19.9808 9.76245 18.4635 9.18013C16.9462 8.61493 15.0368 7.26189 15.0368 7.26189L15.0709 7.24476C15.821 7.41603 16.7927 7.46742 17.7645 7.46742C19.6569 7.46742 21.4981 7.26189 21.4981 7.26189C19.1795 7.26189 17.8498 6.76521 17.2701 6.49117L17.9009 6.28565C18.2419 5.17238 19.3671 4.33316 20.748 4.23039C20.9014 4.02487 20.8844 3.78509 20.8332 3.63095C19.2648 3.4768 21.0208 1.52431 21.0208 1.52431ZM21.0208 0L20.2706 0.839228C20.2365 0.873482 19.9467 1.1989 19.6739 1.62707C19.2136 2.36354 19.0602 2.98012 19.2307 3.54531C18.3101 3.93923 17.5599 4.60719 17.1337 5.46355L16.9462 5.53205L14.5935 6.33703L13.4683 6.71382C10.9622 5.73758 8.74587 5.17238 5.81353 4.91548L5.57485 4.89835L5.35322 4.96686L3.35855 5.72045L0 6.98786L3.51199 7.69007C3.56313 7.7072 8.20032 8.64919 10.8428 10.4133C12.6329 11.6122 13.5194 12.7597 14.3037 13.7702C15.0879 14.7807 15.838 15.7398 17.219 16.3564L17.4235 16.442C17.5429 16.4934 17.6793 16.5448 17.8157 16.579C17.7816 16.6475 17.7304 16.6818 17.6963 16.7161L17.3894 16.9387H17.3383L17.1167 17.0415C16.7927 17.1956 16.5029 17.2812 16.2131 17.3669C15.6505 17.5382 15.0709 17.7094 14.5935 18.2746L13.1785 19.9702H15.3777H26.2376H28.5903L26.9877 18.2404C26.8172 18.052 26.1353 17.4354 24.1406 16.8873C24.1406 16.8702 24.1406 16.8531 24.1577 16.8359C25.8966 16.3906 26.9877 15.4144 27.7208 14.3696L28.147 14.1641C28.1811 14.147 28.4028 14.0785 28.6926 14.0785C29.0336 14.0785 29.3234 14.1812 29.5621 14.3868C30.0394 14.7807 30.6702 14.9862 31.3862 14.9862C33.3298 14.9862 35.4267 13.5133 35.4267 11.1155C35.4267 9.76245 34.8471 8.54642 33.8071 7.65581C32.8695 6.86797 31.6079 6.40554 30.3463 6.40554C30.0565 6.40554 29.7666 6.42266 29.4768 6.47404C29.187 6.52543 28.9142 6.57681 28.6414 6.62819C27.8572 6.78233 27.1071 6.91935 26.4933 6.91935C25.6409 6.91935 25.3511 6.66244 25.1635 6.23426C24.976 5.44642 24.5328 4.76133 23.8679 4.21327C23.5439 3.95636 23.1859 3.73371 22.8109 3.57956C22.9813 3.0315 22.8279 2.39779 22.3505 1.66133C22.0778 1.23315 21.7879 0.907736 21.7539 0.873482L21.0208 0ZM31.3862 11.9547C30.9941 11.9547 30.8236 11.8691 30.7895 11.852C30.7895 11.852 30.7043 11.6978 30.8577 11.1326L31.0794 10.2763C31.4203 10.3448 31.6931 10.4818 31.8636 10.6531C32.0682 10.8757 32.0852 11.1326 32.0852 11.2011L32.0682 11.3381L32.0852 11.3895C32.0852 11.4923 32.0682 11.7149 31.9659 11.8177C31.8295 11.9376 31.5397 11.9547 31.3862 11.9547Z" fill="#3E405F"/>
<path d="M26.2722 18.9086C26.2722 18.9086 25.8289 18.5146 23.5955 17.7611C23.067 17.5898 23.05 16.9903 23.2716 16.271C23.2034 16.271 23.0841 16.2881 22.9477 16.2881C22.6067 16.545 22.1123 16.8362 21.652 16.8876C21.652 16.8876 22.01 17.1102 22.4362 17.0246C22.4362 17.0246 22.3169 17.3671 22.01 17.3843C22.01 17.3843 22.4533 17.6069 22.7772 17.5041C22.7772 17.5041 22.1635 18.2406 21.5668 18.2749C21.5668 18.2749 22.351 18.3262 22.7943 18.2577C22.7943 18.2577 20.1006 18.9257 18.498 18.9257L26.2722 18.9086Z" fill="#D8761D"/>
<path d="M29.2208 9.52295C28.6411 9.86549 27.7034 10.5334 26.7999 11.5953C25.3508 13.308 21.0375 15.4147 16.1446 13.7362C15.8718 13.6506 15.6161 13.5307 15.3604 13.4279C16.0423 14.3014 16.6901 15.0208 17.8153 15.4661C18.1563 15.6031 18.5314 15.7058 18.9746 15.8086C18.9746 15.8771 18.9746 15.9456 18.9746 16.0141C19.469 16.134 20.168 16.2368 21.1227 16.2368C21.1227 16.2368 20.9522 16.3053 20.6624 16.3738C21.4978 16.3567 22.4014 16.3053 22.9299 16.2882C23.2026 16.0998 23.3731 15.9285 23.3731 15.9285C27.8739 15.1406 27.6523 10.8075 29.2208 9.52295Z" fill="#D8761D"/>
<path d="M34.421 11.0815C34.421 9.98532 33.9436 9.07759 33.1935 8.42676C33.2276 8.47814 35.495 11.8522 32.0342 13.8561C33.2276 13.5991 34.421 12.64 34.421 11.0815Z" fill="#D8761D"/>
<path d="M21.3789 7.19346C21.3789 7.19346 23.9021 7.51887 22.6234 7.81003C21.3448 8.10119 25.9138 8.20396 27.6527 7.79291C26.1184 8.01556 24.7715 7.94705 24.1919 6.47412C24.0726 5.87467 23.7316 5.34373 23.2372 4.94981C22.7939 4.59014 22.2143 4.33323 21.5835 4.23047C21.6346 4.29898 23.7145 6.38848 21.3789 7.19346Z" fill="#D8761D"/>
<path d="M14.7131 9.43732C18.6172 11.6981 23.9874 10.9959 24.6012 10.7047C22.8793 10.9274 20.1686 10.9274 17.3044 9.55721C12.5479 7.26218 9.88834 6.30307 5.71147 5.92627L3.7168 6.67986C3.7168 6.67986 8.45627 5.78925 14.7131 9.43732Z" fill="#FCD1B4"/>
<path d="M21.2595 3.61419C22.2312 3.4943 21.8391 2.65508 21.447 2.07275C21.447 2.07275 21.7368 3.10038 21.2254 3.28878C20.6969 3.4943 21.2595 3.61419 21.2595 3.61419Z" fill="#D8761D"/>
</svg>
