<svg width="34" height="33" viewBox="0 0 34 33" fill="none" xmlns="http://www.w3.org/2000/svg">
<path d="M14.3803 12.7977L11.5217 8.50876C11.2075 8.03536 10.6956 8.03541 10.3791 8.5087L7.52031 12.7985C7.2038 13.2718 7.20387 14.0396 7.5208 14.5146L10.3767 18.802C10.6909 19.2754 11.2055 19.2769 11.5193 18.802L14.3781 14.5122C14.6973 14.0405 14.6945 13.2711 14.3803 12.7977ZM26.6107 12.7976L23.7522 8.50862C23.4379 8.03523 22.9234 8.03371 22.6096 8.50857L19.7523 12.7957C19.4358 13.269 19.4359 14.0368 19.7528 14.5117L22.6114 18.8007C22.9256 19.2741 23.4402 19.2756 23.754 18.8007L26.6085 14.5121C26.925 14.0388 26.9277 13.2725 26.6107 12.7976Z" fill="#AA733D"/>
<path d="M14.4692 23.1258C14.4688 23.4824 14.74 23.693 15.1149 23.6932L18.0688 23.6901C18.3569 23.6906 18.5887 23.4639 18.5919 23.1774C18.5924 22.8893 18.3588 22.6571 18.0723 22.6539L16.1758 22.6548L17.0616 21.9695C18.0267 21.2219 18.4914 20.7729 18.4916 19.861L18.4925 19.8471C18.492 18.8303 17.7457 18.1687 16.617 18.1695C15.7919 18.1689 15.2818 18.4656 14.8459 18.9709C14.7587 19.0719 14.7054 19.2142 14.7075 19.3416C14.7089 19.6451 14.9518 19.8863 15.2511 19.8861C15.4385 19.8861 15.5778 19.8008 15.653 19.7144C15.9537 19.387 16.196 19.2421 16.5402 19.239C16.9681 19.2409 17.2694 19.4869 17.2712 19.9458C17.2707 20.3961 17.0076 20.702 16.3284 21.2542L14.7809 22.5235C14.5792 22.6918 14.4691 22.895 14.4692 23.1258Z" fill="#E5E5E5"/>
<path d="M27.0967 22.544C26.9981 23.3702 26.4453 24.0531 25.6939 24.3618C23.9971 24.997 20.7968 25.4454 17.0745 25.4808C13.4378 25.5114 10.3024 25.1358 8.59321 24.5563C7.81238 24.2605 7.23355 23.5586 7.1293 22.709C7.13117 22.7245 7.12451 22.7423 7.12908 22.7594L5.48648 10.608C5.49387 10.6014 5.50582 10.6119 5.5075 10.5841C5.50628 10.1616 5.85551 9.81897 6.28336 9.82088C6.44715 9.81812 6.59283 9.88421 6.71906 9.9715L12.0178 14.6852L16.1706 6.47459C16.3518 6.13583 16.7126 5.90434 17.1292 5.90697C17.5195 5.90522 17.8519 6.12237 18.0406 6.426L22.2162 14.6834L27.414 10.0571C27.4167 10.0586 27.407 10.0818 27.4116 10.0737C27.5497 9.94074 27.7405 9.85989 27.9504 9.8585C28.3783 9.8604 28.7229 10.2 28.7241 10.6224C28.7229 10.6433 28.7334 10.6313 28.7426 10.6403L27.106 22.7151C27.1039 22.6563 27.0887 22.6078 27.0967 22.544Z" fill="#CA9561"/>
<path d="M17.1719 13.9011C19.5354 13.9031 21.4512 15.8166 21.4546 18.1832C21.4526 20.5467 19.5391 22.4625 17.1725 22.4659C14.809 22.4639 12.8932 20.5504 12.8898 18.1838C12.8864 15.8172 14.8053 13.9045 17.1719 13.9011Z" fill="#AA733D"/>
<path d="M17.1973 20.9123C18.2826 20.9118 18.9454 20.2383 18.9487 19.321L18.9495 19.3071C18.9493 18.4022 18.3042 18.0586 17.6426 17.9434L18.5938 17.0326C18.7882 16.8457 18.9158 16.6995 18.9108 16.4335C18.9129 16.1427 18.6818 15.9624 18.3685 15.9618L15.9988 15.9706C15.7499 15.9711 15.5402 16.1781 15.5391 16.4297C15.5396 16.6787 15.7466 16.8883 15.9982 16.8894L17.4905 16.8895L16.5523 17.8402C16.3886 18.0051 16.3222 18.1326 16.3219 18.2767C16.3224 18.5256 16.5294 18.7353 16.781 18.7364L16.9475 18.7352C17.5435 18.7332 17.8979 18.9559 17.8992 19.3531L17.8984 19.3671C17.8976 19.7306 17.6112 19.9582 17.2112 19.958C16.8279 19.9601 16.5388 19.8365 16.2595 19.596C16.1727 19.5278 16.0688 19.4642 15.9178 19.4636C15.641 19.4623 15.403 19.6998 15.4017 19.9766C15.4038 20.1292 15.486 20.274 15.5816 20.358C15.9809 20.6967 16.505 20.9127 17.1973 20.9123Z" fill="#CA9561"/>
</svg>
