<svg width="33" height="32" viewBox="0 0 33 32" fill="none" xmlns="http://www.w3.org/2000/svg">
<path d="M14.2543 12.617L11.3958 8.32809C11.0815 7.8547 10.5697 7.85474 10.2531 8.32804L7.39434 12.6179C7.07782 13.0912 7.07789 13.859 7.39483 14.3339L10.2507 18.6213C10.5649 19.0947 11.0795 19.0962 11.3933 18.6214L14.2521 14.3315C14.5713 13.8598 14.5686 13.0904 14.2543 12.617ZM26.4848 12.6169L23.6262 8.32796C23.312 7.85456 22.7974 7.85305 22.4836 8.3279L19.6263 12.615C19.3098 13.0883 19.3099 13.8561 19.6268 14.3311L22.4854 18.62C22.7996 19.0934 23.3142 19.0949 23.628 18.6201L26.4825 14.3314C26.7991 13.8581 26.8017 13.0919 26.4848 12.6169Z" fill="#C6C6C6"/>
<path d="M14.3432 22.9451C14.3428 23.3017 14.6141 23.5124 14.9889 23.5125L17.9428 23.5094C18.2309 23.5099 18.4627 23.2833 18.4659 22.9967C18.4664 22.7087 18.2328 22.4765 17.9463 22.4733L16.0498 22.4741L16.9356 21.7888C17.9008 21.0412 18.3655 20.5922 18.3657 19.6803L18.3665 19.6664C18.366 18.6496 17.6197 17.9881 16.491 17.9888C15.6659 17.9883 15.1558 18.2849 14.7199 18.7902C14.6327 18.8913 14.5794 19.0335 14.5816 19.1609C14.5829 19.4645 14.8258 19.7056 15.1251 19.7054C15.3125 19.7055 15.4519 19.6201 15.527 19.5337C15.8277 19.2063 16.07 19.0614 16.4142 19.0583C16.8421 19.0602 17.1434 19.3063 17.1452 19.7651C17.1448 20.2154 16.8817 20.5213 16.2024 21.0735L14.6549 22.3428C14.4532 22.5111 14.3431 22.7143 14.3432 22.9451Z" fill="#E8E8E8"/>
<path d="M26.9707 22.3633C26.8722 23.1895 26.3193 23.8724 25.5679 24.1811C23.8711 24.8163 20.6709 25.2648 16.9486 25.3001C13.3119 25.3307 10.1765 24.9551 8.46723 24.3756C7.68641 24.0798 7.10757 23.378 7.00333 22.5284C7.00519 22.5439 6.99853 22.5617 7.0031 22.5787L5.36051 10.4273C5.36789 10.4208 5.37985 10.4313 5.38152 10.4034C5.3803 9.98097 5.72953 9.63831 6.15738 9.64021C6.32118 9.63746 6.46686 9.70354 6.59308 9.79084L11.8918 14.5046L16.0447 6.29393C16.2258 5.95516 16.5866 5.72368 17.0032 5.72631C17.3935 5.72456 17.7259 5.94171 17.9147 6.24534L22.0902 14.5027L27.2881 9.8764C27.2908 9.87796 27.281 9.90115 27.2857 9.89304C27.4237 9.76007 27.6146 9.67922 27.8244 9.67784C28.2523 9.67974 28.5969 10.0193 28.5981 10.4417C28.5969 10.4626 28.6074 10.4507 28.6166 10.4596L26.98 22.5345C26.978 22.4756 26.9627 22.4271 26.9707 22.3633Z" fill="#E8E8E8"/>
<path d="M17.0459 13.7204C19.4094 13.7224 21.3252 15.636 21.3286 18.0026C21.3266 20.366 19.4131 22.2819 17.0465 22.2853C14.6831 22.2832 12.7672 20.3697 12.7638 18.0031C12.7604 15.6366 14.6794 13.7238 17.0459 13.7204Z" fill="#C6C6C6"/>
<path d="M15.2897 19.9519C15.2906 20.2876 15.5472 20.4862 15.8968 20.4862L18.6784 20.4881C18.951 20.4905 19.168 20.277 19.1677 20.0028C19.1701 19.7303 18.9496 19.5128 18.6754 19.5132L16.8881 19.5122L17.7238 18.8701C18.6319 18.1651 19.074 17.7427 19.0724 16.8839L19.0732 16.87C19.0721 15.9105 18.3682 15.2879 17.3081 15.2886C16.5333 15.2882 16.048 15.5668 15.6363 16.0427C15.5538 16.1357 15.5052 16.2698 15.5019 16.3941C15.5002 16.6779 15.7284 16.907 16.015 16.9102C16.1911 16.911 16.3204 16.8306 16.3967 16.7485C16.6822 16.4412 16.9074 16.3008 17.2304 16.3034C17.6319 16.301 17.917 16.5377 17.9162 16.9698C17.9159 17.3949 17.6653 17.6792 17.0299 18.199L15.578 19.3902C15.3942 19.54 15.2892 19.7281 15.2897 19.9519Z" fill="#E8E8E8"/>
</svg>
