<svg width="33" height="32" viewBox="0 0 33 32" fill="none" xmlns="http://www.w3.org/2000/svg">
<path d="M14.2543 12.617L11.3958 8.32809C11.0815 7.8547 10.5697 7.85474 10.2531 8.32804L7.39434 12.6179C7.07782 13.0912 7.07789 13.859 7.39483 14.3339L10.2507 18.6213C10.5649 19.0947 11.0795 19.0962 11.3933 18.6214L14.2521 14.3315C14.5713 13.8598 14.5686 13.0904 14.2543 12.617ZM26.4848 12.6169L23.6262 8.32796C23.312 7.85456 22.7974 7.85305 22.4836 8.3279L19.6263 12.615C19.3098 13.0883 19.3099 13.8561 19.6268 14.3311L22.4854 18.62C22.7996 19.0934 23.3142 19.0949 23.628 18.6201L26.4868 14.3303C26.7991 13.8581 26.8017 13.0919 26.4848 12.6169Z" fill="#FEAE30"/>
<path d="M14.3442 22.9451C14.3438 23.3017 14.615 23.5124 14.9899 23.5125L17.9438 23.5094C18.2319 23.5099 18.4637 23.2833 18.4669 22.9967C18.4674 22.7087 18.2338 22.4765 17.9473 22.4733L16.0508 22.4741L16.9366 21.7888C17.9017 21.0412 18.3664 20.5922 18.3666 19.6803L18.3675 19.6664C18.367 18.6496 17.6207 17.9881 16.492 17.9888C15.6669 17.9883 15.1568 18.2849 14.7209 18.7902C14.6337 18.8913 14.5804 19.0335 14.5825 19.1609C14.5839 19.4645 14.8268 19.7056 15.1261 19.7054C15.3135 19.7055 15.4528 19.6201 15.528 19.5337C15.8287 19.2063 16.071 19.0614 16.4152 19.0583C16.8431 19.0602 17.1444 19.3063 17.1462 19.7651C17.1457 20.2154 16.8826 20.5213 16.2034 21.0735L14.6559 22.3428C14.4542 22.5111 14.3441 22.7143 14.3442 22.9451Z" fill="#E5E5E5"/>
<path d="M26.9707 22.3633C26.8722 23.1895 26.3193 23.8724 25.5679 24.1811C23.8711 24.8163 20.6709 25.2648 16.9486 25.3001C13.3119 25.3308 10.1764 24.9551 8.46723 24.3756C7.6864 24.0798 7.10757 23.378 7.00332 22.5284C7.00519 22.5439 6.99853 22.5617 7.0031 22.5787L5.36051 10.4273C5.36789 10.4208 5.37985 10.4313 5.38152 10.4034C5.3803 9.98097 5.72953 9.63831 6.15738 9.64021C6.32118 9.63746 6.46686 9.70354 6.59308 9.79084L11.8918 14.5046L16.0447 6.29393C16.2258 5.95516 16.5866 5.72368 17.0032 5.72631C17.3935 5.72456 17.7259 5.94171 17.9147 6.24534L22.0902 14.5027L27.2881 9.8764C27.2908 9.87796 27.281 9.90115 27.2857 9.89304C27.4237 9.76007 27.6146 9.67922 27.8244 9.67784C28.2523 9.67974 28.5969 10.0193 28.5981 10.4417C28.5969 10.4626 28.6074 10.4507 28.6166 10.4596L26.98 22.5345C26.978 22.4756 26.9627 22.4271 26.9707 22.3633Z" fill="#FED530"/>
<path d="M17.045 13.7195C19.4084 13.7215 21.3243 15.635 21.3277 18.0016C21.3257 20.365 19.4121 22.2809 17.0455 22.2843C14.6821 22.2823 12.7662 20.3687 12.7628 18.0022C12.7594 15.6356 14.6784 13.7229 17.045 13.7195Z" fill="#FEAE30"/>
<path d="M16.8579 20.1007C16.8573 20.4825 17.1661 20.7905 17.5479 20.791C17.9297 20.7916 18.2377 20.4828 18.2382 20.101L18.157 16.3522C18.1575 15.9704 17.8487 15.6624 17.467 15.6618L17.4488 15.6621C17.2587 15.6605 17.0587 15.7073 16.797 15.7797L15.8987 16.0432C15.6168 16.1256 15.4349 16.3594 15.4376 16.6421C15.4361 16.9693 15.7191 17.2408 16.0451 17.238C16.1206 17.2383 16.214 17.2202 16.2908 17.1996L16.7823 17.0725L16.8579 20.1007Z" fill="#FED530"/>
</svg>
